<svg width="377" height="503" viewBox="0 0 377 503" fill="none" xmlns="http://www.w3.org/2000/svg">
<g filter="url(#filter0_dd_163_1211)">
<rect x="3.45801" y="0.69162" width="404.252" height="539" rx="10.466" fill="#FAFAFA"/>
<rect x="3.80382" y="1.03743" width="403.56" height="538.308" rx="10.1202" stroke="#E5E7EB" strokeWidth="0.69162"/>
<line x1="20.2461" y1="84.4405" x2="391.76" y2="84.4405" stroke="#E5E5E5" strokeWidth="1.01507"/>
<path opacity="0.8" d="M21.6287 113.259H20.4513L22.595 107.169H23.9568L26.1035 113.259H24.9261L23.2997 108.418H23.2521L21.6287 113.259ZM21.6673 110.871H24.8785V111.757H21.6673V110.871ZM26.9055 113.259V107.169H27.9819V109.447H28.0265C28.082 109.336 28.1603 109.218 28.2614 109.093C28.3625 108.966 28.4992 108.858 28.6717 108.769C28.8441 108.678 29.0642 108.632 29.3318 108.632C29.6846 108.632 30.0027 108.722 30.2862 108.903C30.5716 109.081 30.7976 109.346 30.9641 109.697C31.1326 110.045 31.2168 110.474 31.2168 110.981C31.2168 111.483 31.1346 111.909 30.97 112.26C30.8055 112.61 30.5815 112.878 30.2981 113.062C30.0146 113.247 29.6935 113.339 29.3347 113.339C29.0731 113.339 28.856 113.295 28.6836 113.208C28.5111 113.121 28.3724 113.016 28.2673 112.893C28.1642 112.768 28.084 112.65 28.0265 112.539H27.964V113.259H26.9055ZM27.9611 110.975C27.9611 111.27 28.0027 111.529 28.0859 111.751C28.1712 111.973 28.2931 112.147 28.4517 112.271C28.6122 112.394 28.8065 112.456 29.0344 112.456C29.2723 112.456 29.4715 112.392 29.6321 112.266C29.7926 112.137 29.9135 111.961 29.9948 111.739C30.0781 111.515 30.1197 111.261 30.1197 110.975C30.1197 110.692 30.079 110.44 29.9978 110.22C29.9165 110 29.7956 109.827 29.635 109.703C29.4745 109.578 29.2743 109.515 29.0344 109.515C28.8045 109.515 28.6092 109.576 28.4487 109.697C28.2881 109.818 28.1662 109.987 28.083 110.205C28.0017 110.423 27.9611 110.68 27.9611 110.975ZM34.124 113.348C33.678 113.348 33.2915 113.25 32.9644 113.053C32.6373 112.857 32.3836 112.583 32.2032 112.23C32.0248 111.877 31.9356 111.465 31.9356 110.993C31.9356 110.521 32.0248 110.108 32.2032 109.753C32.3836 109.398 32.6373 109.123 32.9644 108.927C33.2915 108.73 33.678 108.632 34.124 108.632C34.57 108.632 34.9565 108.73 35.2836 108.927C35.6106 109.123 35.8634 109.398 36.0418 109.753C36.2221 110.108 36.3123 110.521 36.3123 110.993C36.3123 111.465 36.2221 111.877 36.0418 112.23C35.8634 112.583 35.6106 112.857 35.2836 113.053C34.9565 113.25 34.57 113.348 34.124 113.348ZM34.1299 112.486C34.3718 112.486 34.5739 112.419 34.7365 112.286C34.899 112.152 35.0199 111.971 35.0992 111.745C35.1805 111.519 35.2211 111.267 35.2211 110.99C35.2211 110.71 35.1805 110.458 35.0992 110.232C35.0199 110.004 34.899 109.822 34.7365 109.688C34.5739 109.553 34.3718 109.485 34.1299 109.485C33.8821 109.485 33.676 109.553 33.5115 109.688C33.3489 109.822 33.227 110.004 33.1458 110.232C33.0665 110.458 33.0268 110.71 33.0268 110.99C33.0268 111.267 33.0665 111.519 33.1458 111.745C33.227 111.971 33.3489 112.152 33.5115 112.286C33.676 112.419 33.8821 112.486 34.1299 112.486ZM40.1367 111.338V108.692H41.2131V113.259H40.1694V112.447H40.1219C40.0188 112.703 39.8493 112.912 39.6134 113.074C39.3795 113.237 39.0911 113.318 38.7482 113.318C38.4489 113.318 38.1843 113.252 37.9543 113.119C37.7264 112.984 37.548 112.789 37.4191 112.533C37.2903 112.275 37.2259 111.964 37.2259 111.6V108.692H38.3022V111.433C38.3022 111.722 38.3815 111.952 38.5401 112.123C38.6986 112.293 38.9068 112.379 39.1645 112.379C39.323 112.379 39.4767 112.34 39.6253 112.263C39.774 112.185 39.8959 112.07 39.991 111.918C40.0882 111.763 40.1367 111.57 40.1367 111.338ZM44.6004 108.692V109.524H41.975V108.692H44.6004ZM42.6232 107.597H43.6995V111.885C43.6995 112.03 43.7213 112.141 43.7649 112.218C43.8105 112.293 43.87 112.345 43.9433 112.373C44.0166 112.4 44.0979 112.414 44.1871 112.414C44.2545 112.414 44.316 112.409 44.3715 112.399C44.4289 112.389 44.4726 112.38 44.5023 112.373L44.6837 113.214C44.6262 113.234 44.5439 113.256 44.4369 113.279C44.3318 113.303 44.203 113.317 44.0503 113.321C43.7808 113.329 43.5379 113.288 43.3219 113.199C43.1058 113.108 42.9344 112.967 42.8075 112.777C42.6826 112.587 42.6212 112.349 42.6232 112.063V107.597Z" fill="#525252"/>
<path opacity="0.8" d="M26.0159 175.136H24.9039C24.8722 174.954 24.8137 174.792 24.7285 174.651C24.6433 174.509 24.5372 174.388 24.4103 174.289C24.2835 174.19 24.1388 174.115 23.9762 174.066C23.8157 174.014 23.6422 173.988 23.4559 173.988C23.1249 173.988 22.8315 174.072 22.5758 174.238C22.3201 174.403 22.1199 174.645 21.9752 174.964C21.8305 175.281 21.7582 175.668 21.7582 176.126C21.7582 176.592 21.8305 176.985 21.9752 177.304C22.1219 177.621 22.3221 177.861 22.5758 178.023C22.8315 178.184 23.1239 178.264 23.4529 178.264C23.6353 178.264 23.8058 178.24 23.9644 178.193C24.1249 178.143 24.2686 178.071 24.3955 177.976C24.5243 177.88 24.6324 177.764 24.7196 177.625C24.8088 177.486 24.8702 177.327 24.9039 177.149L26.0159 177.155C25.9743 177.444 25.8841 177.716 25.7454 177.97C25.6086 178.223 25.4292 178.447 25.2072 178.642C24.9852 178.834 24.7255 178.985 24.4282 179.094C24.1309 179.201 23.8008 179.254 23.4381 179.254C22.9029 179.254 22.4252 179.13 22.0049 178.882C21.5847 178.635 21.2537 178.277 21.0119 177.809C20.77 177.341 20.6491 176.78 20.6491 176.126C20.6491 175.47 20.771 174.909 21.0148 174.443C21.2586 173.976 21.5907 173.618 22.0109 173.37C22.4311 173.122 22.9068 172.998 23.4381 172.998C23.777 172.998 24.0922 173.046 24.3836 173.141C24.675 173.236 24.9346 173.376 25.1626 173.56C25.3905 173.743 25.5779 173.967 25.7245 174.232C25.8732 174.496 25.9703 174.797 26.0159 175.136ZM28.9706 179.26C28.5247 179.26 28.1381 179.162 27.8111 178.966C27.484 178.769 27.2303 178.495 27.0499 178.142C26.8715 177.789 26.7823 177.377 26.7823 176.905C26.7823 176.433 26.8715 176.02 27.0499 175.665C27.2303 175.311 27.484 175.035 27.8111 174.839C28.1381 174.643 28.5247 174.544 28.9706 174.544C29.4166 174.544 29.8032 174.643 30.1302 174.839C30.4573 175.035 30.71 175.311 30.8884 175.665C31.0688 176.02 31.159 176.433 31.159 176.905C31.159 177.377 31.0688 177.789 30.8884 178.142C30.71 178.495 30.4573 178.769 30.1302 178.966C29.8032 179.162 29.4166 179.26 28.9706 179.26ZM28.9766 178.398C29.2184 178.398 29.4206 178.331 29.5831 178.199C29.7457 178.064 29.8666 177.883 29.9459 177.657C30.0272 177.431 30.0678 177.18 30.0678 176.902C30.0678 176.623 30.0272 176.37 29.9459 176.144C29.8666 175.916 29.7457 175.735 29.5831 175.6C29.4206 175.465 29.2184 175.398 28.9766 175.398C28.7288 175.398 28.5227 175.465 28.3581 175.6C28.1956 175.735 28.0737 175.916 27.9924 176.144C27.9131 176.37 27.8735 176.623 27.8735 176.902C27.8735 177.18 27.9131 177.431 27.9924 177.657C28.0737 177.883 28.1956 178.064 28.3581 178.199C28.5227 178.331 28.7288 178.398 28.9766 178.398ZM33.1489 176.495V179.171H32.0725V174.604H33.1013V175.38H33.1548C33.2599 175.124 33.4274 174.921 33.6573 174.77C33.8892 174.62 34.1757 174.544 34.5166 174.544C34.8318 174.544 35.1063 174.612 35.3402 174.747C35.5761 174.881 35.7584 175.077 35.8873 175.332C36.0181 175.588 36.0825 175.898 36.0806 176.263V179.171H35.0042V176.429C35.0042 176.124 34.9249 175.885 34.7664 175.713C34.6098 175.54 34.3927 175.454 34.1152 175.454C33.9269 175.454 33.7594 175.496 33.6127 175.579C33.468 175.66 33.354 175.778 33.2708 175.933C33.1895 176.088 33.1489 176.275 33.1489 176.495ZM39.4553 174.604V175.436H36.8298V174.604H39.4553ZM37.478 173.51H38.5543V177.797C38.5543 177.942 38.5761 178.053 38.6198 178.13C38.6653 178.206 38.7248 178.257 38.7982 178.285C38.8715 178.313 38.9528 178.326 39.042 178.326C39.1094 178.326 39.1708 178.321 39.2263 178.312C39.2838 178.302 39.3274 178.293 39.3571 178.285L39.5385 179.126C39.481 179.146 39.3988 179.168 39.2917 179.192C39.1867 179.215 39.0578 179.229 38.9052 179.233C38.6356 179.241 38.3928 179.201 38.1767 179.111C37.9607 179.02 37.7892 178.879 37.6623 178.689C37.5375 178.499 37.476 178.261 37.478 177.976V173.51ZM41.6696 179.263C41.3802 179.263 41.1196 179.212 40.8876 179.108C40.6577 179.003 40.4753 178.849 40.3406 178.645C40.2077 178.44 40.1413 178.189 40.1413 177.889C40.1413 177.632 40.1889 177.419 40.2841 177.25C40.3792 177.082 40.509 176.947 40.6736 176.846C40.8381 176.745 41.0234 176.668 41.2296 176.617C41.4377 176.563 41.6528 176.525 41.8748 176.501C42.1424 176.473 42.3594 176.448 42.5259 176.427C42.6924 176.403 42.8133 176.367 42.8887 176.319C42.966 176.27 43.0046 176.194 43.0046 176.091V176.073C43.0046 175.849 42.9382 175.675 42.8054 175.552C42.6726 175.429 42.4813 175.368 42.2316 175.368C41.9679 175.368 41.7588 175.425 41.6042 175.54C41.4516 175.655 41.3485 175.791 41.295 175.948L40.29 175.805C40.3693 175.528 40.5001 175.296 40.6825 175.109C40.8648 174.921 41.0878 174.78 41.3515 174.687C41.6151 174.592 41.9065 174.544 42.2256 174.544C42.4456 174.544 42.6647 174.57 42.8827 174.622C43.1008 174.673 43.3 174.758 43.4804 174.877C43.6607 174.994 43.8054 175.154 43.9145 175.356C44.0255 175.558 44.081 175.811 44.081 176.114V179.171H43.0463V178.544H43.0106C42.9452 178.67 42.853 178.789 42.7341 178.9C42.6171 179.009 42.4694 179.098 42.291 179.165C42.1146 179.23 41.9075 179.263 41.6696 179.263ZM41.9491 178.472C42.1652 178.472 42.3525 178.43 42.5111 178.344C42.6696 178.257 42.7915 178.142 42.8768 177.999C42.964 177.857 43.0076 177.701 43.0076 177.533V176.994C42.9739 177.022 42.9164 177.048 42.8352 177.072C42.7559 177.096 42.6667 177.116 42.5676 177.134C42.4684 177.152 42.3703 177.168 42.2732 177.182C42.1761 177.196 42.0918 177.207 42.0205 177.217C41.8599 177.239 41.7162 177.275 41.5893 177.324C41.4625 177.374 41.3624 177.443 41.289 177.533C41.2157 177.62 41.179 177.733 41.179 177.872C41.179 178.07 41.2514 178.219 41.3961 178.321C41.5408 178.422 41.7251 178.472 41.9491 178.472ZM47.1554 179.26C46.6995 179.26 46.308 179.16 45.9809 178.96C45.6558 178.76 45.4051 178.483 45.2287 178.13C45.0542 177.775 44.967 177.367 44.967 176.905C44.967 176.441 45.0562 176.032 45.2346 175.677C45.413 175.32 45.6647 175.043 45.9898 174.845C46.3169 174.645 46.7034 174.544 47.1494 174.544C47.5201 174.544 47.8481 174.613 48.1336 174.75C48.421 174.884 48.6499 175.076 48.8204 175.323C48.9909 175.569 49.088 175.857 49.1118 176.186H48.083C48.0414 175.966 47.9423 175.782 47.7857 175.636C47.6311 175.487 47.4239 175.413 47.1643 175.413C46.9443 175.413 46.751 175.472 46.5845 175.591C46.418 175.708 46.2881 175.876 46.195 176.096C46.1038 176.316 46.0582 176.58 46.0582 176.887C46.0582 177.199 46.1038 177.466 46.195 177.69C46.2862 177.912 46.414 178.084 46.5785 178.205C46.745 178.323 46.9403 178.383 47.1643 178.383C47.3229 178.383 47.4646 178.353 47.5895 178.294C47.7163 178.232 47.8224 178.144 47.9076 178.029C47.9928 177.914 48.0513 177.774 48.083 177.61H49.1118C49.086 177.933 48.9909 178.219 48.8264 178.469C48.6618 178.717 48.4378 178.911 48.1544 179.052C47.8709 179.191 47.5379 179.26 47.1554 179.26ZM52.2761 174.604V175.436H49.6507V174.604H52.2761ZM50.2989 173.51H51.3752V177.797C51.3752 177.942 51.397 178.053 51.4406 178.13C51.4862 178.206 51.5457 178.257 51.619 178.285C51.6924 178.313 51.7736 178.326 51.8628 178.326C51.9302 178.326 51.9917 178.321 52.0472 178.312C52.1047 178.302 52.1483 178.293 52.178 178.285L52.3594 179.126C52.3019 179.146 52.2196 179.168 52.1126 179.192C52.0075 179.215 51.8787 179.229 51.7261 179.233C51.4565 179.241 51.2137 179.201 50.9976 179.111C50.7815 179.02 50.6101 178.879 50.4832 178.689C50.3583 178.499 50.2969 178.261 50.2989 177.976V173.51Z" fill="#525252"/>
<path opacity="0.8" d="M24.113 245.924C24.0853 245.665 23.9683 245.463 23.7622 245.318C23.558 245.173 23.2924 245.101 22.9653 245.101C22.7354 245.101 22.5382 245.136 22.3736 245.205C22.2091 245.274 22.0832 245.368 21.996 245.487C21.9088 245.606 21.8642 245.742 21.8622 245.895C21.8622 246.022 21.891 246.132 21.9485 246.225C22.0079 246.318 22.0882 246.397 22.1893 246.463C22.2904 246.526 22.4024 246.58 22.5253 246.623C22.6482 246.667 22.7721 246.703 22.8969 246.733L23.4678 246.876C23.6977 246.929 23.9188 247.002 24.1309 247.093C24.3449 247.184 24.5362 247.299 24.7047 247.438C24.8752 247.577 25.01 247.744 25.1091 247.94C25.2082 248.137 25.2577 248.367 25.2577 248.63C25.2577 248.987 25.1666 249.301 24.9842 249.573C24.8018 249.842 24.5382 250.053 24.1933 250.206C23.8504 250.357 23.4351 250.432 22.9475 250.432C22.4737 250.432 22.0624 250.359 21.7136 250.212C21.3667 250.065 21.0951 249.851 20.8989 249.57C20.7046 249.288 20.5996 248.945 20.5837 248.541H21.669C21.6848 248.753 21.7502 248.929 21.8652 249.07C21.9802 249.211 22.1298 249.316 22.3142 249.385C22.5005 249.455 22.7086 249.489 22.9386 249.489C23.1784 249.489 23.3885 249.454 23.5689 249.382C23.7513 249.309 23.894 249.208 23.9971 249.079C24.1001 248.948 24.1527 248.796 24.1546 248.621C24.1527 248.463 24.1061 248.332 24.0149 248.229C23.9237 248.124 23.7959 248.036 23.6313 247.967C23.4688 247.896 23.2785 247.832 23.0605 247.777L22.3677 247.598C21.8662 247.47 21.4698 247.274 21.1784 247.013C20.889 246.749 20.7443 246.399 20.7443 245.963C20.7443 245.604 20.8414 245.29 21.0356 245.021C21.2319 244.751 21.4985 244.542 21.8355 244.393C22.1724 244.243 22.554 244.167 22.9802 244.167C23.4123 244.167 23.7909 244.243 24.116 244.393C24.4431 244.542 24.6997 244.749 24.8861 245.015C25.0724 245.278 25.1685 245.582 25.1745 245.924H24.113ZM27.1748 248.907L27.1718 247.607H27.3443L28.9855 245.773H30.2432L28.2243 248.021H28.0014L27.1748 248.907ZM26.1936 250.34V244.25H27.2699V250.34H26.1936ZM29.0598 250.34L27.5732 248.261L28.2987 247.503L30.3473 250.34H29.0598ZM30.9605 250.34V245.773H32.0369V250.34H30.9605ZM31.5017 245.125C31.3312 245.125 31.1845 245.068 31.0616 244.955C30.9387 244.84 30.8773 244.702 30.8773 244.542C30.8773 244.379 30.9387 244.242 31.0616 244.129C31.1845 244.014 31.3312 243.956 31.5017 243.956C31.6741 243.956 31.8208 244.014 31.9417 244.129C32.0646 244.242 32.1261 244.379 32.1261 244.542C32.1261 244.702 32.0646 244.84 31.9417 244.955C31.8208 245.068 31.6741 245.125 31.5017 245.125ZM34.22 244.25V250.34H33.1437V244.25H34.22ZM36.4032 244.25V250.34H35.3268V244.25H36.4032ZM41.1196 246.98L40.1384 247.087C40.1106 246.988 40.0621 246.895 39.9927 246.808C39.9253 246.72 39.8341 246.65 39.7191 246.596C39.6042 246.543 39.4634 246.516 39.2969 246.516C39.0729 246.516 38.8846 246.565 38.732 246.662C38.5813 246.759 38.507 246.885 38.509 247.039C38.507 247.172 38.5556 247.28 38.6547 247.364C38.7558 247.447 38.9223 247.515 39.1542 247.569L39.9332 247.735C40.3653 247.828 40.6864 247.976 40.8966 248.178C41.1087 248.38 41.2157 248.645 41.2177 248.972C41.2157 249.26 41.1314 249.513 40.9649 249.733C40.8004 249.951 40.5715 250.122 40.2781 250.245C39.9847 250.368 39.6478 250.429 39.2672 250.429C38.7082 250.429 38.2582 250.312 37.9173 250.078C37.5764 249.842 37.3732 249.514 37.3078 249.094L38.3574 248.993C38.4049 249.199 38.506 249.355 38.6606 249.46C38.8152 249.565 39.0164 249.617 39.2642 249.617C39.5199 249.617 39.7251 249.565 39.8797 249.46C40.0363 249.355 40.1146 249.225 40.1146 249.07C40.1146 248.939 40.064 248.831 39.9629 248.746C39.8638 248.661 39.7092 248.595 39.4991 248.55L38.7201 248.386C38.282 248.295 37.9579 248.142 37.7478 247.925C37.5377 247.707 37.4337 247.432 37.4356 247.099C37.4337 246.817 37.51 246.574 37.6646 246.367C37.8212 246.159 38.0382 245.999 38.3157 245.886C38.5952 245.771 38.9173 245.713 39.2821 245.713C39.8172 245.713 40.2385 245.827 40.5457 246.055C40.8549 246.283 41.0462 246.591 41.1196 246.98Z" fill="#525252"/>
<rect x="20.2461" y="123.56" width="366.268" height="6.0904" rx="3.0452" fill="#E2E8F0"/>
<rect x="20.2031" y="189.472" width="93.572" height="6.0904" rx="3.0452" fill="#E2E8F0"/>
<rect x="20.2031" y="260.641" width="69.5107" height="6.0904" rx="3.0452" fill="#E2E8F0"/>
<rect x="20.2031" y="270.792" width="69.5107" height="6.0904" rx="3.0452" fill="#E2E8F0"/>
<rect x="20.2031" y="280.942" width="69.5107" height="6.0904" rx="3.0452" fill="#E2E8F0"/>
<rect x="20.2031" y="291.093" width="69.5107" height="6.0904" rx="3.0452" fill="#E2E8F0"/>
<rect x="20.2031" y="301.244" width="69.5107" height="6.0904" rx="3.0452" fill="#E2E8F0"/>
<rect x="105.755" y="260.641" width="280.716" height="6.0904" rx="3.0452" fill="#E2E8F0"/>
<rect x="105.755" y="270.792" width="280.716" height="6.0904" rx="3.0452" fill="#E2E8F0"/>
<rect x="105.755" y="280.942" width="280.716" height="6.0904" rx="3.0452" fill="#E2E8F0"/>
<rect x="105.755" y="291.093" width="280.716" height="6.0904" rx="3.0452" fill="#E2E8F0"/>
<rect x="105.755" y="301.244" width="280.716" height="6.0904" rx="3.0452" fill="#E2E8F0"/>
<rect x="20.2031" y="214.849" width="93.572" height="6.0904" rx="3.0452" fill="#E2E8F0"/>
<rect x="20.2461" y="132.696" width="366.268" height="6.0904" rx="3.0452" fill="#E2E8F0"/>
<rect x="20.2031" y="198.608" width="366.268" height="6.0904" rx="3.0452" fill="#E2E8F0"/>
<rect x="20.2031" y="223.984" width="366.268" height="6.0904" rx="3.0452" fill="#E2E8F0"/>
<rect x="20.2461" y="141.831" width="366.268" height="6.0904" rx="3.0452" fill="#E2E8F0"/>
<rect x="20.2461" y="150.967" width="189.818" height="6.0904" rx="3.0452" fill="#E2E8F0"/>
<path d="M344.613 28.249H381.992C384.093 28.249 385.796 29.952 385.796 32.0527V41.0097C385.796 43.1105 384.093 44.8134 381.992 44.8134H344.613C342.513 44.8133 340.81 43.1104 340.81 41.0097V32.0527C340.81 29.9521 342.513 28.2491 344.613 28.249Z" fill="#ECF8ED"/>
<path d="M344.613 28.249H381.992C384.093 28.249 385.796 29.952 385.796 32.0527V41.0097C385.796 43.1105 384.093 44.8134 381.992 44.8134H344.613C342.513 44.8133 340.81 43.1104 340.81 41.0097V32.0527C340.81 29.9521 342.513 28.2491 344.613 28.249Z" stroke="#B2F2BB" strokeWidth="0.69162"/>
<path d="M351.266 36.8881C351.266 37.4186 351.17 37.8771 350.979 38.2635C350.787 38.6499 350.524 38.9479 350.19 39.1575C349.856 39.3671 349.475 39.4718 349.046 39.4718C348.617 39.4718 348.235 39.3671 347.901 39.1575C347.567 38.9479 347.305 38.6499 347.113 38.2635C346.921 37.8771 346.826 37.4186 346.826 36.8881C346.826 36.3576 346.921 35.8991 347.113 35.5127C347.305 35.1263 347.567 34.8283 347.901 34.6187C348.235 34.4091 348.617 34.3043 349.046 34.3043C349.475 34.3043 349.856 34.4091 350.19 34.6187C350.524 34.8283 350.787 35.1263 350.979 35.5127C351.17 35.8991 351.266 36.3576 351.266 36.8881ZM350.677 36.8881C350.677 36.4526 350.604 36.085 350.458 35.7853C350.314 35.4857 350.118 35.2589 349.871 35.105C349.626 34.9511 349.351 34.8741 349.046 34.8741C348.741 34.8741 348.466 34.9511 348.218 35.105C347.973 35.2589 347.777 35.4857 347.631 35.7853C347.487 36.085 347.415 36.4526 347.415 36.8881C347.415 37.3236 347.487 37.6912 347.631 37.9909C347.777 38.2905 347.973 38.5173 348.218 38.6712C348.466 38.8251 348.741 38.902 349.046 38.902C349.351 38.902 349.626 38.8251 349.871 38.6712C350.118 38.5173 350.314 38.2905 350.458 37.9909C350.604 37.6912 350.677 37.3236 350.677 36.8881ZM352.212 40.8178V35.6306H352.772V36.2299H352.841C352.883 36.1644 352.942 36.0809 353.017 35.9794C353.094 35.8762 353.204 35.7845 353.346 35.7043C353.491 35.6224 353.685 35.5815 353.931 35.5815C354.249 35.5815 354.529 35.6609 354.771 35.8197C355.013 35.9785 355.202 36.2037 355.338 36.4951C355.474 36.7866 355.542 37.1304 355.542 37.5267C355.542 37.9262 355.474 38.2725 355.338 38.5656C355.202 38.857 355.014 39.083 354.773 39.2434C354.533 39.4023 354.255 39.4817 353.941 39.4817C353.699 39.4817 353.504 39.4416 353.359 39.3613C353.213 39.2795 353.101 39.1869 353.022 39.0838C352.944 38.979 352.883 38.8922 352.841 38.8235H352.791V40.8178H352.212ZM352.782 37.5168C352.782 37.8017 352.823 38.0531 352.907 38.2708C352.99 38.487 353.112 38.6564 353.273 38.7792C353.433 38.9004 353.63 38.961 353.862 38.961C354.105 38.961 354.307 38.8971 354.469 38.7694C354.633 38.6401 354.755 38.4665 354.837 38.2487C354.921 38.0293 354.963 37.7854 354.963 37.5168C354.963 37.2516 354.922 37.0125 354.84 36.7997C354.76 36.5852 354.638 36.4157 354.474 36.2913C354.312 36.1652 354.108 36.1022 353.862 36.1022C353.626 36.1022 353.428 36.1619 353.268 36.2815C353.107 36.3993 352.986 36.5647 352.904 36.7776C352.823 36.9888 352.782 37.2352 352.782 37.5168ZM358.067 35.6306V36.1218H356.112V35.6306H358.067ZM356.682 34.7268H357.261V38.3224C357.261 38.4862 357.285 38.609 357.333 38.6908C357.382 38.7711 357.444 38.8251 357.519 38.8529C357.596 38.8791 357.677 38.8922 357.762 38.8922C357.826 38.8922 357.879 38.8889 357.92 38.8824C357.961 38.8742 357.993 38.8677 358.018 38.8627L358.136 39.3834C358.096 39.3982 358.042 39.4129 357.971 39.4276C357.901 39.444 357.812 39.4522 357.703 39.4522C357.54 39.4522 357.379 39.417 357.222 39.3466C357.067 39.2762 356.937 39.1689 356.834 39.0248C356.733 38.8808 356.682 38.699 356.682 38.4796V34.7268ZM358.939 39.4031V35.6306H359.518V39.4031H358.939ZM359.234 35.0019C359.121 35.0019 359.023 34.9634 358.941 34.8864C358.861 34.8095 358.821 34.717 358.821 34.6089C358.821 34.5008 358.861 34.4083 358.941 34.3314C359.023 34.2544 359.121 34.2159 359.234 34.2159C359.347 34.2159 359.443 34.2544 359.523 34.3314C359.605 34.4083 359.646 34.5008 359.646 34.6089C359.646 34.717 359.605 34.8095 359.523 34.8864C359.443 34.9634 359.347 35.0019 359.234 35.0019ZM360.58 39.4031V35.6306H361.14V36.2201H361.189C361.268 36.0187 361.395 35.8623 361.57 35.751C361.745 35.638 361.955 35.5815 362.201 35.5815C362.45 35.5815 362.657 35.638 362.822 35.751C362.989 35.8623 363.12 36.0187 363.213 36.2201H363.252C363.349 36.0252 363.494 35.8705 363.687 35.7559C363.88 35.6396 364.112 35.5815 364.382 35.5815C364.719 35.5815 364.995 35.6871 365.21 35.8983C365.424 36.1079 365.531 36.4345 365.531 36.8783V39.4031H364.952V36.8783C364.952 36.5999 364.876 36.401 364.723 36.2815C364.571 36.1619 364.392 36.1022 364.186 36.1022C363.92 36.1022 363.715 36.1824 363.569 36.3429C363.423 36.5017 363.351 36.7031 363.351 36.947V39.4031H362.761V36.8193C362.761 36.6048 362.691 36.4321 362.552 36.3011C362.413 36.1685 362.234 36.1022 362.014 36.1022C361.864 36.1022 361.723 36.1423 361.592 36.2225C361.463 36.3027 361.358 36.4141 361.278 36.5565C361.199 36.6973 361.16 36.8603 361.16 37.0453V39.4031H360.58ZM366.591 39.4031V35.6306H367.171V39.4031H366.591ZM366.886 35.0019C366.773 35.0019 366.676 34.9634 366.594 34.8864C366.513 34.8095 366.473 34.717 366.473 34.6089C366.473 34.5008 366.513 34.4083 366.594 34.3314C366.676 34.2544 366.773 34.2159 366.886 34.2159C366.999 34.2159 367.096 34.2544 367.176 34.3314C367.258 34.4083 367.299 34.5008 367.299 34.6089C367.299 34.717 367.258 34.8095 367.176 34.8864C367.096 34.9634 366.999 35.0019 366.886 35.0019ZM368.124 39.4031V38.961L370.266 36.2102V36.1709H368.193V35.6306H371.013V36.0923L368.93 38.8235V38.8627H371.082V39.4031H368.124ZM373.448 39.4817C373.084 39.4817 372.771 39.4014 372.507 39.241C372.245 39.0789 372.043 38.8529 371.901 38.5631C371.76 38.2717 371.689 37.9327 371.689 37.5463C371.689 37.1599 371.76 36.8193 371.901 36.5246C372.043 36.2282 372.241 35.9974 372.495 35.832C372.75 35.665 373.048 35.5815 373.389 35.5815C373.585 35.5815 373.779 35.6142 373.971 35.6797C374.163 35.7452 374.337 35.8516 374.494 35.999C374.651 36.1447 374.777 36.3379 374.87 36.5786C374.963 36.8193 375.01 37.1157 375.01 37.4677V37.7133H372.102V37.2123H374.42C374.42 36.9994 374.378 36.8095 374.293 36.6425C374.209 36.4755 374.09 36.3437 373.934 36.2471C373.78 36.1505 373.599 36.1022 373.389 36.1022C373.158 36.1022 372.958 36.1595 372.79 36.2741C372.623 36.3871 372.494 36.5344 372.404 36.7162C372.314 36.8979 372.269 37.0928 372.269 37.3007V37.6347C372.269 37.9196 372.318 38.1611 372.416 38.3593C372.516 38.5557 372.655 38.7056 372.831 38.8087C373.008 38.9102 373.214 38.961 373.448 38.961C373.6 38.961 373.738 38.9397 373.861 38.8971C373.985 38.8529 374.092 38.7874 374.182 38.7006C374.272 38.6122 374.342 38.5025 374.391 38.3715L374.951 38.5287C374.892 38.7187 374.793 38.8857 374.654 39.0298C374.515 39.1722 374.343 39.2835 374.138 39.3638C373.933 39.4424 373.703 39.4817 373.448 39.4817ZM377.316 39.4817C377.002 39.4817 376.724 39.4023 376.484 39.2434C376.243 39.083 376.055 38.857 375.919 38.5656C375.783 38.2725 375.715 37.9262 375.715 37.5267C375.715 37.1304 375.783 36.7866 375.919 36.4951C376.055 36.2037 376.244 35.9785 376.486 35.8197C376.728 35.6609 377.008 35.5815 377.326 35.5815C377.572 35.5815 377.766 35.6224 377.908 35.7043C378.052 35.7845 378.162 35.8762 378.237 35.9794C378.314 36.0809 378.374 36.1644 378.416 36.2299H378.466V34.3731H379.045V39.4031H378.485V38.8235H378.416C378.374 38.8922 378.313 38.979 378.235 39.0838C378.156 39.1869 378.044 39.2795 377.898 39.3613C377.753 39.4416 377.558 39.4817 377.316 39.4817ZM377.395 38.961C377.627 38.961 377.824 38.9004 377.984 38.7792C378.145 38.6564 378.267 38.487 378.35 38.2708C378.434 38.0531 378.475 37.8017 378.475 37.5168C378.475 37.2352 378.434 36.9888 378.353 36.7776C378.271 36.5647 378.15 36.3993 377.989 36.2815C377.829 36.1619 377.631 36.1022 377.395 36.1022C377.149 36.1022 376.944 36.1652 376.781 36.2913C376.619 36.4157 376.497 36.5852 376.415 36.7997C376.335 37.0125 376.294 37.2516 376.294 37.5168C376.294 37.7854 376.335 38.0293 376.417 38.2487C376.501 38.4665 376.624 38.6401 376.786 38.7694C376.949 38.8971 377.152 38.961 377.395 38.961Z" fill="#10B981"/>
<path opacity="0.8" d="M20.8037 323.602V317.513H24.7642V318.437H21.9068V320.09H24.559V321.015H21.9068V322.677H24.788V323.602H20.8037ZM26.7221 319.035L27.6438 320.721L28.5804 319.035H29.7192L28.3425 321.318L29.743 323.602H28.6101L27.6438 321.958L26.6864 323.602H25.5447L26.9362 321.318L25.5803 319.035H26.7221ZM30.5517 325.315V319.035H31.6102V319.79H31.6726C31.7281 319.679 31.8064 319.561 31.9075 319.436C32.0086 319.31 32.1454 319.201 32.3178 319.112C32.4903 319.021 32.7103 318.976 32.9779 318.976C33.3307 318.976 33.6489 319.066 33.9323 319.246C34.2178 319.424 34.4438 319.689 34.6103 320.04C34.7787 320.389 34.863 320.817 34.863 321.324C34.863 321.826 34.7807 322.252 34.6162 322.603C34.4517 322.954 34.2277 323.221 33.9442 323.406C33.6608 323.59 33.3397 323.682 32.9809 323.682C32.7192 323.682 32.5022 323.639 32.3297 323.551C32.1573 323.464 32.0185 323.359 31.9135 323.236C31.8104 323.111 31.7301 322.993 31.6726 322.882H31.628V325.315H30.5517ZM31.6072 321.318C31.6072 321.614 31.6488 321.872 31.7321 322.094C31.8173 322.317 31.9392 322.49 32.0978 322.615C32.2584 322.738 32.4526 322.799 32.6806 322.799C32.9184 322.799 33.1177 322.736 33.2782 322.609C33.4388 322.48 33.5597 322.305 33.641 322.083C33.7242 321.859 33.7658 321.604 33.7658 321.318C33.7658 321.035 33.7252 320.783 33.6439 320.563C33.5627 320.343 33.4417 320.171 33.2812 320.046C33.1206 319.921 32.9204 319.859 32.6806 319.859C32.4506 319.859 32.2554 319.919 32.0948 320.04C31.9343 320.161 31.8124 320.33 31.7291 320.548C31.6479 320.766 31.6072 321.023 31.6072 321.318ZM37.8066 323.691C37.3487 323.691 36.9532 323.596 36.6202 323.406C36.2892 323.213 36.0345 322.942 35.8561 322.591C35.6777 322.238 35.5885 321.823 35.5885 321.345C35.5885 320.875 35.6777 320.463 35.8561 320.108C36.0364 319.752 36.2882 319.474 36.6113 319.276C36.9344 319.076 37.314 318.976 37.7501 318.976C38.0315 318.976 38.2971 319.021 38.5469 319.112C38.7986 319.201 39.0207 319.34 39.2129 319.529C39.4072 319.717 39.5598 319.957 39.6708 320.248C39.7818 320.537 39.8373 320.882 39.8373 321.283V321.613H36.0939V320.887H38.8056C38.8036 320.681 38.759 320.498 38.6718 320.337C38.5846 320.175 38.4627 320.047 38.3061 319.954C38.1515 319.861 37.9711 319.814 37.7649 319.814C37.5449 319.814 37.3516 319.867 37.1851 319.975C37.0186 320.08 36.8888 320.218 36.7956 320.391C36.7045 320.561 36.6579 320.749 36.6559 320.953V321.586C36.6559 321.852 36.7045 322.08 36.8016 322.27C36.8987 322.458 37.0345 322.603 37.2089 322.704C37.3834 322.803 37.5875 322.853 37.8214 322.853C37.978 322.853 38.1197 322.831 38.2466 322.787C38.3735 322.742 38.4835 322.675 38.5766 322.588C38.6698 322.501 38.7402 322.393 38.7877 322.264L39.7927 322.377C39.7293 322.643 39.6084 322.874 39.43 323.073C39.2536 323.269 39.0276 323.422 38.7521 323.531C38.4765 323.638 38.1614 323.691 37.8066 323.691ZM40.7479 323.602V319.035H41.7915V319.796H41.8391C41.9223 319.533 42.0651 319.329 42.2672 319.187C42.4714 319.042 42.7043 318.97 42.966 318.97C43.0254 318.97 43.0918 318.973 43.1652 318.978C43.2405 318.982 43.3029 318.989 43.3525 318.999V319.989C43.3069 319.974 43.2346 319.96 43.1355 319.948C43.0383 319.934 42.9442 319.927 42.853 319.927C42.6568 319.927 42.4803 319.97 42.3237 320.055C42.1691 320.138 42.0472 320.254 41.958 320.403C41.8688 320.551 41.8242 320.723 41.8242 320.917V323.602H40.7479ZM44.0676 323.602V319.035H45.1439V323.602H44.0676ZM44.6087 318.387C44.4383 318.387 44.2916 318.33 44.1687 318.217C44.0458 318.102 43.9843 317.965 43.9843 317.804C43.9843 317.641 44.0458 317.504 44.1687 317.391C44.2916 317.276 44.4383 317.218 44.6087 317.218C44.7812 317.218 44.9279 317.276 45.0488 317.391C45.1717 317.504 45.2331 317.641 45.2331 317.804C45.2331 317.965 45.1717 318.102 45.0488 318.217C44.9279 318.33 44.7812 318.387 44.6087 318.387ZM48.2726 323.691C47.8147 323.691 47.4192 323.596 47.0862 323.406C46.7552 323.213 46.5005 322.942 46.3221 322.591C46.1437 322.238 46.0545 321.823 46.0545 321.345C46.0545 320.875 46.1437 320.463 46.3221 320.108C46.5025 319.752 46.7542 319.474 47.0773 319.276C47.4004 319.076 47.78 318.976 48.2161 318.976C48.4976 318.976 48.7632 319.021 49.0129 319.112C49.2647 319.201 49.4867 319.34 49.6789 319.529C49.8732 319.717 50.0258 319.957 50.1368 320.248C50.2478 320.537 50.3033 320.882 50.3033 321.283V321.613H46.56V320.887H49.2716C49.2696 320.681 49.225 320.498 49.1378 320.337C49.0506 320.175 48.9287 320.047 48.7721 319.954C48.6175 319.861 48.4371 319.814 48.2309 319.814C48.0109 319.814 47.8177 319.867 47.6512 319.975C47.4847 320.08 47.3548 320.218 47.2617 320.391C47.1705 320.561 47.1239 320.749 47.1219 320.953V321.586C47.1219 321.852 47.1705 322.08 47.2676 322.27C47.3647 322.458 47.5005 322.603 47.6749 322.704C47.8494 322.803 48.0535 322.853 48.2874 322.853C48.444 322.853 48.5858 322.831 48.7126 322.787C48.8395 322.742 48.9495 322.675 49.0427 322.588C49.1358 322.501 49.2062 322.393 49.2538 322.264L50.2587 322.377C50.1953 322.643 50.0744 322.874 49.896 323.073C49.7196 323.269 49.4936 323.422 49.2181 323.531C48.9426 323.638 48.6274 323.691 48.2726 323.691ZM52.2902 320.926V323.602H51.2139V319.035H52.2427V319.811H52.2962C52.4013 319.555 52.5687 319.352 52.7987 319.201C53.0306 319.051 53.317 318.976 53.658 318.976C53.9731 318.976 54.2477 319.043 54.4816 319.178C54.7175 319.312 54.8998 319.508 55.0287 319.763C55.1595 320.019 55.2239 320.329 55.2219 320.694V323.602H54.1456V320.861C54.1456 320.555 54.0663 320.316 53.9077 320.144C53.7511 319.972 53.5341 319.885 53.2566 319.885C53.0683 319.885 52.9008 319.927 52.7541 320.01C52.6094 320.091 52.4954 320.209 52.4122 320.364C52.3309 320.519 52.2902 320.706 52.2902 320.926ZM58.3082 323.691C57.8523 323.691 57.4608 323.591 57.1338 323.391C56.8087 323.191 56.5579 322.914 56.3815 322.561C56.2071 322.206 56.1199 321.798 56.1199 321.336C56.1199 320.872 56.2091 320.463 56.3875 320.108C56.5659 319.752 56.8176 319.474 57.1427 319.276C57.4697 319.076 57.8563 318.976 58.3023 318.976C58.6729 318.976 59.001 319.044 59.2864 319.181C59.5738 319.315 59.8028 319.507 59.9733 319.755C60.1437 320 60.2409 320.288 60.2646 320.617H59.2359C59.1943 320.397 59.0951 320.213 58.9386 320.067C58.7839 319.918 58.5768 319.844 58.3171 319.844C58.0971 319.844 57.9038 319.903 57.7373 320.022C57.5708 320.139 57.441 320.308 57.3478 320.528C57.2567 320.748 57.2111 321.011 57.2111 321.318C57.2111 321.63 57.2567 321.897 57.3478 322.121C57.439 322.343 57.5669 322.515 57.7314 322.636C57.8979 322.755 58.0931 322.814 58.3171 322.814C58.4757 322.814 58.6174 322.784 58.7423 322.725C58.8692 322.663 58.9752 322.575 59.0605 322.46C59.1457 322.345 59.2042 322.205 59.2359 322.041H60.2646C60.2389 322.364 60.1437 322.651 59.9792 322.9C59.8147 323.148 59.5907 323.342 59.3072 323.483C59.0238 323.622 58.6908 323.691 58.3082 323.691ZM63.1703 323.691C62.7124 323.691 62.317 323.596 61.984 323.406C61.6529 323.213 61.3982 322.942 61.2198 322.591C61.0414 322.238 60.9522 321.823 60.9522 321.345C60.9522 320.875 61.0414 320.463 61.2198 320.108C61.4002 319.752 61.6519 319.474 61.975 319.276C62.2981 319.076 62.6777 318.976 63.1138 318.976C63.3953 318.976 63.6609 319.021 63.9107 319.112C64.1624 319.201 64.3844 319.34 64.5767 319.529C64.7709 319.717 64.9236 319.957 65.0346 320.248C65.1456 320.537 65.2011 320.882 65.2011 321.283V321.613H61.4577V320.887H64.1693C64.1673 320.681 64.1227 320.498 64.0355 320.337C63.9483 320.175 63.8264 320.047 63.6698 319.954C63.5152 319.861 63.3348 319.814 63.1287 319.814C62.9086 319.814 62.7154 319.867 62.5489 319.975C62.3824 320.08 62.2525 320.218 62.1594 320.391C62.0682 320.561 62.0216 320.749 62.0196 320.953V321.586C62.0196 321.852 62.0682 322.08 62.1653 322.27C62.2625 322.458 62.3982 322.603 62.5727 322.704C62.7471 322.803 62.9513 322.853 63.1852 322.853C63.3418 322.853 63.4835 322.831 63.6103 322.787C63.7372 322.742 63.8472 322.675 63.9404 322.588C64.0335 322.501 64.1039 322.393 64.1515 322.264L65.1565 322.377C65.093 322.643 64.9721 322.874 64.7937 323.073C64.6173 323.269 64.3913 323.422 64.1158 323.531C63.8403 323.638 63.5251 323.691 63.1703 323.691Z" fill="#525252"/>
<rect x="157.303" y="333.903" width="126.388" height="6.0904" rx="3.0452" fill="#E2E8F0"/>
<rect x="157.303" y="343.039" width="229.212" height="6.0904" rx="3.0452" fill="#E2E8F0"/>
<rect x="157.303" y="352.174" width="229.212" height="6.0904" rx="3.0452" fill="#E2E8F0"/>
<rect x="20.2031" y="333.903" width="94.2554" height="6.0904" rx="3.0452" fill="#E2E8F0"/>
<rect x="20.2031" y="343.039" width="57.8385" height="6.0904" rx="3.0452" fill="#E2E8F0"/>
<rect x="157.303" y="367.18" width="126.388" height="6.0904" rx="3.0452" fill="#E2E8F0"/>
<rect x="157.303" y="376.315" width="229.212" height="6.0904" rx="3.0452" fill="#E2E8F0"/>
<rect x="157.303" y="385.451" width="229.212" height="6.0904" rx="3.0452" fill="#E2E8F0"/>
<rect x="20.2031" y="367.18" width="94.2554" height="6.0904" rx="3.0452" fill="#E2E8F0"/>
<rect x="20.2031" y="376.315" width="57.8385" height="6.0904" rx="3.0452" fill="#E2E8F0"/>
<path opacity="0.8" d="M20.8037 407.33V401.241H24.7642V402.165H21.9068V403.819H24.559V404.743H21.9068V406.405H24.788V407.33H20.8037ZM27.5368 407.41C27.178 407.41 26.8569 407.318 26.5734 407.134C26.29 406.95 26.066 406.682 25.9015 406.331C25.7369 405.98 25.6547 405.554 25.6547 405.053C25.6547 404.545 25.7379 404.117 25.9044 403.768C26.0729 403.417 26.2999 403.153 26.5853 402.974C26.8708 402.794 27.1889 402.704 27.5397 402.704C27.8073 402.704 28.0274 402.749 28.1998 402.84C28.3723 402.93 28.509 403.038 28.6101 403.165C28.7112 403.289 28.7895 403.407 28.845 403.518H28.8896V401.241H29.9689V407.33H28.9104V406.611H28.845C28.7895 406.722 28.7092 406.84 28.6042 406.964C28.4991 407.087 28.3604 407.192 28.1879 407.28C28.0155 407.367 27.7984 407.41 27.5368 407.41ZM27.8371 406.527C28.065 406.527 28.2593 406.466 28.4198 406.343C28.5804 406.218 28.7023 406.045 28.7856 405.823C28.8688 405.601 28.9104 405.342 28.9104 405.047C28.9104 404.751 28.8688 404.495 28.7856 404.277C28.7043 404.058 28.5834 403.889 28.4228 403.768C28.2642 403.647 28.069 403.587 27.8371 403.587C27.5972 403.587 27.397 403.649 27.2365 403.774C27.0759 403.899 26.955 404.071 26.8737 404.291C26.7925 404.511 26.7518 404.763 26.7518 405.047C26.7518 405.332 26.7925 405.587 26.8737 405.811C26.957 406.033 27.0789 406.208 27.2394 406.337C27.402 406.464 27.6012 406.527 27.8371 406.527ZM34.0267 405.409V402.763H35.1031V407.33H34.0595V406.518H34.0119C33.9088 406.774 33.7393 406.983 33.5034 407.146C33.2695 407.308 32.9811 407.39 32.6382 407.39C32.3389 407.39 32.0743 407.323 31.8443 407.19C31.6164 407.056 31.438 406.86 31.3091 406.605C31.1803 406.347 31.1159 406.036 31.1159 405.671V402.763H32.1922V405.505C32.1922 405.794 32.2715 406.024 32.4301 406.194C32.5887 406.365 32.7968 406.45 33.0545 406.45C33.2131 406.45 33.3667 406.411 33.5153 406.334C33.664 406.257 33.7859 406.142 33.8811 405.989C33.9782 405.835 34.0267 405.641 34.0267 405.409ZM38.202 407.419C37.7461 407.419 37.3546 407.319 37.0276 407.119C36.7025 406.919 36.4517 406.642 36.2753 406.289C36.1009 405.935 36.0137 405.526 36.0137 405.064C36.0137 404.601 36.1029 404.191 36.2813 403.836C36.4596 403.48 36.7114 403.202 37.0365 403.004C37.3635 402.804 37.7501 402.704 38.1961 402.704C38.5667 402.704 38.8948 402.772 39.1802 402.909C39.4676 403.044 39.6966 403.235 39.8671 403.483C40.0375 403.728 40.1347 404.016 40.1584 404.345H39.1297C39.088 404.125 38.9889 403.942 38.8323 403.795C38.6777 403.646 38.4706 403.572 38.2109 403.572C37.9909 403.572 37.7976 403.631 37.6311 403.75C37.4646 403.867 37.3348 404.036 37.2416 404.256C37.1504 404.476 37.1049 404.739 37.1049 405.047C37.1049 405.358 37.1504 405.625 37.2416 405.849C37.3328 406.071 37.4607 406.243 37.6252 406.364C37.7917 406.483 37.9869 406.542 38.2109 406.542C38.3695 406.542 38.5112 406.512 38.6361 406.453C38.763 406.392 38.869 406.303 38.9542 406.188C39.0395 406.073 39.098 405.934 39.1297 405.769H40.1584C40.1327 406.092 40.0375 406.379 39.873 406.628C39.7085 406.876 39.4845 407.07 39.201 407.211C38.9176 407.35 38.5846 407.419 38.202 407.419ZM42.3564 407.422C42.067 407.422 41.8064 407.371 41.5745 407.268C41.3445 407.163 41.1622 407.008 41.0274 406.804C40.8946 406.6 40.8282 406.348 40.8282 406.049C40.8282 405.791 40.8757 405.578 40.9709 405.409C41.066 405.241 41.1959 405.106 41.3604 405.005C41.5249 404.904 41.7103 404.828 41.9164 404.776C42.1245 404.723 42.3396 404.684 42.5616 404.66C42.8292 404.632 43.0463 404.608 43.2128 404.586C43.3793 404.562 43.5002 404.526 43.5755 404.479C43.6528 404.429 43.6915 404.353 43.6915 404.25V404.232C43.6915 404.008 43.6251 403.834 43.4923 403.712C43.3594 403.589 43.1682 403.527 42.9184 403.527C42.6548 403.527 42.4456 403.585 42.291 403.7C42.1384 403.815 42.0353 403.95 41.9818 404.107L40.9768 403.964C41.0561 403.687 41.187 403.455 41.3693 403.269C41.5517 403.08 41.7747 402.94 42.0383 402.846C42.3019 402.751 42.5933 402.704 42.9125 402.704C43.1325 402.704 43.3515 402.729 43.5696 402.781C43.7876 402.832 43.9868 402.918 44.1672 403.037C44.3476 403.154 44.4923 403.313 44.6013 403.515C44.7123 403.718 44.7678 403.97 44.7678 404.274V407.33H43.7331V406.703H43.6974C43.632 406.83 43.5398 406.949 43.4209 407.06C43.3039 407.169 43.1563 407.257 42.9779 407.324C42.8015 407.39 42.5943 407.422 42.3564 407.422ZM42.6359 406.631C42.852 406.631 43.0393 406.589 43.1979 406.504C43.3565 406.416 43.4784 406.301 43.5636 406.159C43.6508 406.016 43.6944 405.86 43.6944 405.692V405.154C43.6607 405.181 43.6033 405.207 43.522 405.231C43.4427 405.255 43.3535 405.276 43.2544 405.293C43.1553 405.311 43.0572 405.327 42.96 405.341C42.8629 405.355 42.7787 405.367 42.7073 405.377C42.5467 405.398 42.403 405.434 42.2762 405.484C42.1493 405.533 42.0492 405.603 41.9759 405.692C41.9025 405.779 41.8659 405.892 41.8659 406.031C41.8659 406.229 41.9382 406.379 42.0829 406.48C42.2276 406.581 42.412 406.631 42.6359 406.631ZM48.1306 402.763V403.596H45.5052V402.763H48.1306ZM46.1534 401.669H47.2297V405.956C47.2297 406.101 47.2515 406.212 47.2951 406.289C47.3407 406.365 47.4002 406.416 47.4735 406.444C47.5468 406.472 47.6281 406.486 47.7173 406.486C47.7847 406.486 47.8462 406.481 47.9017 406.471C47.9591 406.461 48.0027 406.452 48.0325 406.444L48.2139 407.286C48.1564 407.305 48.0741 407.327 47.9671 407.351C47.862 407.375 47.7332 407.389 47.5805 407.393C47.311 407.4 47.0681 407.36 46.8521 407.271C46.636 407.179 46.4646 407.039 46.3377 406.848C46.2128 406.658 46.1514 406.42 46.1534 406.135V401.669ZM49.0308 407.33V402.763H50.1071V407.33H49.0308ZM49.5719 402.115C49.4014 402.115 49.2548 402.058 49.1319 401.945C49.009 401.83 48.9475 401.693 48.9475 401.532C48.9475 401.37 49.009 401.232 49.1319 401.119C49.2548 401.004 49.4014 400.946 49.5719 400.946C49.7444 400.946 49.891 401.004 50.012 401.119C50.1349 401.232 50.1963 401.37 50.1963 401.532C50.1963 401.693 50.1349 401.83 50.012 401.945C49.891 402.058 49.7444 402.115 49.5719 402.115ZM53.206 407.419C52.76 407.419 52.3735 407.321 52.0464 407.125C51.7194 406.929 51.4657 406.654 51.2853 406.301C51.1069 405.949 51.0177 405.536 51.0177 405.064C51.0177 404.593 51.1069 404.179 51.2853 403.825C51.4657 403.47 51.7194 403.194 52.0464 402.998C52.3735 402.802 52.76 402.704 53.206 402.704C53.652 402.704 54.0385 402.802 54.3656 402.998C54.6927 403.194 54.9454 403.47 55.1238 403.825C55.3042 404.179 55.3944 404.593 55.3944 405.064C55.3944 405.536 55.3042 405.949 55.1238 406.301C54.9454 406.654 54.6927 406.929 54.3656 407.125C54.0385 407.321 53.652 407.419 53.206 407.419ZM53.212 406.557C53.4538 406.557 53.656 406.491 53.8185 406.358C53.9811 406.223 54.102 406.043 54.1813 405.817C54.2625 405.591 54.3032 405.339 54.3032 405.061C54.3032 404.782 54.2625 404.529 54.1813 404.303C54.102 404.075 53.9811 403.894 53.8185 403.759C53.656 403.624 53.4538 403.557 53.212 403.557C52.9642 403.557 52.758 403.624 52.5935 403.759C52.431 403.894 52.3091 404.075 52.2278 404.303C52.1485 404.529 52.1089 404.782 52.1089 405.061C52.1089 405.339 52.1485 405.591 52.2278 405.817C52.3091 406.043 52.431 406.223 52.5935 406.358C52.758 406.491 52.9642 406.557 53.212 406.557ZM57.3843 404.654V407.33H56.3079V402.763H57.3367V403.539H57.3902C57.4953 403.283 57.6628 403.08 57.8927 402.93C58.1246 402.779 58.411 402.704 58.752 402.704C59.0671 402.704 59.3417 402.771 59.5756 402.906C59.8115 403.041 59.9938 403.236 60.1227 403.492C60.2535 403.747 60.3179 404.057 60.3159 404.422V407.33H59.2396V404.589C59.2396 404.283 59.1603 404.045 59.0017 403.872C58.8451 403.7 58.6281 403.613 58.3506 403.613C58.1623 403.613 57.9948 403.655 57.8481 403.738C57.7034 403.82 57.5894 403.938 57.5062 404.092C57.4249 404.247 57.3843 404.434 57.3843 404.654Z" fill="#525252"/>
<rect x="157.693" y="415.538" width="126.749" height="6.0904" rx="3.0452" fill="#E2E8F0"/>
<rect x="157.693" y="424.674" width="229.867" height="6.0904" rx="3.0452" fill="#E2E8F0"/>
<rect x="20.2031" y="415.538" width="94.5247" height="6.0904" rx="3.0452" fill="#E2E8F0"/>
<rect x="20.2031" y="424.674" width="58.0038" height="6.0904" rx="3.0452" fill="#E2E8F0"/>
<rect x="157.693" y="438.349" width="126.749" height="6.0904" rx="3.0452" fill="#E2E8F0"/>
<rect x="157.693" y="447.484" width="229.867" height="6.0904" rx="3.0452" fill="#E2E8F0"/>
<rect x="20.2031" y="438.349" width="94.5247" height="6.0904" rx="3.0452" fill="#E2E8F0"/>
<rect x="20.2031" y="447.484" width="58.0038" height="6.0904" rx="3.0452" fill="#E2E8F0"/>
<path opacity="0.8" d="M21.8506 472.219V466.13H24.1341C24.6019 466.13 24.9944 466.211 25.3115 466.374C25.6307 466.536 25.8715 466.764 26.034 467.058C26.1986 467.349 26.2808 467.689 26.2808 468.078C26.2808 468.468 26.1976 468.807 26.0311 469.095C25.8665 469.38 25.6237 469.601 25.3026 469.758C24.9815 469.912 24.587 469.989 24.1192 469.989H22.4928V469.074H23.9706C24.2441 469.074 24.4681 469.036 24.6425 468.961C24.817 468.883 24.9458 468.771 25.0291 468.625C25.1143 468.476 25.1569 468.294 25.1569 468.078C25.1569 467.862 25.1143 467.677 25.0291 467.525C24.9438 467.37 24.814 467.253 24.6396 467.174C24.4651 467.092 24.2401 467.052 23.9646 467.052H22.9537V472.219H21.8506ZM24.9964 469.46L26.5038 472.219H25.2729L23.7922 469.46H24.9964ZM29.2051 472.309C28.7472 472.309 28.3517 472.214 28.0187 472.023C27.6877 471.831 27.433 471.559 27.2546 471.209C27.0762 470.856 26.987 470.44 26.987 469.963C26.987 469.493 27.0762 469.081 27.2546 468.726C27.435 468.369 27.6867 468.092 28.0098 467.893C28.3329 467.693 28.7125 467.593 29.1486 467.593C29.43 467.593 29.6957 467.639 29.9454 467.73C30.1972 467.819 30.4192 467.958 30.6114 468.146C30.8057 468.334 30.9583 468.574 31.0693 468.866C31.1803 469.155 31.2358 469.5 31.2358 469.9V470.23H27.4924V469.505H30.2041C30.2021 469.299 30.1575 469.115 30.0703 468.955C29.9831 468.792 29.8612 468.664 29.7046 468.571C29.55 468.478 29.3696 468.431 29.1634 468.431C28.9434 468.431 28.7502 468.485 28.5836 468.592C28.4171 468.697 28.2873 468.836 28.1941 469.008C28.103 469.179 28.0564 469.366 28.0544 469.57V470.204C28.0544 470.469 28.103 470.697 28.2001 470.887C28.2972 471.076 28.433 471.22 28.6074 471.322C28.7819 471.421 28.986 471.47 29.2199 471.47C29.3765 471.47 29.5183 471.448 29.6451 471.405C29.772 471.359 29.882 471.293 29.9752 471.206C30.0683 471.118 30.1387 471.01 30.1863 470.881L31.1912 470.994C31.1278 471.26 31.0069 471.492 30.8285 471.69C30.6521 471.886 30.4261 472.039 30.1506 472.148C29.8751 472.255 29.5599 472.309 29.2051 472.309ZM34.4596 467.652V468.485H31.7599V467.652H34.4596ZM32.4348 472.219V467.221C32.4348 466.914 32.4982 466.658 32.6251 466.454C32.754 466.25 32.9264 466.097 33.1425 465.996C33.3585 465.895 33.5984 465.845 33.862 465.845C34.0483 465.845 34.2138 465.86 34.3585 465.889C34.5032 465.919 34.6103 465.946 34.6797 465.97L34.4656 466.802C34.42 466.788 34.3625 466.774 34.2931 466.76C34.2238 466.745 34.1464 466.737 34.0612 466.737C33.861 466.737 33.7193 466.785 33.636 466.882C33.5548 466.978 33.5141 467.114 33.5141 467.293V472.219H32.4348ZM37.1527 472.309C36.6948 472.309 36.2994 472.214 35.9664 472.023C35.6353 471.831 35.3806 471.559 35.2022 471.209C35.0238 470.856 34.9346 470.44 34.9346 469.963C34.9346 469.493 35.0238 469.081 35.2022 468.726C35.3826 468.369 35.6343 468.092 35.9574 467.893C36.2805 467.693 36.6601 467.593 37.0962 467.593C37.3777 467.593 37.6433 467.639 37.8931 467.73C38.1448 467.819 38.3668 467.958 38.5591 468.146C38.7533 468.334 38.906 468.574 39.017 468.866C39.128 469.155 39.1835 469.5 39.1835 469.9V470.23H35.4401V469.505H38.1517C38.1497 469.299 38.1051 469.115 38.0179 468.955C37.9307 468.792 37.8088 468.664 37.6522 468.571C37.4976 468.478 37.3172 468.431 37.1111 468.431C36.8911 468.431 36.6978 468.485 36.5313 468.592C36.3648 468.697 36.2349 468.836 36.1418 469.008C36.0506 469.179 36.004 469.366 36.002 469.57V470.204C36.002 470.469 36.0506 470.697 36.1477 470.887C36.2449 471.076 36.3806 471.22 36.5551 471.322C36.7295 471.421 36.9337 471.47 37.1676 471.47C37.3242 471.47 37.4659 471.448 37.5928 471.405C37.7196 471.359 37.8296 471.293 37.9228 471.206C38.0159 471.118 38.0863 471.01 38.1339 470.881L39.1389 470.994C39.0754 471.26 38.9545 471.492 38.7761 471.69C38.5997 471.886 38.3737 472.039 38.0982 472.148C37.8227 472.255 37.5075 472.309 37.1527 472.309ZM40.094 472.219V467.652H41.1377V468.414H41.1852C41.2685 468.15 41.4112 467.947 41.6134 467.804C41.8176 467.659 42.0505 467.587 42.3121 467.587C42.3716 467.587 42.438 467.59 42.5113 467.596C42.5867 467.6 42.6491 467.607 42.6987 467.617V468.607C42.6531 468.591 42.5807 468.577 42.4816 468.565C42.3845 468.551 42.2903 468.544 42.1991 468.544C42.0029 468.544 41.8265 468.587 41.6699 468.672C41.5153 468.756 41.3934 468.872 41.3042 469.02C41.215 469.169 41.1704 469.34 41.1704 469.535V472.219H40.094ZM45.2475 472.309C44.7896 472.309 44.3942 472.214 44.0612 472.023C43.7301 471.831 43.4754 471.559 43.297 471.209C43.1186 470.856 43.0294 470.44 43.0294 469.963C43.0294 469.493 43.1186 469.081 43.297 468.726C43.4774 468.369 43.7291 468.092 44.0522 467.893C44.3753 467.693 44.7549 467.593 45.191 467.593C45.4725 467.593 45.7381 467.639 45.9879 467.73C46.2396 467.819 46.4616 467.958 46.6539 468.146C46.8481 468.334 47.0008 468.574 47.1118 468.866C47.2228 469.155 47.2783 469.5 47.2783 469.9V470.23H43.5349V469.505H46.2465C46.2446 469.299 46.2 469.115 46.1127 468.955C46.0255 468.792 45.9036 468.664 45.747 468.571C45.5924 468.478 45.412 468.431 45.2059 468.431C44.9859 468.431 44.7926 468.485 44.6261 468.592C44.4596 468.697 44.3298 468.836 44.2366 469.008C44.1454 469.179 44.0988 469.366 44.0968 469.57V470.204C44.0968 470.469 44.1454 470.697 44.2425 470.887C44.3397 471.076 44.4754 471.22 44.6499 471.322C44.8243 471.421 45.0285 471.47 45.2624 471.47C45.419 471.47 45.5607 471.448 45.6876 471.405C45.8144 471.359 45.9244 471.293 46.0176 471.206C46.1108 471.118 46.1811 471.01 46.2287 470.881L47.2337 470.994C47.1702 471.26 47.0493 471.492 46.8709 471.69C46.6945 471.886 46.4685 472.039 46.193 472.148C45.9175 472.255 45.6023 472.309 45.2475 472.309ZM49.2652 469.543V472.219H48.1889V467.652H49.2176V468.428H49.2711C49.3762 468.173 49.5437 467.97 49.7736 467.819C50.0055 467.668 50.292 467.593 50.6329 467.593C50.9481 467.593 51.2226 467.66 51.4565 467.795C51.6924 467.93 51.8748 468.125 52.0036 468.381C52.1344 468.637 52.1988 468.947 52.1969 469.312V472.219H51.1205V469.478C51.1205 469.173 51.0412 468.934 50.8827 468.762C50.7261 468.589 50.509 468.503 50.2315 468.503C50.0432 468.503 49.8757 468.544 49.729 468.628C49.5843 468.709 49.4703 468.827 49.3871 468.982C49.3058 469.136 49.2652 469.323 49.2652 469.543ZM55.2831 472.309C54.8272 472.309 54.4358 472.209 54.1087 472.008C53.7836 471.808 53.5329 471.532 53.3564 471.179C53.182 470.824 53.0948 470.416 53.0948 469.954C53.0948 469.49 53.184 469.081 53.3624 468.726C53.5408 468.369 53.7925 468.092 54.1176 467.893C54.4447 467.693 54.8312 467.593 55.2772 467.593C55.6479 467.593 55.9759 467.661 56.2614 467.798C56.5488 467.933 56.7777 468.124 56.9482 468.372C57.1187 468.618 57.2158 468.905 57.2396 469.234H56.2108C56.1692 469.014 56.0701 468.831 55.9135 468.684C55.7589 468.536 55.5517 468.461 55.2921 468.461C55.072 468.461 54.8788 468.521 54.7123 468.64C54.5458 468.757 54.4159 468.925 54.3228 469.145C54.2316 469.365 54.186 469.629 54.186 469.936C54.186 470.247 54.2316 470.515 54.3228 470.739C54.414 470.961 54.5418 471.132 54.7063 471.253C54.8728 471.372 55.0681 471.432 55.2921 471.432C55.4506 471.432 55.5924 471.402 55.7173 471.342C55.8441 471.281 55.9502 471.193 56.0354 471.078C56.1206 470.963 56.1791 470.823 56.2108 470.658H57.2396C57.2138 470.982 57.1187 471.268 56.9541 471.518C56.7896 471.766 56.5656 471.96 56.2822 472.101C55.9987 472.239 55.6657 472.309 55.2831 472.309ZM60.1452 472.309C59.6874 472.309 59.2919 472.214 58.9589 472.023C58.6279 471.831 58.3732 471.559 58.1948 471.209C58.0164 470.856 57.9272 470.44 57.9272 469.963C57.9272 469.493 58.0164 469.081 58.1948 468.726C58.3751 468.369 58.6269 468.092 58.95 467.893C59.2731 467.693 59.6527 467.593 60.0887 467.593C60.3702 467.593 60.6358 467.639 60.8856 467.73C61.1373 467.819 61.3593 467.958 61.5516 468.146C61.7459 468.334 61.8985 468.574 62.0095 468.866C62.1205 469.155 62.176 469.5 62.176 469.9V470.23H58.4326V469.505H61.1443C61.1423 469.299 61.0977 469.115 61.0105 468.955C60.9233 468.792 60.8013 468.664 60.6448 468.571C60.4901 468.478 60.3098 468.431 60.1036 468.431C59.8836 468.431 59.6903 468.485 59.5238 468.592C59.3573 468.697 59.2275 468.836 59.1343 469.008C59.0431 469.179 58.9966 469.366 58.9946 469.57V470.204C58.9946 470.469 59.0431 470.697 59.1403 470.887C59.2374 471.076 59.3732 471.22 59.5476 471.322C59.722 471.421 59.9262 471.47 60.1601 471.47C60.3167 471.47 60.4584 471.448 60.5853 471.405C60.7122 471.359 60.8222 471.293 60.9153 471.206C61.0085 471.118 61.0789 471.01 61.1264 470.881L62.1314 470.994C62.068 471.26 61.9471 471.492 61.7687 471.69C61.5922 471.886 61.3663 472.039 61.0908 472.148C60.8152 472.255 60.5001 472.309 60.1452 472.309ZM66.6962 468.86L65.715 468.967C65.6872 468.868 65.6387 468.774 65.5693 468.687C65.5019 468.6 65.4107 468.53 65.2957 468.476C65.1808 468.423 65.04 468.396 64.8735 468.396C64.6495 468.396 64.4612 468.444 64.3086 468.541C64.158 468.639 64.0836 468.764 64.0856 468.919C64.0836 469.052 64.1322 469.16 64.2313 469.243C64.3324 469.326 64.4989 469.395 64.7308 469.448L65.5098 469.615C65.9419 469.708 66.2631 469.856 66.4732 470.058C66.6853 470.26 66.7923 470.525 66.7943 470.852C66.7923 471.139 66.7081 471.393 66.5416 471.613C66.377 471.831 66.1481 472.001 65.8547 472.124C65.5614 472.247 65.2244 472.309 64.8438 472.309C64.2848 472.309 63.8349 472.192 63.4939 471.958C63.153 471.722 62.9498 471.394 62.8844 470.974L63.934 470.873C63.9815 471.079 64.0826 471.234 64.2372 471.339C64.3919 471.444 64.593 471.497 64.8408 471.497C65.0965 471.497 65.3017 471.444 65.4563 471.339C65.6129 471.234 65.6912 471.104 65.6912 470.95C65.6912 470.819 65.6406 470.711 65.5396 470.626C65.4404 470.541 65.2858 470.475 65.0757 470.43L64.2967 470.266C63.8586 470.175 63.5346 470.021 63.3244 469.805C63.1143 469.587 63.0103 469.312 63.0122 468.979C63.0103 468.697 63.0866 468.453 63.2412 468.247C63.3978 468.039 63.6148 467.878 63.8923 467.765C64.1718 467.65 64.4939 467.593 64.8587 467.593C65.3939 467.593 65.8151 467.707 66.1223 467.935C66.4315 468.163 66.6228 468.471 66.6962 468.86Z" fill="#525252"/>
<rect x="20.2031" y="477.918" width="93.572" height="6.0904" rx="3.0452" fill="#E2E8F0"/>
<rect x="20.2031" y="487.054" width="366.268" height="6.0904" rx="3.0452" fill="#E2E8F0"/>
<rect x="22.2969" y="496.781" width="366.268" height="6.0904" rx="3.0452" fill="#E2E8F0"/>
<rect x="158.103" y="36.6916" width="94.3831" height="10.487" rx="5.24351" fill="#E2E8F0"/>
<rect x="108.464" y="54.17" width="193.66" height="6.99134" rx="3.49567" fill="#E2E8F0"/>
</g>
<defs>
<filter id="filter0_dd_163_1211" x="-9.11355e-05" y="1.78814e-07" width="411.168" height="545.916" filterUnits="userSpaceOnUse" color-interpolation-filters="sRGB">
<feFlood flood-opacity="0" result="BackgroundImageFix"/>
<feColorMatrix in="SourceAlpha" type="matrix" values="0 0 0 0 0 0 0 0 0 0 0 0 0 0 0 0 0 0 127 0" result="hardAlpha"/>
<feMorphology radius="0.69162" operator="erode" in="SourceAlpha" result="effect1_dropShadow_163_1211"/>
<feOffset dy="2.76648"/>
<feGaussianBlur stdDeviation="2.07486"/>
<feComposite in2="hardAlpha" operator="out"/>
<feColorMatrix type="matrix" values="0 0 0 0 0 0 0 0 0 0 0 0 0 0 0 0 0 0 0.1 0"/>
<feBlend mode="normal" in2="BackgroundImageFix" result="effect1_dropShadow_163_1211"/>
<feColorMatrix in="SourceAlpha" type="matrix" values="0 0 0 0 0 0 0 0 0 0 0 0 0 0 0 0 0 0 127 0" result="hardAlpha"/>
<feMorphology radius="1.38324" operator="erode" in="SourceAlpha" result="effect2_dropShadow_163_1211"/>
<feOffset dy="1.38324"/>
<feGaussianBlur stdDeviation="1.38324"/>
<feComposite in2="hardAlpha" operator="out"/>
<feColorMatrix type="matrix" values="0 0 0 0 0 0 0 0 0 0 0 0 0 0 0 0 0 0 0.1 0"/>
<feBlend mode="normal" in2="effect1_dropShadow_163_1211" result="effect2_dropShadow_163_1211"/>
<feBlend mode="normal" in="SourceGraphic" in2="effect2_dropShadow_163_1211" result="shape"/>
</filter>
</defs>
</svg>
