<svg width="252" height="415" viewBox="0 0 252 415" fill="none" xmlns="http://www.w3.org/2000/svg">
<g filter="url(#filter0_dd_163_1360)">
<rect x="2.87305" y="0.574554" width="335.818" height="447.756" rx="8.69429" fill="#FAFAFA"/>
<rect x="3.16032" y="0.861824" width="335.244" height="447.181" rx="8.40702" stroke="#E5E7EB" strokeWidth="0.574539"/>
<line x1="16.8184" y1="70.146" x2="325.441" y2="70.146" stroke="#E5E5E5" strokeWidth="0.843231"/>
<rect x="16.873" y="102.575" width="128" height="5" rx="2.5" fill="#E2E8F0"/>
<rect x="16.873" y="204.575" width="45.037" height="7" rx="3.5" fill="#E2E8F0"/>
<rect x="16.873" y="215.575" width="128" height="5" rx="2.5" fill="#E2E8F0"/>
<rect x="16.873" y="236.575" width="128" height="5" rx="2.5" fill="#E2E8F0"/>
<rect x="16.873" y="222.575" width="128" height="5" rx="2.5" fill="#E2E8F0"/>
<rect x="16.873" y="229.575" width="128" height="5" rx="2.5" fill="#E2E8F0"/>
<rect x="16.873" y="243.575" width="128" height="6" rx="3" fill="#E2E8F0"/>
<rect x="16.873" y="110.575" width="128" height="5" rx="2.5" fill="#E2E8F0"/>
<rect x="16.873" y="146.575" width="46.0926" height="7" rx="3.5" fill="#E2E8F0"/>
<rect x="16.873" y="157.575" width="131" height="5" rx="2.5" fill="#E2E8F0"/>
<rect x="16.873" y="178.575" width="131" height="5" rx="2.5" fill="#E2E8F0"/>
<rect x="16.873" y="164.575" width="131" height="5" rx="2.5" fill="#E2E8F0"/>
<rect x="16.873" y="171.575" width="131" height="5" rx="2.5" fill="#E2E8F0"/>
<rect x="16.873" y="185.575" width="131" height="6" rx="3" fill="#E2E8F0"/>
<rect x="16.873" y="117.575" width="128" height="5" rx="2.5" fill="#E2E8F0"/>
<rect x="16.873" y="125.575" width="78" height="5" rx="2.5" fill="#E2E8F0"/>
<line x1="157.217" y1="85.7785" x2="157.217" y2="402.833" stroke="#E2E8F0" strokeWidth="0.843231"/>
<rect x="16.7832" y="277.379" width="78.2994" height="5.05939" rx="2.52969" fill="#E2E8F0"/>
<rect x="16.7832" y="284.968" width="48.0474" height="5.05939" rx="2.52969" fill="#E2E8F0"/>
<rect x="16.7832" y="305.022" width="78.2994" height="5.05939" rx="2.52969" fill="#E2E8F0"/>
<rect x="16.7832" y="312.611" width="48.0474" height="5.05939" rx="2.52969" fill="#E2E8F0"/>
<path opacity="0.8" d="M17.2821 338.068V333.01H20.5721V333.778H18.1985V335.151H20.4017V335.92H18.1985V337.3H20.5919V338.068H17.2821ZM22.8754 338.135C22.5773 338.135 22.3106 338.059 22.0751 337.905C21.8396 337.752 21.6536 337.53 21.5169 337.238C21.3802 336.947 21.3119 336.593 21.3119 336.176C21.3119 335.755 21.381 335.399 21.5194 335.109C21.6593 334.818 21.8479 334.598 22.085 334.45C22.3221 334.3 22.5864 334.225 22.8778 334.225C23.1001 334.225 23.2829 334.263 23.4262 334.339C23.5694 334.413 23.6831 334.503 23.767 334.608C23.851 334.712 23.9161 334.81 23.9622 334.902H23.9992V333.01H24.8958V338.068H24.0165V337.471H23.9622C23.9161 337.563 23.8494 337.661 23.7621 337.765C23.6748 337.867 23.5596 337.954 23.4163 338.026C23.273 338.099 23.0927 338.135 22.8754 338.135ZM23.1248 337.401C23.3142 337.401 23.4756 337.35 23.609 337.248C23.7423 337.145 23.8436 337.001 23.9128 336.816C23.9819 336.632 24.0165 336.417 24.0165 336.171C24.0165 335.926 23.9819 335.713 23.9128 335.532C23.8453 335.351 23.7448 335.21 23.6114 335.109C23.4797 335.009 23.3175 334.959 23.1248 334.959C22.9256 334.959 22.7593 335.011 22.6259 335.114C22.4925 335.218 22.3921 335.361 22.3246 335.544C22.2571 335.727 22.2233 335.936 22.2233 336.171C22.2233 336.409 22.2571 336.62 22.3246 336.806C22.3937 336.991 22.495 337.136 22.6284 337.243C22.7634 337.349 22.9289 337.401 23.1248 337.401ZM28.2667 336.473V334.275H29.1608V338.068H28.2939V337.394H28.2543C28.1687 337.607 28.0279 337.78 27.832 337.915C27.6377 338.05 27.3981 338.118 27.1132 338.118C26.8646 338.118 26.6448 338.063 26.4537 337.952C26.2644 337.84 26.1162 337.678 26.0091 337.466C25.9021 337.252 25.8486 336.993 25.8486 336.69V334.275H26.7427V336.552C26.7427 336.792 26.8086 336.983 26.9403 337.125C27.0721 337.266 27.245 337.337 27.459 337.337C27.5908 337.337 27.7184 337.305 27.8419 337.241C27.9654 337.177 28.0666 337.081 28.1457 336.954C28.2264 336.826 28.2667 336.665 28.2667 336.473ZM31.7352 338.142C31.3564 338.142 31.0312 338.059 30.7595 337.893C30.4895 337.727 30.2812 337.497 30.1346 337.204C29.9897 336.909 29.9173 336.57 29.9173 336.186C29.9173 335.801 29.9914 335.461 30.1396 335.166C30.2878 334.87 30.4969 334.639 30.7669 334.475C31.0386 334.308 31.3597 334.225 31.7302 334.225C32.0381 334.225 32.3107 334.282 32.5478 334.396C32.7865 334.508 32.9767 334.666 33.1183 334.872C33.2599 335.076 33.3406 335.315 33.3604 335.589H32.5058C32.4712 335.406 32.3889 335.253 32.2588 335.132C32.1303 335.008 31.9583 334.946 31.7426 334.946C31.5598 334.946 31.3992 334.996 31.2609 335.095C31.1226 335.192 31.0147 335.332 30.9374 335.514C30.8616 335.697 30.8237 335.916 30.8237 336.171C30.8237 336.43 30.8616 336.652 30.9374 336.838C31.0131 337.023 31.1193 337.165 31.256 337.266C31.3943 337.364 31.5565 337.414 31.7426 337.414C31.8743 337.414 31.992 337.389 32.0958 337.34C32.2012 337.289 32.2892 337.215 32.3601 337.12C32.4309 337.024 32.4794 336.908 32.5058 336.772H33.3604C33.339 337.04 33.2599 337.278 33.1233 337.485C32.9866 337.691 32.8005 337.853 32.5651 337.97C32.3296 338.085 32.053 338.142 31.7352 338.142ZM35.1863 338.145C34.9459 338.145 34.7294 338.102 34.5367 338.017C34.3457 337.929 34.1942 337.801 34.0822 337.631C33.9719 337.462 33.9168 337.252 33.9168 337.004C33.9168 336.79 33.9563 336.613 34.0353 336.473C34.1143 336.333 34.2222 336.221 34.3589 336.137C34.4955 336.053 34.6495 335.99 34.8208 335.947C34.9937 335.902 35.1723 335.87 35.3567 335.85C35.579 335.827 35.7593 335.807 35.8977 335.789C36.036 335.769 36.1364 335.739 36.199 335.7C36.2632 335.659 36.2953 335.595 36.2953 335.51V335.495C36.2953 335.309 36.2402 335.165 36.1298 335.062C36.0195 334.96 35.8606 334.909 35.6531 334.909C35.4341 334.909 35.2604 334.957 35.132 335.053C35.0052 335.148 34.9196 335.261 34.8751 335.391L34.0402 335.272C34.1061 335.042 34.2148 334.849 34.3663 334.694C34.5178 334.538 34.703 334.421 34.922 334.344C35.141 334.265 35.3831 334.225 35.6482 334.225C35.831 334.225 36.0129 334.247 36.1941 334.289C36.3752 334.332 36.5407 334.403 36.6905 334.502C36.8404 334.599 36.9606 334.731 37.0511 334.899C37.1434 335.067 37.1895 335.277 37.1895 335.529V338.068H36.3299V337.547H36.3003C36.2459 337.653 36.1694 337.751 36.0706 337.844C35.9734 337.934 35.8507 338.007 35.7025 338.063C35.556 338.118 35.3839 338.145 35.1863 338.145ZM35.4185 337.488C35.598 337.488 35.7536 337.453 35.8853 337.382C36.017 337.309 36.1183 337.214 36.1891 337.095C36.2616 336.977 36.2978 336.847 36.2978 336.707V336.26C36.2698 336.283 36.2221 336.305 36.1545 336.325C36.0887 336.344 36.0146 336.362 35.9322 336.376C35.8499 336.391 35.7684 336.404 35.6877 336.416C35.607 336.428 35.537 336.437 35.4778 336.446C35.3444 336.464 35.225 336.493 35.1196 336.535C35.0142 336.576 34.9311 336.633 34.8702 336.707C34.8092 336.78 34.7788 336.874 34.7788 336.989C34.7788 337.154 34.8389 337.278 34.9591 337.362C35.0793 337.446 35.2324 337.488 35.4185 337.488ZM39.983 334.275V334.966H37.802V334.275H39.983ZM38.3405 333.366H39.2346V336.927C39.2346 337.047 39.2527 337.14 39.2889 337.204C39.3268 337.266 39.3762 337.309 39.4371 337.332C39.4981 337.355 39.5656 337.367 39.6397 337.367C39.6957 337.367 39.7467 337.363 39.7928 337.355C39.8406 337.346 39.8768 337.339 39.9015 337.332L40.0522 338.031C40.0044 338.048 39.9361 338.066 39.8471 338.086C39.7599 338.105 39.6528 338.117 39.526 338.12C39.3021 338.127 39.1004 338.093 38.9209 338.019C38.7414 337.943 38.599 337.826 38.4936 337.668C38.3899 337.51 38.3388 337.313 38.3405 337.075V333.366ZM40.7308 338.068V334.275H41.6249V338.068H40.7308ZM41.1803 333.736C41.0387 333.736 40.9168 333.689 40.8148 333.595C40.7127 333.5 40.6616 333.385 40.6616 333.252C40.6616 333.117 40.7127 333.002 40.8148 332.909C40.9168 332.813 41.0387 332.765 41.1803 332.765C41.3236 332.765 41.4454 332.813 41.5459 332.909C41.648 333.002 41.699 333.117 41.699 333.252C41.699 333.385 41.648 333.5 41.5459 333.595C41.4454 333.689 41.3236 333.736 41.1803 333.736ZM44.1992 338.142C43.8287 338.142 43.5076 338.061 43.2359 337.898C42.9642 337.735 42.7535 337.507 42.6036 337.214C42.4554 336.921 42.3813 336.578 42.3813 336.186C42.3813 335.794 42.4554 335.451 42.6036 335.156C42.7535 334.862 42.9642 334.633 43.2359 334.47C43.5076 334.307 43.8287 334.225 44.1992 334.225C44.5697 334.225 44.8908 334.307 45.1625 334.47C45.4342 334.633 45.6442 334.862 45.7924 335.156C45.9422 335.451 46.0171 335.794 46.0171 336.186C46.0171 336.578 45.9422 336.921 45.7924 337.214C45.6442 337.507 45.4342 337.735 45.1625 337.898C44.8908 338.061 44.5697 338.142 44.1992 338.142ZM44.2042 337.426C44.4051 337.426 44.573 337.371 44.708 337.261C44.8431 337.149 44.9435 336.999 45.0094 336.811C45.0769 336.623 45.1106 336.414 45.1106 336.184C45.1106 335.952 45.0769 335.742 45.0094 335.554C44.9435 335.365 44.8431 335.214 44.708 335.102C44.573 334.99 44.4051 334.934 44.2042 334.934C43.9983 334.934 43.8271 334.99 43.6904 335.102C43.5554 335.214 43.4541 335.365 43.3866 335.554C43.3207 335.742 43.2878 335.952 43.2878 336.184C43.2878 336.414 43.3207 336.623 43.3866 336.811C43.4541 336.999 43.5554 337.149 43.6904 337.261C43.8271 337.371 43.9983 337.426 44.2042 337.426ZM47.6701 335.845V338.068H46.776V334.275H47.6306V334.919H47.6751C47.7624 334.707 47.9015 334.538 48.0925 334.413C48.2852 334.288 48.5231 334.225 48.8063 334.225C49.0681 334.225 49.2962 334.281 49.4905 334.393C49.6865 334.505 49.838 334.667 49.945 334.88C50.0537 335.092 50.1072 335.35 50.1055 335.653V338.068H49.2114V335.791C49.2114 335.537 49.1455 335.339 49.0138 335.196C48.8837 335.053 48.7034 334.981 48.4729 334.981C48.3165 334.981 48.1773 335.016 48.0555 335.085C47.9353 335.152 47.8406 335.25 47.7714 335.379C47.7039 335.507 47.6701 335.663 47.6701 335.845Z" fill="#525252"/>
<rect x="16.7832" y="345.194" width="78.5231" height="5.05939" rx="2.52969" fill="#E2E8F0"/>
<rect x="16.7832" y="352.783" width="48.1846" height="5.05939" rx="2.52969" fill="#E2E8F0"/>
<rect x="16.7832" y="364.143" width="78.5231" height="5.05939" rx="2.52969" fill="#E2E8F0"/>
<rect x="16.7832" y="371.732" width="48.1846" height="5.05939" rx="2.52969" fill="#E2E8F0"/>
<path opacity="0.8" d="M18.1513 391.973V386.914H20.0482C20.4368 386.914 20.7629 386.982 21.0263 387.117C21.2914 387.252 21.4915 387.441 21.6265 387.685C21.7632 387.927 21.8315 388.209 21.8315 388.532C21.8315 388.857 21.7624 389.138 21.6241 389.377C21.4874 389.614 21.2857 389.798 21.0189 389.928C20.7522 390.056 20.4245 390.12 20.0359 390.12H18.6848V389.36H19.9124C20.1396 389.36 20.3257 389.328 20.4706 389.266C20.6155 389.202 20.7225 389.109 20.7917 388.987C20.8625 388.863 20.8979 388.712 20.8979 388.532C20.8979 388.353 20.8625 388.2 20.7917 388.073C20.7209 387.944 20.613 387.847 20.4681 387.781C20.3232 387.714 20.1363 387.68 19.9074 387.68H19.0676V391.973H18.1513ZM20.7645 389.681L22.0168 391.973H20.9942L19.7642 389.681H20.7645ZM24.2607 392.047C23.8804 392.047 23.5519 391.968 23.2752 391.81C23.0002 391.65 22.7886 391.425 22.6404 391.133C22.4922 390.84 22.4181 390.495 22.4181 390.098C22.4181 389.708 22.4922 389.365 22.6404 389.071C22.7903 388.774 22.9994 388.544 23.2678 388.379C23.5362 388.213 23.8516 388.13 24.2138 388.13C24.4476 388.13 24.6683 388.167 24.8758 388.243C25.0849 388.317 25.2693 388.433 25.429 388.589C25.5904 388.745 25.7172 388.945 25.8094 389.187C25.9016 389.427 25.9477 389.714 25.9477 390.046V390.32H22.838V389.718H25.0907C25.089 389.547 25.052 389.394 24.9795 389.261C24.9071 389.126 24.8058 389.02 24.6757 388.942C24.5473 388.865 24.3974 388.826 24.2262 388.826C24.0434 388.826 23.8828 388.871 23.7445 388.96C23.6062 389.047 23.4983 389.162 23.421 389.305C23.3452 389.447 23.3065 389.603 23.3049 389.772V390.298C23.3049 390.519 23.3452 390.708 23.4259 390.866C23.5066 391.023 23.6194 391.143 23.7643 391.227C23.9092 391.309 24.0788 391.35 24.2731 391.35C24.4032 391.35 24.5209 391.332 24.6263 391.296C24.7317 391.258 24.8231 391.203 24.9005 391.131C24.9779 391.058 25.0363 390.968 25.0758 390.861L25.9107 390.955C25.858 391.176 25.7575 391.369 25.6093 391.533C25.4628 391.696 25.2751 391.823 25.0462 391.914C24.8173 392.003 24.5555 392.047 24.2607 392.047ZM28.6258 388.179V388.871H26.3831V388.179H28.6258ZM26.9437 391.973V387.821C26.9437 387.566 26.9964 387.353 27.1018 387.184C27.2089 387.014 27.3521 386.887 27.5316 386.803C27.7111 386.719 27.9103 386.677 28.1293 386.677C28.2841 386.677 28.4216 386.69 28.5418 386.714C28.662 386.739 28.7509 386.761 28.8086 386.781L28.6307 387.473C28.5929 387.461 28.5451 387.45 28.4875 387.438C28.4298 387.425 28.3656 387.418 28.2948 387.418C28.1285 387.418 28.0108 387.459 27.9416 387.539C27.8741 387.618 27.8403 387.732 27.8403 387.88V391.973H26.9437ZM30.863 392.047C30.4826 392.047 30.1541 391.968 29.8774 391.81C29.6025 391.65 29.3909 391.425 29.2427 391.133C29.0945 390.84 29.0204 390.495 29.0204 390.098C29.0204 389.708 29.0945 389.365 29.2427 389.071C29.3925 388.774 29.6016 388.544 29.87 388.379C30.1384 388.213 30.4538 388.13 30.816 388.13C31.0499 388.13 31.2705 388.167 31.478 388.243C31.6871 388.317 31.8715 388.433 32.0313 388.589C32.1926 388.745 32.3194 388.945 32.4116 389.187C32.5038 389.427 32.55 389.714 32.55 390.046V390.32H29.4403V389.718H31.6929C31.6912 389.547 31.6542 389.394 31.5817 389.261C31.5093 389.126 31.408 389.02 31.2779 388.942C31.1495 388.865 30.9996 388.826 30.8284 388.826C30.6456 388.826 30.4851 388.871 30.3467 388.96C30.2084 389.047 30.1006 389.162 30.0232 389.305C29.9474 389.447 29.9087 389.603 29.9071 389.772V390.298C29.9071 390.519 29.9474 390.708 30.0281 390.866C30.1088 391.023 30.2216 391.143 30.3665 391.227C30.5114 391.309 30.681 391.35 30.8753 391.35C31.0054 391.35 31.1231 391.332 31.2285 391.296C31.3339 391.258 31.4253 391.203 31.5027 391.131C31.5801 391.058 31.6385 390.968 31.6781 390.861L32.5129 390.955C32.4602 391.176 32.3598 391.369 32.2116 391.533C32.065 391.696 31.8773 391.823 31.6484 391.914C31.4195 392.003 31.1577 392.047 30.863 392.047ZM33.3064 391.973V388.179H34.1733V388.811H34.2129C34.282 388.592 34.4006 388.424 34.5685 388.305C34.7381 388.185 34.9316 388.125 35.149 388.125C35.1984 388.125 35.2535 388.127 35.3145 388.132C35.377 388.135 35.4289 388.141 35.4701 388.149V388.972C35.4322 388.959 35.3721 388.947 35.2898 388.937C35.2091 388.926 35.1309 388.92 35.0551 388.92C34.8921 388.92 34.7455 388.955 34.6155 389.026C34.487 389.095 34.3858 389.192 34.3117 389.315C34.2376 389.439 34.2005 389.581 34.2005 389.742V391.973H33.3064ZM37.5875 392.047C37.2071 392.047 36.8786 391.968 36.6019 391.81C36.3269 391.65 36.1154 391.425 35.9672 391.133C35.819 390.84 35.7449 390.495 35.7449 390.098C35.7449 389.708 35.819 389.365 35.9672 389.071C36.117 388.774 36.3261 388.544 36.5945 388.379C36.8629 388.213 37.1783 388.13 37.5405 388.13C37.7743 388.13 37.995 388.167 38.2025 388.243C38.4116 388.317 38.596 388.433 38.7557 388.589C38.9171 388.745 39.0439 388.945 39.1361 389.187C39.2283 389.427 39.2744 389.714 39.2744 390.046V390.32H36.1648V389.718H38.4174C38.4157 389.547 38.3787 389.394 38.3062 389.261C38.2338 389.126 38.1325 389.02 38.0024 388.942C37.874 388.865 37.7241 388.826 37.5529 388.826C37.3701 388.826 37.2095 388.871 37.0712 388.96C36.9329 389.047 36.8251 389.162 36.7477 389.305C36.6719 389.447 36.6332 389.603 36.6316 389.772V390.298C36.6316 390.519 36.6719 390.708 36.7526 390.866C36.8333 391.023 36.9461 391.143 37.091 391.227C37.2359 391.309 37.4055 391.35 37.5998 391.35C37.7299 391.35 37.8476 391.332 37.953 391.296C38.0584 391.258 38.1498 391.203 38.2272 391.131C38.3046 391.058 38.363 390.968 38.4025 390.861L39.2374 390.955C39.1847 391.176 39.0843 391.369 38.9361 391.533C38.7895 391.696 38.6018 391.823 38.3729 391.914C38.144 392.003 37.8822 392.047 37.5875 392.047ZM40.925 389.75V391.973H40.0309V388.179H40.8855V388.824H40.9299C41.0172 388.611 41.1563 388.442 41.3474 388.317C41.54 388.192 41.778 388.13 42.0612 388.13C42.323 388.13 42.5511 388.186 42.7454 388.298C42.9413 388.41 43.0928 388.572 43.1998 388.784C43.3085 388.997 43.362 389.254 43.3604 389.557V391.973H42.4663V389.696C42.4663 389.442 42.4004 389.244 42.2687 389.1C42.1386 388.957 41.9583 388.885 41.7277 388.885C41.5713 388.885 41.4322 388.92 41.3103 388.989C41.1901 389.057 41.0954 389.155 41.0263 389.283C40.9588 389.412 40.925 389.567 40.925 389.75ZM45.9242 392.047C45.5455 392.047 45.2203 391.964 44.9486 391.798C44.6785 391.631 44.4702 391.401 44.3237 391.108C44.1788 390.814 44.1063 390.474 44.1063 390.091C44.1063 389.705 44.1804 389.365 44.3286 389.071C44.4768 388.774 44.6859 388.544 44.956 388.379C45.2277 388.213 45.5488 388.13 45.9193 388.13C46.2272 388.13 46.4997 388.186 46.7368 388.3C46.9756 388.412 47.1658 388.571 47.3074 388.777C47.449 388.981 47.5297 389.22 47.5494 389.493H46.6948C46.6603 389.31 46.5779 389.158 46.4478 389.036C46.3194 388.913 46.1473 388.851 45.9316 388.851C45.7488 388.851 45.5883 388.9 45.45 388.999C45.3117 389.096 45.2038 389.236 45.1264 389.419C45.0507 389.602 45.0128 389.821 45.0128 390.076C45.0128 390.334 45.0507 390.557 45.1264 390.743C45.2022 390.927 45.3084 391.07 45.445 391.17C45.5834 391.269 45.7455 391.318 45.9316 391.318C46.0634 391.318 46.1811 391.294 46.2848 391.244C46.3902 391.193 46.4783 391.12 46.5491 391.024C46.6199 390.929 46.6685 390.813 46.6948 390.676H47.5494C47.528 390.945 47.449 391.182 47.3123 391.39C47.1757 391.596 46.9896 391.757 46.7541 391.874C46.5186 391.989 46.242 392.047 45.9242 392.047ZM49.9632 392.047C49.5828 392.047 49.2543 391.968 48.9777 391.81C48.7027 391.65 48.4911 391.425 48.3429 391.133C48.1947 390.84 48.1206 390.495 48.1206 390.098C48.1206 389.708 48.1947 389.365 48.3429 389.071C48.4928 388.774 48.7019 388.544 48.9703 388.379C49.2387 388.213 49.554 388.13 49.9163 388.13C50.1501 388.13 50.3708 388.167 50.5782 388.243C50.7874 388.317 50.9718 388.433 51.1315 388.589C51.2929 388.745 51.4197 388.945 51.5119 389.187C51.6041 389.427 51.6502 389.714 51.6502 390.046V390.32H48.5405V389.718H50.7931C50.7915 389.547 50.7544 389.394 50.682 389.261C50.6095 389.126 50.5083 389.02 50.3782 388.942C50.2497 388.865 50.0999 388.826 49.9286 388.826C49.7459 388.826 49.5853 388.871 49.447 388.96C49.3087 389.047 49.2008 389.162 49.1234 389.305C49.0477 389.447 49.009 389.603 49.0073 389.772V390.298C49.0073 390.519 49.0477 390.708 49.1284 390.866C49.2091 391.023 49.3219 391.143 49.4668 391.227C49.6117 391.309 49.7813 391.35 49.9756 391.35C50.1057 391.35 50.2234 391.332 50.3288 391.296C50.4342 391.258 50.5256 391.203 50.6029 391.131C50.6803 391.058 50.7388 390.968 50.7783 390.861L51.6132 390.955C51.5605 391.176 51.46 391.369 51.3118 391.533C51.1653 391.696 50.9776 391.823 50.7487 391.914C50.5198 392.003 50.258 392.047 49.9632 392.047ZM55.4052 389.182L54.5901 389.271C54.567 389.188 54.5267 389.111 54.4691 389.039C54.4131 388.966 54.3373 388.908 54.2418 388.863C54.1463 388.819 54.0294 388.796 53.8911 388.796C53.705 388.796 53.5486 388.837 53.4218 388.918C53.2967 388.998 53.2349 389.103 53.2366 389.231C53.2349 389.342 53.2752 389.431 53.3576 389.5C53.4416 389.57 53.5799 389.626 53.7725 389.671L54.4197 389.809C54.7786 389.887 55.0454 390.009 55.2199 390.177C55.3961 390.345 55.485 390.565 55.4867 390.837C55.485 391.075 55.4151 391.286 55.2767 391.469C55.1401 391.65 54.9499 391.792 54.7062 391.894C54.4625 391.996 54.1825 392.047 53.8664 392.047C53.402 392.047 53.0282 391.95 52.745 391.756C52.4618 391.56 52.293 391.287 52.2387 390.938L53.1106 390.854C53.1501 391.025 53.2341 391.154 53.3625 391.242C53.491 391.329 53.6581 391.373 53.8639 391.373C54.0763 391.373 54.2468 391.329 54.3752 391.242C54.5053 391.154 54.5703 391.047 54.5703 390.918C54.5703 390.81 54.5283 390.72 54.4444 390.649C54.362 390.578 54.2336 390.524 54.059 390.486L53.4119 390.35C53.048 390.274 52.7788 390.147 52.6042 389.967C52.4297 389.786 52.3432 389.557 52.3449 389.281C52.3432 389.047 52.4066 388.844 52.5351 388.673C52.6652 388.5 52.8455 388.367 53.076 388.273C53.3082 388.177 53.5758 388.13 53.8787 388.13C54.3233 388.13 54.6732 388.224 54.9285 388.414C55.1854 388.603 55.3443 388.859 55.4052 389.182Z" fill="#525252"/>
<rect x="16.7832" y="397.014" width="77.7318" height="5.05939" rx="2.52969" fill="#E2E8F0"/>
<rect x="16.7832" y="404.603" width="304.264" height="5.05939" rx="2.52969" fill="#E2E8F0"/>
<rect x="18.5225" y="412.684" width="304.264" height="5.05939" rx="2.52969" fill="#E2E8F0"/>
<rect x="17.2354" y="30.4803" width="78.4055" height="8.71172" rx="4.35586" fill="#E2E8F0"/>
<rect x="17" y="44.9998" width="160.876" height="5.80782" rx="2.90391" fill="#E2E8F0"/>
</g>
<defs>
<filter id="filter0_dd_163_1360" x="0.000350356" y="1.51396e-05" width="341.564" height="453.501" filterUnits="userSpaceOnUse" color-interpolation-filters="sRGB">
<feFlood flood-opacity="0" result="BackgroundImageFix"/>
<feColorMatrix in="SourceAlpha" type="matrix" values="0 0 0 0 0 0 0 0 0 0 0 0 0 0 0 0 0 0 127 0" result="hardAlpha"/>
<feMorphology radius="0.574539" operator="erode" in="SourceAlpha" result="effect1_dropShadow_163_1360"/>
<feOffset dy="2.29816"/>
<feGaussianBlur stdDeviation="1.72362"/>
<feComposite in2="hardAlpha" operator="out"/>
<feColorMatrix type="matrix" values="0 0 0 0 0 0 0 0 0 0 0 0 0 0 0 0 0 0 0.1 0"/>
<feBlend mode="normal" in2="BackgroundImageFix" result="effect1_dropShadow_163_1360"/>
<feColorMatrix in="SourceAlpha" type="matrix" values="0 0 0 0 0 0 0 0 0 0 0 0 0 0 0 0 0 0 127 0" result="hardAlpha"/>
<feMorphology radius="1.14908" operator="erode" in="SourceAlpha" result="effect2_dropShadow_163_1360"/>
<feOffset dy="1.14908"/>
<feGaussianBlur stdDeviation="1.14908"/>
<feComposite in2="hardAlpha" operator="out"/>
<feColorMatrix type="matrix" values="0 0 0 0 0 0 0 0 0 0 0 0 0 0 0 0 0 0 0.1 0"/>
<feBlend mode="normal" in2="effect1_dropShadow_163_1360" result="effect2_dropShadow_163_1360"/>
<feBlend mode="normal" in="SourceGraphic" in2="effect2_dropShadow_163_1360" result="shape"/>
</filter>
</defs>
</svg>
