<svg width="100" height="100" viewBox="0 0 100 100" fill="none" xmlns="http://www.w3.org/2000/svg">
<path d="M51.6719 12.0156L56.25 23.4375L69.3125 14.2969L71.0156 15.5L65.625 34.375H34.375L28.9844 15.5L30.6875 14.2969L43.75 23.4375L48.3281 12.0156" fill="#F7C23C"/>
<path d="M71.0156 15.5L69.3125 14.2969L56.25 23.4375L51.6719 12.0156H50.0781L50.0156 34.375H65.625L71.0156 15.5Z" fill="#EFAF22"/>
<path d="M76.5625 64.0625C81.7402 64.0625 85.9375 59.8652 85.9375 54.6875C85.9375 49.5098 81.7402 45.3125 76.5625 45.3125C71.3848 45.3125 67.1875 49.5098 67.1875 54.6875C67.1875 59.8652 71.3848 64.0625 76.5625 64.0625Z" fill="#F2F2F2"/>
<path d="M57.8125 89.0625H95.3125V78.9062C95.3125 75.7982 94.0779 72.8175 91.8802 70.6198C89.6825 68.4221 86.7018 67.1875 83.5938 67.1875L76.5625 71.1719L69.5312 67.1875C66.4232 67.1875 63.4425 68.4221 61.2448 70.6198C59.0471 72.8175 57.8125 75.7982 57.8125 78.9062V89.0625Z" fill="#F2F2F2"/>
<path d="M57.8125 78.9062C57.8125 75.7982 59.0471 72.8175 61.2448 70.6198C63.4425 68.4221 66.4232 67.1875 69.5312 67.1875L76.5625 71.1719V89.0625H57.8125V78.9062Z" fill="#CFD2D3"/>
<path d="M76.5625 45.3125C74.0761 45.3125 71.6915 46.3002 69.9334 48.0584C68.1752 49.8165 67.1875 52.2011 67.1875 54.6875C67.1875 57.1739 68.1752 59.5585 69.9334 61.3166C71.6915 63.0748 74.0761 64.0625 76.5625 64.0625" fill="#CFD2D3"/>
<path d="M23.4375 64.0625C28.6152 64.0625 32.8125 59.8652 32.8125 54.6875C32.8125 49.5098 28.6152 45.3125 23.4375 45.3125C18.2598 45.3125 14.0625 49.5098 14.0625 54.6875C14.0625 59.8652 18.2598 64.0625 23.4375 64.0625Z" fill="#F2F2F2"/>
<path d="M42.1875 89.0625H4.6875V78.9062C4.6875 75.7982 5.92215 72.8175 8.11984 70.6198C10.3175 68.4221 13.2982 67.1875 16.4062 67.1875L23.4375 71.1719L30.4688 67.1875C33.5768 67.1875 36.5575 68.4221 38.7552 70.6198C40.9529 72.8175 42.1875 75.7982 42.1875 78.9062V89.0625Z" fill="#F2F2F2"/>
<path d="M42.1875 78.9062C42.1875 75.7982 40.9529 72.8175 38.7552 70.6198C36.5575 68.4221 33.5768 67.1875 30.4688 67.1875L23.4375 71.1719V89.0625H42.1875V78.9062Z" fill="#CFD2D3"/>
<path d="M23.4375 45.3125C25.9239 45.3125 28.3085 46.3002 30.0666 48.0584C31.8248 49.8165 32.8125 52.2011 32.8125 54.6875C32.8125 57.1739 31.8248 59.5585 30.0666 61.3166C28.3085 63.0748 25.9239 64.0625 23.4375 64.0625" fill="#CFD2D3"/>
<path d="M71.875 95.3125H28.125V77.7344C28.125 74.1084 29.5654 70.6309 32.1294 68.0669C34.6934 65.5029 38.1709 64.0625 41.7969 64.0625L50 69.75L58.2031 64.0625C61.8291 64.0625 65.3066 65.5029 67.8706 68.0669C70.4346 70.6309 71.875 74.1084 71.875 77.7344V95.3125Z" fill="#99AECE"/>
<path d="M71.875 77.7344C71.875 74.1084 70.4346 70.6309 67.8706 68.0669C65.3066 65.5029 61.8291 64.0625 58.2031 64.0625L50 69.75V95.3125H71.875V77.7344Z" fill="#758DAF"/>
<path d="M50 60.9375C56.0406 60.9375 60.9375 56.0406 60.9375 50C60.9375 43.9594 56.0406 39.0625 50 39.0625C43.9594 39.0625 39.0625 43.9594 39.0625 50C39.0625 56.0406 43.9594 60.9375 50 60.9375Z" fill="#99AECE"/>
<path d="M50 39.0625C52.9008 39.0625 55.6828 40.2148 57.734 42.266C59.7852 44.3172 60.9375 47.0992 60.9375 50C60.9375 52.9008 59.7852 55.6828 57.734 57.734C55.6828 59.7852 52.9008 60.9375 50 60.9375" fill="#758DAF"/>
<path d="M50 14.0625C52.5888 14.0625 54.6875 11.9638 54.6875 9.375C54.6875 6.78617 52.5888 4.6875 50 4.6875C47.4112 4.6875 45.3125 6.78617 45.3125 9.375C45.3125 11.9638 47.4112 14.0625 50 14.0625Z" fill="#F43B3B"/>
<path d="M71.875 17.1875C74.4638 17.1875 76.5625 15.0888 76.5625 12.5C76.5625 9.91117 74.4638 7.8125 71.875 7.8125C69.2862 7.8125 67.1875 9.91117 67.1875 12.5C67.1875 15.0888 69.2862 17.1875 71.875 17.1875Z" fill="#47B744"/>
<path d="M28.125 17.1875C30.7138 17.1875 32.8125 15.0888 32.8125 12.5C32.8125 9.91117 30.7138 7.8125 28.125 7.8125C25.5362 7.8125 23.4375 9.91117 23.4375 12.5C23.4375 15.0888 25.5362 17.1875 28.125 17.1875Z" fill="#47B744"/>
</svg>
