<svg width="100" height="100" viewBox="0 0 100 100" fill="none" xmlns="http://www.w3.org/2000/svg">
<path d="M50 42.5688C49.1908 42.5688 48.5352 41.913 48.5352 41.104V24.3433C48.5352 23.5343 49.1908 22.8784 50 22.8784C50.8092 22.8784 51.4648 23.5343 51.4648 24.3433V41.104C51.4648 41.913 50.8092 42.5688 50 42.5688Z" fill="#7A6D79"/>
<path d="M50 67.3826C49.1908 67.3826 48.5352 66.7267 48.5352 65.9177V45.8708C48.5352 45.0619 49.1908 44.406 50 44.406C50.8092 44.406 51.4648 45.0619 51.4648 45.8708V65.9177C51.4648 66.7267 50.8092 67.3826 50 67.3826Z" fill="#7A6D79"/>
<path d="M50 94.056C49.1908 94.056 48.5352 93.4001 48.5352 92.5911V69.1978C48.5352 68.3888 49.1908 67.7329 50 67.7329C50.8092 67.7329 51.4648 68.3888 51.4648 69.1978V92.5913C51.4648 93.4001 50.8092 94.056 50 94.056Z" fill="#7A6D79"/>
<path d="M87.3982 69.351H50C49.1908 69.351 48.5352 68.6951 48.5352 67.8861C48.5352 67.0771 49.1908 66.4213 50 66.4213H85.9334V43.9023C85.9334 43.0934 86.5891 42.4375 87.3982 42.4375C88.2074 42.4375 88.8631 43.0934 88.8631 43.9023V67.8861C88.8631 68.6951 88.2074 69.351 87.3982 69.351Z" fill="#7A6D79"/>
<path d="M44.2799 45.3672H12.2246C11.4154 45.3672 10.7598 44.7113 10.7598 43.9023C10.7598 43.0934 11.4154 42.4375 12.2246 42.4375H44.2799C45.0891 42.4375 45.7447 43.0934 45.7447 43.9023C45.7447 44.7113 45.0889 45.3672 44.2799 45.3672Z" fill="#7A6D79"/>
<path d="M12.6016 69.351C11.7924 69.351 11.1367 68.6951 11.1367 67.8861V43.9023C11.1367 43.0934 11.7924 42.4375 12.6016 42.4375C13.4107 42.4375 14.0664 43.0934 14.0664 43.9023V67.8861C14.0664 68.6951 13.4105 69.351 12.6016 69.351Z" fill="#7A6D79"/>
<path d="M42.0125 95.3671H12.602C11.793 95.3671 11.1371 94.7113 11.1371 93.9023L11.1367 70.0046C11.1367 69.1957 11.7924 68.5398 12.6016 68.5398C13.4105 68.5398 14.0664 69.1957 14.0664 70.0046L14.0668 92.4374H42.0125C42.8217 92.4374 43.4773 93.0933 43.4773 93.9023C43.4773 94.7113 42.8215 95.3671 42.0125 95.3671Z" fill="#7A6D79"/>
<path d="M71.8492 27.6422H28.15C25.9049 27.6422 24.085 25.8223 24.085 23.5771V4.06504C24.085 1.81992 25.9049 0 28.15 0H71.8492C74.0943 0 75.9143 1.81992 75.9143 4.06504V23.5771C75.9143 25.8223 74.0943 27.6422 71.8492 27.6422Z" fill="#E8EDF2"/>
<path d="M71.8498 0H65.3457C67.5908 0 69.4107 1.81992 69.4107 4.06504V23.5771C69.4107 25.8223 67.5908 27.6422 65.3457 27.6422H71.8498C74.0949 27.6422 75.9148 25.8223 75.9148 23.5771V4.06504C75.9148 1.81992 74.0949 0 71.8498 0Z" fill="#D9E7EC"/>
<path d="M56.0975 50.0001H43.9021C40.5346 50.0001 37.8047 47.2702 37.8047 43.9026C37.8047 40.5351 40.5346 37.8052 43.9021 37.8052H56.0973C59.4648 37.8052 62.1947 40.5351 62.1947 43.9026C62.1949 47.2702 59.465 50.0001 56.0975 50.0001Z" fill="#FE76A8"/>
<path d="M56.0979 37.8049H49.5938C52.9613 37.8049 55.6914 40.5348 55.6914 43.9026C55.6914 47.2704 52.9613 50 49.5938 50H56.0979C59.4654 50 62.1955 47.2702 62.1955 43.9024C62.1955 40.5346 59.4654 37.8049 56.0979 37.8049Z" fill="#FE5694"/>
<path d="M60.1627 100H39.8373C38.7148 100 37.8047 99.0901 37.8047 97.9677V89.8376C37.8047 88.7151 38.7146 87.8052 39.8373 87.8052H60.1625C61.285 87.8052 62.1949 88.7151 62.1949 89.8376V97.9677C62.1951 99.0901 61.2852 100 60.1627 100Z" fill="#6CF5C2"/>
<path d="M60.1623 87.8049H53.6582C54.7807 87.8049 55.6906 88.7149 55.6906 89.8374V97.9674C55.6906 99.0899 54.7807 99.9999 53.6582 99.9999H60.1623C61.2848 99.9999 62.1947 99.0899 62.1947 97.9674V89.8374C62.1947 88.7149 61.2848 87.8049 60.1623 87.8049Z" fill="#00F2A6"/>
<path d="M50 73.9839C53.3676 73.9839 56.0977 71.2539 56.0977 67.8862C56.0977 64.5186 53.3676 61.7886 50 61.7886C46.6324 61.7886 43.9023 64.5186 43.9023 67.8862C43.9023 71.2539 46.6324 73.9839 50 73.9839Z" fill="#FFD15B"/>
<path d="M52.1146 62.1658C52.3584 62.8248 52.492 63.5371 52.492 64.2808C52.492 67.6484 49.7621 70.3785 46.3943 70.3785C45.6506 70.3785 44.9383 70.2449 44.2793 70.0011C45.1393 72.3261 47.3758 73.9837 49.9996 73.9837C53.3672 73.9837 56.0973 71.2539 56.0973 67.8861C56.0973 65.2623 54.4397 63.0257 52.1146 62.1658Z" fill="#FFC344"/>
<path d="M87.3984 50C90.7661 50 93.4961 47.27 93.4961 43.9023C93.4961 40.5347 90.7661 37.8047 87.3984 37.8047C84.0308 37.8047 81.3008 40.5347 81.3008 43.9023C81.3008 47.27 84.0308 50 87.3984 50Z" fill="#6CF5C2"/>
<path d="M89.5131 38.1821C89.7568 38.8411 89.8904 39.5534 89.8904 40.2972C89.8904 43.6647 87.1605 46.3948 83.7928 46.3948C83.049 46.3948 82.3367 46.2612 81.6777 46.0175C82.5379 48.3423 84.7742 49.9999 87.3982 49.9999C90.7658 49.9999 93.4959 47.27 93.4959 43.9022C93.4957 41.2784 91.8381 39.0421 89.5131 38.1821Z" fill="#00F2A6"/>
<path d="M12.6016 50C15.9692 50 18.6992 47.27 18.6992 43.9023C18.6992 40.5347 15.9692 37.8047 12.6016 37.8047C9.23392 37.8047 6.50391 40.5347 6.50391 43.9023C6.50391 47.27 9.23392 50 12.6016 50Z" fill="#60B7FF"/>
<path d="M14.7162 38.1821C14.96 38.8411 15.0936 39.5534 15.0936 40.2972C15.0936 43.6647 12.3637 46.3948 8.9959 46.3948C8.25215 46.3948 7.53984 46.2612 6.88086 46.0175C7.74082 48.3423 9.97734 49.9999 12.6012 49.9999C15.9688 49.9999 18.6988 47.27 18.6988 43.9022C18.6988 41.2784 17.0412 39.0421 14.7162 38.1821Z" fill="#26A6FE"/>
<path d="M11.4753 73.5172L6.97046 69.0124C6.34839 68.3903 6.34839 67.3819 6.97046 66.76L11.4753 62.2551C12.0974 61.6331 13.1058 61.6331 13.7277 62.2551L18.2326 66.76C18.8546 67.3821 18.8546 68.3905 18.2326 69.0124L13.7277 73.5172C13.1058 74.1393 12.0974 74.1393 11.4753 73.5172Z" fill="#FE76A8"/>
<path d="M18.233 66.7599L15.2191 63.7458C15.8412 64.3679 15.8412 65.3763 15.2191 65.9982L10.7143 70.5031C10.0922 71.1251 9.08379 71.1251 8.46191 70.5031L11.476 73.5171C12.098 74.1392 13.1064 74.1392 13.7285 73.5171L18.2334 69.0123C18.8551 68.3904 18.8551 67.382 18.233 66.7599Z" fill="#FE5694"/>
<path d="M57.3673 21.3835C56.9925 21.3835 56.6175 21.2406 56.3314 20.9544C55.7593 20.3824 55.7593 19.4548 56.3314 18.883L61.3933 13.821L56.3314 8.75933C55.7593 8.18726 55.7593 7.25972 56.3314 6.68784C56.9037 6.11577 57.831 6.11577 58.4031 6.68784L64.5007 12.7853C64.7753 13.0599 64.9296 13.4326 64.9296 13.821C64.9296 14.2095 64.7753 14.5822 64.5007 14.8568L58.4031 20.9544C58.1169 21.2404 57.7421 21.3835 57.3673 21.3835Z" fill="#FE76A8"/>
<path d="M42.6318 21.3836C42.257 21.3836 41.882 21.2407 41.5959 20.9545L35.4982 14.8569C35.2236 14.5823 35.0693 14.2096 35.0693 13.8211C35.0693 13.4326 35.2236 13.06 35.4982 12.7854L41.5959 6.68792C42.1684 6.11565 43.0957 6.11584 43.6676 6.68792C44.2395 7.25999 44.2396 8.18752 43.6676 8.7594L38.6057 13.8211L43.6676 18.883C44.2396 19.4551 44.2396 20.3826 43.6676 20.9545C43.3816 21.2405 43.0066 21.3836 42.6318 21.3836Z" fill="#FE76A8"/>
<path d="M49.3407 22.1966C49.2941 22.1966 49.2472 22.1945 49.1995 22.1898C48.3942 22.1128 47.8038 21.3976 47.8808 20.5923L49.2019 6.77124C49.279 5.96577 49.9952 5.37592 50.7995 5.45249C51.6048 5.52944 52.1952 6.24467 52.1183 7.04995L50.7972 20.871C50.7247 21.629 50.0868 22.1966 49.3407 22.1966Z" fill="#FE76A8"/>
</svg>
