<svg width="100" height="100" viewBox="0 0 100 100" fill="none" xmlns="http://www.w3.org/2000/svg">
<g clipPath="url(#clip0_163_685)">
<path d="M66.3141 0.883984L80.2639 14.8338C80.8299 15.3998 81.1479 16.1674 81.1479 16.968V96.9818C81.1479 98.6486 79.7967 100 78.1297 100H3.87363C2.20684 100 0.855469 98.6488 0.855469 96.9818V3.01816C0.855664 1.35117 2.20684 0 3.87363 0H64.1799C64.9805 0 65.748 0.317969 66.3141 0.883984Z" fill="#EAF6FF"/>
<path d="M80.2639 14.8338L73.3354 7.90527V89.1693C73.3354 90.8361 71.9842 92.1875 70.3172 92.1875H0.855469V96.9818C0.855469 98.6488 2.20664 100 3.87344 100H78.1295C79.7963 100 81.1477 98.6488 81.1477 96.9818V16.968C81.1479 16.1676 80.8299 15.3998 80.2639 14.8338Z" fill="#D8ECFE"/>
<path d="M80.2637 14.8339L66.3137 0.884082C66.0561 0.626465 65.7551 0.423145 65.4297 0.274902V12.6999C65.4297 14.3667 66.7809 15.7181 68.4479 15.7181H80.8729C80.7246 15.3925 80.5213 15.0917 80.2637 14.8339Z" fill="#C4E2FF"/>
<path d="M73.3359 15.7178H80.8738C80.7256 15.3924 80.5223 15.0914 80.2645 14.8338L73.3359 7.90527V15.7178Z" fill="#B3DAFE"/>
<path d="M87.1342 62.7602C87.0213 62.7443 86.9062 62.7363 86.7922 62.7363C86.1478 62.7363 85.5375 62.9824 85.0736 63.4297L82.5545 65.8572C82.1748 66.2229 81.6756 66.4244 81.1484 66.4244C80.6213 66.4244 80.1221 66.2229 79.7424 65.8572L77.223 63.4297C76.7592 62.9824 76.1488 62.7363 75.5047 62.7363C75.3908 62.7363 75.2758 62.7441 75.1627 62.7602L72.0303 63.1971V87.5537C72.0303 89.0262 73.7018 89.8758 74.8914 89.008L80.0873 85.2172C80.7195 84.7561 81.5771 84.7561 82.2092 85.2172L87.4051 89.008C88.5945 89.8758 90.2662 89.0262 90.2662 87.5537V63.1971L87.1342 62.7602Z" fill="#FD5426"/>
<path d="M87.134 62.7602C87.0211 62.7444 86.9061 62.7366 86.792 62.7366C86.1477 62.7366 85.5373 62.9827 85.0734 63.4299L84.2301 64.2426V77.2846C84.2301 78.3959 83.3293 79.2967 82.218 79.2967H72.0303V87.5538C72.0303 89.0262 73.7018 89.8758 74.8914 89.0081L80.0873 85.2172C80.7195 84.7561 81.5771 84.7561 82.2092 85.2172L87.4051 89.0081C88.5945 89.8758 90.2662 89.0262 90.2662 87.5538V63.1971L87.134 62.7602Z" fill="#EF4424"/>
<path d="M82.7106 29.668L85.2298 32.0956C85.7276 32.5752 86.4182 32.7997 87.103 32.7042L90.5681 32.2209C91.7675 32.0538 92.8843 32.8651 93.0958 34.0575L93.7069 37.5022C93.8276 38.1829 94.2546 38.7704 94.8645 39.0956L97.9518 40.7413C99.0204 41.311 99.447 42.6239 98.9173 43.7127L97.387 46.8588C97.0847 47.4805 97.0847 48.2067 97.387 48.8284L98.9173 51.9745C99.447 53.0633 99.0204 54.3762 97.9518 54.9459L94.8645 56.5917C94.2544 56.9168 93.8276 57.5044 93.7069 58.185L93.0958 61.6297C92.8843 62.8221 91.7675 63.6334 90.5681 63.4663L87.103 62.9831C86.4182 62.8876 85.7276 63.112 85.2298 63.5916L82.7106 66.0192C81.8386 66.8594 80.4583 66.8594 79.5862 66.0192L77.0671 63.5916C76.5692 63.112 75.8786 62.8876 75.1938 62.9831L71.7288 63.4663C70.5294 63.6334 69.4126 62.8221 69.2011 61.6297L68.5899 58.185C68.4692 57.5044 68.0423 56.9168 67.4323 56.5917L64.345 54.9459C63.2765 54.3762 62.8499 53.0633 63.3796 51.9745L64.9098 48.8284C65.2122 48.2067 65.2122 47.4805 64.9098 46.8588L63.3796 43.7127C62.8499 42.6239 63.2765 41.311 64.345 40.7413L67.4323 39.0956C68.0425 38.7704 68.4692 38.1829 68.5899 37.5022L69.2011 34.0575C69.4126 32.8651 70.5294 32.0538 71.7288 32.2209L75.1938 32.7042C75.8786 32.7997 76.5692 32.5752 77.0671 32.0956L79.5862 29.668C80.4583 28.8278 81.8388 28.8278 82.7106 29.668Z" fill="#FEDF30"/>
<path d="M81.148 56.8491C86.1216 56.8491 90.1535 52.8172 90.1535 47.8436C90.1535 42.87 86.1216 38.8381 81.148 38.8381C76.1745 38.8381 72.1426 42.87 72.1426 47.8436C72.1426 52.8172 76.1745 56.8491 81.148 56.8491Z" fill="#F6A96C"/>
<path d="M82.7018 38.9744C83.5969 40.3736 84.118 42.0351 84.118 43.8195C84.118 48.7931 80.0861 52.825 75.1125 52.825C74.5826 52.825 74.0643 52.7765 73.5596 52.6888C75.1596 55.1898 77.9596 56.8492 81.1488 56.8492C86.1225 56.8492 90.1543 52.8173 90.1543 47.8437C90.1541 43.4 86.9348 39.7105 82.7018 38.9744Z" fill="#EA9B58"/>
<path d="M27.5842 12.3192L20.6643 8.32391C20.5174 8.23915 20.3432 8.23016 20.1875 8.28837V25.3157C20.3434 25.3739 20.5176 25.3649 20.6643 25.2802L22.801 24.0466C25.9352 22.237 27.8658 18.8931 27.8658 15.2739V12.8067C27.8656 12.6057 27.7582 12.4198 27.5842 12.3192Z" fill="#0593FC"/>
<path d="M20.101 8.32393L13.1809 12.3192C13.0066 12.4198 12.8994 12.6056 12.8994 12.8067V15.2739C12.8994 18.8931 14.8301 22.237 17.9643 24.0466L20.1008 25.2802C20.1879 25.3304 20.2852 25.3556 20.3822 25.3556V8.24854C20.2852 8.24854 20.1881 8.27373 20.101 8.32393Z" fill="#60B7FF"/>
<path d="M55.8775 14.3579H35.0557C34.2467 14.3579 33.5908 13.7022 33.5908 12.8931C33.5908 12.0839 34.2467 11.4282 35.0557 11.4282H55.8775C56.6865 11.4282 57.3424 12.0839 57.3424 12.8931C57.3424 13.7022 56.6865 14.3579 55.8775 14.3579Z" fill="#60B7FF"/>
<path d="M55.8775 21.3789H35.0557C34.2467 21.3789 33.5908 20.7232 33.5908 19.9141C33.5908 19.1049 34.2467 18.4492 35.0557 18.4492H55.8775C56.6865 18.4492 57.3424 19.1049 57.3424 19.9141C57.3424 20.7232 56.6865 21.3789 55.8775 21.3789Z" fill="#60B7FF"/>
<path d="M16.045 73.6186C15.6711 73.6186 15.31 73.4756 15.037 73.2164L11.6881 70.0399C11.1012 69.4831 11.0768 68.5559 11.6334 67.969C12.1901 67.3821 13.1174 67.3575 13.7043 67.9143L15.8887 69.9862L19.4875 65.4227C19.9883 64.7875 20.9094 64.6782 21.5448 65.1797C22.1799 65.6805 22.2889 66.6016 21.7879 67.237L17.1954 73.0606C16.9405 73.3838 16.5612 73.585 16.1504 73.6145C16.1153 73.6172 16.0801 73.6186 16.045 73.6186Z" fill="#0ED290"/>
<path d="M55.8775 70.7068H29.6709C28.8619 70.7068 28.2061 70.0511 28.2061 69.2419C28.2061 68.4328 28.8619 67.7771 29.6709 67.7771H55.8775C56.6865 67.7771 57.3424 68.4328 57.3424 69.2419C57.3424 70.0511 56.6865 70.7068 55.8775 70.7068Z" fill="#0ED290"/>
<path d="M16.045 86.9017C15.6711 86.9017 15.31 86.7588 15.037 86.4996L11.6881 83.3228C11.1012 82.766 11.0768 81.8389 11.6334 81.2517C12.1903 80.665 13.1174 80.6404 13.7043 81.1972L15.8887 83.2693L19.4875 78.7058C19.9883 78.0709 20.9098 77.9613 21.5448 78.4629C22.1799 78.9637 22.2889 79.8848 21.7879 80.5201L17.1952 86.3437C16.9401 86.667 16.561 86.8681 16.1502 86.8976C16.1153 86.9004 16.0801 86.9017 16.045 86.9017Z" fill="#0ED290"/>
<path d="M55.8775 83.9897H29.6709C28.8619 83.9897 28.2061 83.3341 28.2061 82.5249C28.2061 81.7157 28.8619 81.0601 29.6709 81.0601H55.8775C56.6865 81.0601 57.3424 81.7157 57.3424 82.5249C57.3424 83.3341 56.6865 83.9897 55.8775 83.9897Z" fill="#0ED290"/>
<path d="M55.8775 37.8521H12.6963C11.8873 37.8521 11.2314 37.1964 11.2314 36.3872C11.2314 35.578 11.8873 34.9224 12.6963 34.9224H55.8775C56.6865 34.9224 57.3424 35.578 57.3424 36.3872C57.3424 37.1964 56.6865 37.8521 55.8775 37.8521Z" fill="#60B7FF"/>
<path d="M55.8775 46.8574H12.6963C11.8873 46.8574 11.2314 46.2018 11.2314 45.3926C11.2314 44.5834 11.8873 43.9277 12.6963 43.9277H55.8775C56.6865 43.9277 57.3424 44.5834 57.3424 45.3926C57.3424 46.2018 56.6865 46.8574 55.8775 46.8574Z" fill="#60B7FF"/>
<path d="M55.8775 55.8628H12.6963C11.8873 55.8628 11.2314 55.2071 11.2314 54.3979C11.2314 53.5888 11.8873 52.9331 12.6963 52.9331H55.8775C56.6865 52.9331 57.3424 53.5888 57.3424 54.3979C57.3424 55.2071 56.6865 55.8628 55.8775 55.8628Z" fill="#60B7FF"/>
</g>
<defs>
<clipPath id="clip0_163_685">
<rect width="100" height="100" fill="white"/>
</clipPath>
</defs>
</svg>
