<svg width="435" height="271" viewBox="0 0 435 271" fill="none" xmlns="http://www.w3.org/2000/svg">
<path d="M123.141 270.88C122.687 270.88 122.244 270.737 121.876 270.471C121.507 270.206 121.232 269.831 121.088 269.399C120.85 268.685 97.2038 197.743 89.3566 172.698C84.5272 157.273 88.3364 126.367 91.0386 109.315C94.7674 85.7898 100.762 60.9996 105.292 50.3663C108.418 43.0293 112.632 39.2357 117.817 39.0965C125.633 38.8862 132.785 47.4135 135.441 52.8366C139.26 60.6033 136.035 96.3176 135.653 100.365C135.627 100.647 135.545 100.922 135.413 101.174C135.28 101.425 135.099 101.647 134.88 101.83C134.661 102.011 134.408 102.147 134.137 102.231C133.865 102.315 133.58 102.343 133.297 102.317C133.014 102.29 132.738 102.208 132.487 102.075C132.236 101.943 132.013 101.762 131.832 101.542C131.651 101.323 131.514 101.072 131.431 100.8C131.347 100.527 131.317 100.243 131.344 99.9601C132.735 85.1435 134.025 59.7662 131.554 54.7473C129.177 49.9087 123.126 43.2859 117.919 43.4251C114.58 43.5147 111.664 46.4211 109.262 52.0637C104.853 62.4089 98.9816 86.7732 95.3023 109.993C90.8067 138.37 90.1389 160.751 93.475 171.404C101.322 196.404 124.947 267.315 125.194 268.029C125.375 268.575 125.333 269.168 125.076 269.681C124.819 270.194 124.369 270.584 123.825 270.765C123.605 270.841 123.374 270.88 123.141 270.88Z" fill="black"/>
<path d="M155.081 105.339H154.877C154.592 105.313 154.318 105.231 154.066 105.099C153.814 104.966 153.592 104.785 153.411 104.566C153.229 104.348 153.092 104.094 153.009 103.823C152.925 103.552 152.895 103.267 152.921 102.983C154.316 88.1677 155.605 62.7888 153.135 57.7715C150.971 53.3907 145.331 46.7675 140.042 46.4552C137.37 46.2975 135.042 47.8155 132.93 51.0929C132.617 51.5775 132.125 51.9181 131.561 52.0394C130.997 52.161 130.408 52.0534 129.923 51.7406C129.439 51.4279 129.098 50.9353 128.976 50.3713C128.855 49.8074 128.962 49.2184 129.275 48.7337C133.013 42.9582 137.33 41.9504 140.285 42.1265C147.771 42.5655 154.508 50.7837 157.013 55.8508C160.831 63.6176 157.603 99.3319 157.223 103.379C157.172 103.913 156.924 104.41 156.529 104.772C156.133 105.134 155.617 105.336 155.081 105.339Z" fill="black"/>
<path d="M179.443 116.207C179.376 116.207 179.303 116.207 179.236 116.207C178.953 116.181 178.679 116.099 178.427 115.966C178.175 115.832 177.953 115.651 177.772 115.431C177.592 115.212 177.455 114.961 177.371 114.688C177.287 114.417 177.258 114.13 177.286 113.848C178.677 99.0096 179.981 73.6569 177.508 68.6265C175.386 64.2983 169.8 57.7336 164.544 57.3192C161.991 57.1219 159.748 58.4424 157.692 61.358C157.532 61.5998 157.325 61.8053 157.085 61.9665C156.843 62.126 156.572 62.2362 156.288 62.2904C156.003 62.3431 155.71 62.3398 155.428 62.2773C155.145 62.2164 154.878 62.098 154.641 61.9319C154.405 61.7658 154.204 61.5521 154.051 61.3071C153.898 61.062 153.795 60.7874 153.75 60.5013C153.704 60.2151 153.717 59.924 153.786 59.6428C153.857 59.3616 153.982 59.0969 154.155 58.865C157.865 53.6093 162.03 52.781 164.883 53.0066C172.285 53.588 178.94 61.7264 181.394 66.7157C185.212 74.4824 181.987 110.197 181.607 114.244C181.558 114.782 181.308 115.283 180.907 115.647C180.506 116.01 179.984 116.209 179.443 116.207Z" fill="black"/>
<path d="M159.128 201.351C158.618 201.352 158.126 201.173 157.735 200.848C157.345 200.522 157.082 200.068 156.992 199.568C156.903 199.067 156.992 198.55 157.245 198.11C157.498 197.669 157.899 197.33 158.376 197.154C158.513 197.105 172.29 191.824 176.172 179.223C180.254 165.955 178.922 144.117 178.906 143.898C178.887 143.614 178.925 143.329 179.017 143.06C179.109 142.79 179.254 142.542 179.442 142.328C179.631 142.114 179.859 141.938 180.114 141.813C180.371 141.688 180.649 141.614 180.933 141.596C181.216 141.578 181.502 141.616 181.772 141.708C182.04 141.8 182.29 141.945 182.504 142.132C182.717 142.321 182.892 142.55 183.017 142.805C183.142 143.061 183.216 143.339 183.234 143.622C183.293 144.55 184.635 166.465 180.318 180.493C175.804 195.161 160.53 200.964 159.887 201.208C159.646 201.302 159.387 201.349 159.128 201.351Z" fill="black"/>
<path d="M193.276 243.835C192.933 243.835 192.596 243.755 192.29 243.597C191.984 243.441 191.721 243.214 191.52 242.936C181.273 228.695 174.247 210.397 171.732 191.417C171.686 191.08 171.655 190.83 171.63 190.672C171.555 190.113 171.701 189.545 172.038 189.091C172.375 188.639 172.875 188.335 173.434 188.246C173.992 188.157 174.561 188.289 175.023 188.614C175.483 188.94 175.801 189.433 175.903 189.988C175.931 190.17 175.972 190.458 176.024 190.848C178.453 209.136 185.207 226.735 195.043 240.41C195.274 240.734 195.413 241.114 195.442 241.51C195.472 241.908 195.391 242.304 195.209 242.658C195.028 243.013 194.751 243.309 194.413 243.518C194.074 243.725 193.684 243.835 193.286 243.835H193.276Z" fill="black"/>
<path d="M193.277 51.0866V131.123L149.414 150.978C149.917 140.948 147.209 133.93 145.543 130.572C140.952 121.333 130.142 120.369 124.725 123.461C121.151 125.502 120.248 133.912 119.793 136.202C118.664 142.063 116.866 147.774 114.435 153.226L89.4653 98.0821L193.277 51.0866Z" fill="#10B981"/>
<path d="M114.435 155.39C114.019 155.39 113.612 155.27 113.262 155.043C112.913 154.818 112.636 154.495 112.465 154.117L87.4984 98.9586C87.262 98.4357 87.2428 97.8404 87.4452 97.3026C87.6475 96.7665 88.0548 96.3307 88.5775 96.0939L192.395 49.0986C192.725 48.9513 193.087 48.8893 193.449 48.9179C193.809 48.9466 194.156 49.0654 194.46 49.263C194.763 49.4609 195.011 49.7314 195.182 50.0499C195.353 50.3684 195.442 50.725 195.44 51.0866V131.123C195.44 131.539 195.322 131.946 195.097 132.295C194.872 132.645 194.549 132.923 194.171 133.094L150.3 152.951C149.961 153.104 149.59 153.168 149.22 153.135C148.85 153.104 148.494 152.977 148.189 152.769C147.881 152.56 147.634 152.275 147.468 151.943C147.304 151.609 147.227 151.241 147.245 150.869C147.722 141.4 145.164 134.691 143.597 131.534C142.805 129.891 141.677 128.432 140.287 127.25C138.897 126.069 137.276 125.191 135.528 124.673C132.126 123.644 128.323 123.908 125.8 125.352C123.589 126.615 122.495 133.206 122.136 135.37C122.053 135.883 121.979 136.317 121.917 136.635C120.752 142.652 118.904 148.516 116.41 154.114C116.241 154.495 115.965 154.819 115.615 155.048C115.266 155.276 114.858 155.398 114.441 155.4L114.435 155.39ZM92.3309 99.1461L114.326 147.745C115.762 143.854 116.881 139.855 117.672 135.785C117.727 135.497 117.789 135.114 117.866 134.653C118.485 130.884 119.657 123.866 123.651 121.585C127.216 119.549 132.247 119.141 136.786 120.521C139.098 121.22 141.242 122.389 143.083 123.954C144.923 125.52 146.419 127.449 147.48 129.62C149.026 132.749 151.456 138.975 151.629 147.612L191.112 129.725V54.4316L92.3309 99.1461Z" fill="#10B981"/>
<path d="M114.698 122.432C114.281 122.432 113.874 122.312 113.524 122.085C113.174 121.859 112.896 121.537 112.725 121.157L104.912 103.902C104.676 103.379 104.656 102.784 104.859 102.248C105.061 101.71 105.468 101.276 105.991 101.039L135.438 87.7089C135.698 87.5921 135.977 87.5263 136.26 87.5181C136.545 87.5082 136.829 87.5543 137.094 87.6546C137.36 87.7549 137.605 87.9062 137.812 88.1019C138.02 88.2959 138.187 88.5295 138.304 88.7893L146.114 106.045C146.35 106.566 146.37 107.16 146.17 107.696C145.969 108.232 145.564 108.666 145.045 108.904L115.597 122.229C115.316 122.363 115.009 122.43 114.698 122.432ZM109.751 104.088L115.777 117.401L141.279 105.859L135.252 92.5452L109.751 104.088Z" fill="black"/>
<path d="M150.965 85.2208C150.467 85.2241 149.983 85.0564 149.595 84.7456C149.207 84.4348 148.937 83.999 148.832 83.5122C148.727 83.0271 148.793 82.519 149.02 82.075C149.245 81.631 149.616 81.2791 150.072 81.0784L195.441 60.5441C195.701 60.424 195.982 60.355 196.268 60.3418C196.554 60.3303 196.84 60.3747 197.108 60.475C197.376 60.5737 197.623 60.725 197.834 60.9207C198.043 61.1163 198.212 61.3499 198.33 61.6113C198.449 61.8728 198.513 62.154 198.523 62.4401C198.531 62.7263 198.482 63.0124 198.38 63.2788C198.278 63.5469 198.123 63.7919 197.926 63.9991C197.727 64.2063 197.49 64.3724 197.228 64.4875L151.846 85.0284C151.568 85.1534 151.269 85.2192 150.965 85.2208Z" fill="black"/>
<path d="M156.143 96.6629C155.645 96.6695 155.158 96.5034 154.769 96.1926C154.377 95.8818 154.106 95.4444 154.001 94.9576C153.895 94.4692 153.963 93.9594 154.19 93.5154C154.417 93.0698 154.79 92.7179 155.247 92.5172L185.992 78.6035C186.252 78.4867 186.531 78.4209 186.816 78.4127C187.1 78.4028 187.383 78.4505 187.65 78.5509C187.916 78.6495 188.159 78.8025 188.367 78.9965C188.574 79.1905 188.741 79.4241 188.858 79.6839C188.977 79.9421 189.041 80.2216 189.051 80.5061C189.061 80.7906 189.013 81.0735 188.913 81.3399C188.812 81.6063 188.661 81.8496 188.467 82.0568C188.273 82.264 188.039 82.4318 187.779 82.5485L157.031 96.4623C156.753 96.5922 156.451 96.6613 156.143 96.6629Z" fill="black"/>
<path d="M149.478 122.857C148.983 122.859 148.501 122.69 148.115 122.381C147.73 122.07 147.462 121.636 147.356 121.152C147.251 120.667 147.315 120.162 147.539 119.72C147.761 119.278 148.129 118.924 148.582 118.722L193.964 98.1791C194.487 97.9423 195.082 97.9226 195.62 98.1248C196.157 98.3271 196.593 98.7349 196.83 99.2579C197.067 99.7808 197.087 100.376 196.884 100.914C196.68 101.452 196.274 101.887 195.75 102.124L150.367 122.663C150.09 122.792 149.785 122.857 149.478 122.857Z" fill="black"/>
<path d="M141.196 189.292C140.662 189.292 140.146 189.095 139.748 188.736C138.409 187.528 138.171 185.375 140.601 176.962C141.838 172.634 143.278 168.549 143.338 168.379L143.362 168.314C150.67 149.401 145.965 136.301 143.602 131.548C142.811 129.902 141.685 128.44 140.294 127.255C138.902 126.071 137.278 125.191 135.526 124.673C132.144 123.644 128.323 123.908 125.797 125.351C123.589 126.612 122.498 133.203 122.139 135.367C122.053 135.883 121.981 136.317 121.917 136.638C120.463 143.956 117.696 154.086 109.119 167.537C108.971 167.787 108.775 168.005 108.541 168.177C108.308 168.35 108.042 168.473 107.76 168.541C107.477 168.608 107.184 168.618 106.898 168.57C106.612 168.521 106.339 168.416 106.094 168.261C105.849 168.105 105.638 167.901 105.474 167.662C105.309 167.422 105.195 167.153 105.137 166.868C105.079 166.584 105.078 166.291 105.136 166.006C105.193 165.722 105.307 165.452 105.471 165.214C113.658 152.366 116.292 142.742 117.671 135.795C117.727 135.507 117.792 135.12 117.869 134.66C118.488 130.891 119.656 123.872 123.651 121.593C127.216 119.555 132.249 119.151 136.788 120.529C139.1 121.228 141.243 122.395 143.083 123.959C144.921 125.523 146.419 127.451 147.48 129.62C148.948 132.576 150.828 137.495 151.438 144.134C152.191 152.32 150.835 160.968 147.417 169.841C145.169 176.26 142.953 184.107 143.089 186.039C143.282 186.37 143.384 186.746 143.384 187.128C143.384 187.511 143.282 187.886 143.089 188.217C142.897 188.547 142.621 188.82 142.288 189.009C141.956 189.198 141.58 189.297 141.196 189.292Z" fill="black"/>
<path d="M296.062 2.16425H202.74C201.497 2.1631 200.267 2.40664 199.119 2.8814C197.971 3.35599 196.927 4.05226 196.049 4.93024C195.169 5.80838 194.472 6.85112 193.997 7.99879C193.521 9.14646 193.276 10.3767 193.276 11.6192V200.096C193.276 202.602 194.273 205.006 196.047 206.779C197.82 208.552 200.224 209.547 202.73 209.547H287.015C286.506 208.504 285.927 207.498 285.284 206.533C282.84 202.859 280.163 199.348 277.265 196.019H210.591C209.52 196.021 208.46 195.812 207.47 195.403C206.481 194.993 205.582 194.393 204.825 193.637C204.067 192.879 203.467 191.979 203.058 190.991C202.65 190.001 202.439 188.94 202.441 187.87V20.0722C202.441 17.9108 203.299 15.8378 204.827 14.3092C206.356 12.7809 208.428 11.9221 210.591 11.9221H288.218C290.081 11.9202 291.888 12.56 293.335 13.734C293.458 13.833 293.579 13.9359 293.697 14.0432C293.902 14.231 294.098 14.4291 294.284 14.6368C294.448 14.8161 294.593 15.0047 294.748 15.1996C294.983 15.515 295.197 15.8465 295.384 16.192C296.032 17.3837 296.371 18.719 296.368 20.0754V166.939C298.727 168.718 300.96 170.657 303.056 172.742C303.056 172.742 304.046 173.67 305.529 174.974V11.6192C305.529 10.3765 305.284 9.14597 304.809 7.99814C304.332 6.85014 303.634 5.80722 302.755 4.92924C301.876 4.0511 300.832 3.35484 299.684 2.88041C298.535 2.40599 297.305 2.16261 296.062 2.16425Z" fill="#10B981"/>
<path d="M287.024 211.711H202.741C199.659 211.711 196.704 210.487 194.523 208.309C192.343 206.131 191.116 203.178 191.113 200.096V11.6193C191.116 8.53852 192.341 5.58507 194.518 3.40682C196.697 1.22841 199.651 0.00328892 202.731 0H296.052C299.134 0.00246669 302.087 1.22726 304.266 3.40568C306.445 5.58409 307.672 8.53803 307.675 11.6193V174.965C307.675 175.539 307.447 176.089 307.041 176.495C306.634 176.901 306.085 177.13 305.511 177.13C304.937 177.13 304.386 176.901 303.98 176.495C303.574 176.089 303.347 175.539 303.347 174.965V11.6193C303.344 9.68635 302.574 7.83338 301.208 6.46667C299.841 5.09996 297.988 4.33102 296.056 4.32855H202.741C200.807 4.32855 198.95 5.09635 197.582 6.46338C196.214 7.83042 195.443 9.68471 195.441 11.6193V200.096C195.443 202.028 196.212 203.88 197.579 205.247C198.945 206.613 200.799 207.381 202.731 207.383H287.016C287.59 207.383 288.139 207.611 288.545 208.017C288.952 208.422 289.18 208.973 289.18 209.547C289.18 210.121 288.952 210.672 288.545 211.078C288.139 211.484 287.59 211.711 287.016 211.711H287.024Z" fill="black"/>
<path d="M279.897 118.593H214.431C213.857 118.593 213.306 118.367 212.9 117.96C212.494 117.554 212.267 117.003 212.267 116.429C212.267 115.855 212.494 115.306 212.9 114.9C213.306 114.494 213.857 114.265 214.431 114.265H279.897C280.471 114.265 281.021 114.494 281.428 114.9C281.834 115.306 282.061 115.855 282.061 116.429C282.061 117.003 281.834 117.554 281.428 117.96C281.021 118.367 280.471 118.593 279.897 118.593Z" fill="#10B981"/>
<path d="M242.164 86.6433C240.209 83.9217 225.889 59.1742 220.624 50.255C220.402 49.8792 220.257 49.4634 220.198 49.0314C220.139 48.5992 220.165 48.1596 220.277 47.7382C220.388 47.3165 220.583 46.9212 220.847 46.5752C221.112 46.2292 221.444 45.9393 221.822 45.7224L227.484 42.4728C227.881 42.2439 228.321 42.1003 228.777 42.0511C229.232 42.002 229.693 42.0485 230.129 42.1876C230.566 42.3267 230.969 42.5553 231.311 42.8589C231.655 43.1626 231.931 43.5344 232.122 43.9506L247.469 77.237C247.509 77.3274 247.576 77.4014 247.66 77.4524C247.744 77.5034 247.841 77.5264 247.94 77.5198C248.037 77.5116 248.131 77.4754 248.206 77.4129C248.282 77.3504 248.336 77.2666 248.362 77.1728L260.956 34.301C261.209 33.4406 261.64 32.6425 262.219 31.9576C262.797 31.2727 263.513 30.716 264.319 30.3233C265.124 29.9305 266.004 29.7101 266.9 29.6764C267.797 29.6425 268.69 29.7961 269.523 30.127L275.614 32.5511C276.22 32.791 276.769 33.152 277.229 33.6116C277.69 34.0714 278.051 34.6202 278.292 35.2247C278.533 35.829 278.648 36.4763 278.63 37.1265C278.612 37.7769 278.461 38.4167 278.186 39.0067C278.186 39.0067 259.719 79.4241 256.402 84.9857C253.437 89.9569 251.406 90.9863 248.818 90.9863C246.165 90.9896 244.118 89.3583 242.164 86.6433Z" fill="#10B981"/>
<path d="M279.897 141.369H214.431C213.857 141.369 213.306 141.141 212.9 140.734C212.494 140.328 212.267 139.779 212.267 139.205C212.267 138.631 212.494 138.08 212.9 137.674C213.306 137.268 213.857 137.039 214.431 137.039H279.897C280.471 137.039 281.021 137.268 281.428 137.674C281.834 138.08 282.061 138.631 282.061 139.205C282.061 139.779 281.834 140.328 281.428 140.734C281.021 141.141 280.471 141.369 279.897 141.369Z" fill="#10B981"/>
<path d="M387.042 174.896C386.468 174.896 385.918 174.669 385.512 174.263C385.106 173.857 384.877 173.306 384.877 172.732C384.877 172.158 385.106 171.607 385.512 171.201C385.918 170.797 386.468 170.568 387.042 170.568C387.259 170.568 408.827 170.354 421.421 156.345C421.804 155.919 422.342 155.664 422.914 155.633C423.486 155.604 424.047 155.801 424.473 156.184C424.9 156.567 425.157 157.103 425.19 157.676C425.221 158.248 425.024 158.809 424.642 159.236C410.728 174.714 388.007 174.906 387.045 174.906L387.042 174.896Z" fill="#10B981"/>
<path d="M420.503 195.432C405.662 195.432 387.42 189.759 386.39 189.435C385.851 189.254 385.405 188.871 385.147 188.365C384.889 187.86 384.839 187.273 385.01 186.73C385.181 186.189 385.558 185.737 386.06 185.47C386.561 185.204 387.147 185.145 387.691 185.308C393.553 187.075 399.51 188.509 405.535 189.601C417.901 191.8 426.98 191.635 431.784 189.119C432.037 188.98 432.315 188.891 432.601 188.86C432.889 188.828 433.18 188.855 433.456 188.938C433.732 189.021 433.989 189.159 434.213 189.341C434.435 189.526 434.619 189.752 434.752 190.007C434.887 190.264 434.967 190.543 434.992 190.831C435.017 191.119 434.982 191.408 434.892 191.683C434.803 191.958 434.66 192.211 434.471 192.43C434.282 192.648 434.05 192.826 433.792 192.953C430.338 194.755 425.625 195.432 420.503 195.432Z" fill="#10B981"/>
<path d="M78.6121 211.714C78.3174 211.714 78.026 211.653 77.7557 211.535C62.3614 204.895 49.861 192.783 42.0819 183.791C33.6874 174.084 28.9601 166.039 28.7621 165.702C28.4727 165.206 28.392 164.615 28.5378 164.061C28.6837 163.505 29.0442 163.03 29.5398 162.741C30.0354 162.451 30.6258 162.371 31.1811 162.517C31.7363 162.663 32.2107 163.024 32.5003 163.518C32.6858 163.828 51.4099 195.454 79.4717 207.562C79.9296 207.759 80.3054 208.108 80.5358 208.55C80.766 208.993 80.8366 209.501 80.7356 209.989C80.6345 210.478 80.368 210.915 79.9811 211.229C79.5942 211.545 79.1107 211.716 78.6121 211.714Z" fill="#10B981"/>
<path d="M78.615 240.178C78.4718 240.177 78.3289 240.163 78.1885 240.135C46.367 233.771 27.0121 224.61 16.3792 218.047C4.63017 210.8 0.555198 205.021 0.388121 204.78C0.225813 204.546 0.110866 204.283 0.0500207 204.005C-0.0106598 203.729 -0.0162522 203.441 0.0339038 203.161C0.135038 202.596 0.456532 202.094 0.927669 201.767C1.39881 201.438 1.98094 201.311 2.54598 201.412C2.8257 201.463 3.09293 201.566 3.3322 201.721C3.57147 201.874 3.77834 202.073 3.94065 202.306C3.97781 202.362 7.87666 207.779 19.0166 214.587C29.328 220.894 48.1108 229.71 79.0387 235.893C79.5673 235.996 80.0385 236.292 80.36 236.725C80.6815 237.157 80.8303 237.693 80.7773 238.23C80.7245 238.766 80.4736 239.262 80.0737 239.624C79.6737 239.984 79.1538 240.183 78.615 240.182V240.178Z" fill="#10B981"/>
<path d="M358.116 251.13C357.662 251.129 357.221 250.987 356.853 250.722C356.486 250.458 356.21 250.084 356.065 249.655C356.035 249.561 352.899 240.193 350.5 229.425C347.233 214.646 346.889 204.313 349.477 198.72C358.084 180.116 358.879 134.551 347.535 107.896C343.577 98.6018 341.451 90.9501 339.74 84.7998C336.399 72.7821 335.103 69.3403 328.029 69.8024C323.7 70.0836 318.311 73.1258 314.947 77.1975C313.156 79.3616 311.132 82.8068 311.645 86.8965C311.813 88.2253 311.939 89.4191 312.063 90.5735C312.625 95.9098 312.99 99.4339 316.434 106.073C318.413 109.891 323.22 132.149 321.808 149.488C321.762 150.062 321.489 150.595 321.05 150.966C320.61 151.34 320.041 151.522 319.468 151.476C318.894 151.43 318.361 151.157 317.989 150.718C317.616 150.279 317.432 149.71 317.479 149.136C318.806 133.147 314.329 111.378 312.622 108.057C308.807 100.695 308.358 96.4262 307.787 91.0208C307.669 89.8894 307.545 88.7169 307.381 87.431C306.822 82.9794 308.308 78.4835 311.638 74.4463C315.769 69.4455 322.253 65.8475 327.779 65.4791C332.908 65.1453 336.435 66.6319 338.908 70.1576C341.072 73.2492 342.273 77.602 343.949 83.6339C345.624 89.6674 347.714 97.1645 351.558 106.206C356.922 118.804 360.119 136.937 360.332 155.951C360.54 174.109 357.964 190.777 353.447 200.54C349.025 210.088 356.817 238.239 360.193 248.279C360.303 248.604 360.332 248.951 360.281 249.292C360.23 249.631 360.099 249.953 359.898 250.232C359.698 250.51 359.434 250.739 359.129 250.895C358.823 251.051 358.484 251.134 358.14 251.132L358.116 251.13Z" fill="black"/>
<path d="M305.511 70.7725C305.022 70.7742 304.547 70.6097 304.162 70.3055C303.779 70.0029 303.51 69.5787 303.398 69.1018C303.286 68.6249 303.34 68.125 303.549 67.6826C303.758 67.2402 304.11 66.8818 304.549 66.6663C307.328 65.2817 310.39 64.5614 313.495 64.5647C315.35 64.5647 319.934 65.1107 322.179 66.3786C322.432 66.515 322.656 66.7009 322.835 66.9245C323.016 67.1498 323.151 67.4063 323.23 67.6826C323.31 67.9589 323.334 68.2499 323.301 68.5344C323.268 68.8206 323.177 69.0968 323.036 69.3468C322.894 69.5984 322.704 69.8171 322.477 69.9931C322.25 70.1707 321.99 70.2989 321.712 70.3746C321.434 70.4486 321.145 70.4667 320.859 70.4272C320.574 70.3894 320.299 70.294 320.051 70.1476C318.815 69.4553 315.203 68.8929 313.495 68.8929C311.056 68.8913 308.652 69.457 306.473 70.5473C306.174 70.6953 305.845 70.7725 305.511 70.7725Z" fill="black"/>
<path d="M290.283 264.462C290.165 264.462 290.047 264.452 289.928 264.434C289.366 264.34 288.863 264.026 288.529 263.564C288.195 263.1 288.058 262.525 288.147 261.961C288.21 261.579 294.284 223.837 283.51 207.754C275.023 195.099 267.264 188.828 261.453 184.778C261.214 184.612 260.884 184.398 260.494 184.145C257.291 182.058 251.329 178.177 250.841 173.604C250.405 169.522 252.053 164.75 255.138 161.144C256.702 159.304 258.628 157.807 260.795 156.745C262.962 155.683 265.327 155.079 267.738 154.972C271.033 154.813 276.291 155.063 282.619 157.164C290.42 159.759 297.8 164.471 304.57 171.165C309.417 175.673 315.509 180.696 317.511 181.575C321.892 179.192 320.803 173.818 320.754 173.583C320.647 173.028 320.762 172.454 321.071 171.984C321.382 171.512 321.864 171.18 322.416 171.06C322.967 170.938 323.543 171.039 324.023 171.336C324.501 171.634 324.845 172.107 324.98 172.655C325.707 175.898 325.352 182.811 318.797 185.771C317.152 186.516 315.087 185.867 308.353 180.271C304.883 177.386 301.721 174.443 301.587 174.319L301.538 174.272C287.143 159.991 273.257 159.047 267.955 159.305C266.13 159.371 264.339 159.817 262.696 160.616C261.055 161.413 259.598 162.548 258.419 163.943C256.118 166.63 254.832 170.234 255.138 173.129C255.408 175.655 261.014 179.312 262.851 180.496C263.286 180.78 263.653 181.022 263.923 181.208C270.045 185.474 278.21 192.071 287.111 205.324C298.861 222.829 292.702 261.03 292.436 262.646C292.352 263.156 292.089 263.618 291.694 263.952C291.301 264.284 290.8 264.465 290.283 264.462Z" fill="black"/>
</svg>
