<svg width="102" height="26" viewBox="0 0 102 26" fill="none" xmlns="http://www.w3.org/2000/svg">
<path d="M101.592 10.8219C101.864 10.7746 102.047 10.5157 101.999 10.2437L101.229 5.81009C101.182 5.53802 100.923 5.35579 100.651 5.40307C100.379 5.45034 100.196 5.70922 100.244 5.98128L100.929 9.92223L96.9876 10.607C96.7155 10.6543 96.5333 10.9132 96.5805 11.1852C96.6278 11.4573 96.8867 11.6395 97.1588 11.5922L101.592 10.8219ZM0.291677 24.6389L0.583336 25.045C0.844616 24.8573 1.11076 24.6682 1.38167 24.4777L1.09405 24.0687L0.806426 23.6597C0.532859 23.8521 0.264023 24.0431 1.93189e-05 24.2327L0.291677 24.6389ZM2.75156 22.9264L3.0315 23.3407C3.57414 22.974 4.13286 22.6034 4.70699 22.2296L4.43418 21.8105L4.16137 21.3915C3.58254 21.7684 3.01907 22.1422 2.47162 22.5121L2.75156 22.9264ZM6.11664 20.7341L6.3828 21.1574C6.93637 20.8093 7.50241 20.4592 8.08041 20.1078L7.82063 19.6805L7.56086 19.2533C6.97861 19.6074 6.40831 19.9601 5.85048 20.3109L6.11664 20.7341ZM9.5488 18.6469L9.80237 19.0778C10.3703 18.7437 10.9484 18.4088 11.5363 18.0739L11.2888 17.6394L11.0413 17.205C10.4493 17.5423 9.86716 17.8794 9.29524 18.2159L9.5488 18.6469ZM13.0336 16.6612L13.2751 17.0989C13.8543 16.7793 14.442 16.4601 15.038 16.1417L14.8023 15.7007L14.5667 15.2597C13.9668 15.5803 13.3751 15.9016 12.792 16.2234L13.0336 16.6612ZM16.5799 14.7661L16.8097 15.2101C17.3957 14.907 17.989 14.6049 18.5892 14.3045L18.3653 13.8574L18.1415 13.4103C17.5374 13.7127 16.9402 14.0168 16.3502 14.322L16.5799 14.7661ZM20.1731 12.9673L20.391 13.4173C20.9855 13.1295 21.5862 12.8435 22.1927 12.5598L21.9808 12.1069L21.7689 11.654C21.1584 11.9397 20.5537 12.2275 19.9552 12.5172L20.1731 12.9673ZM23.8059 11.268L24.0117 11.7237C24.617 11.4503 25.2276 11.1795 25.8433 10.9115L25.6437 10.4531L25.4441 9.99463C24.8243 10.2644 24.2095 10.5371 23.6002 10.8123L23.8059 11.268ZM27.4866 9.66584L27.6798 10.127C28.2939 9.86968 28.9125 9.61543 29.5354 9.36459L29.3487 8.90078L29.1619 8.43697C28.5346 8.68959 27.9116 8.94561 27.2933 9.2047L27.4866 9.66584ZM31.2119 8.1658L31.392 8.63221C32.0126 8.39252 32.637 8.15643 33.2652 7.92425L33.0918 7.45527L32.9185 6.98628C32.2857 7.22017 31.6567 7.45797 31.0317 7.69938L31.2119 8.1658ZM34.9793 6.77344L35.1457 7.24495C35.7727 7.02371 36.4031 6.80659 37.0366 6.59388L36.8774 6.11989L36.7182 5.6459C36.0799 5.86024 35.4447 6.07902 34.8129 6.30192L34.9793 6.77344ZM38.7869 5.49525L38.9386 5.97167C39.5721 5.76993 40.2084 5.57282 40.8473 5.38063L40.7033 4.90182L40.5592 4.42302C39.9151 4.61678 39.2737 4.81548 38.6351 5.01882L38.7869 5.49525ZM42.6326 4.33874L42.7686 4.81987C43.4085 4.63889 44.0507 4.46305 44.695 4.29265L44.5672 3.80927L44.4393 3.32589C43.7895 3.49777 43.1418 3.67511 42.4965 3.85762L42.6326 4.33874ZM46.5134 3.31276L46.6327 3.79832C47.2791 3.6395 47.9273 3.48638 48.5771 3.33923L48.4667 2.85158L48.3562 2.36392C47.7004 2.51244 47.0463 2.66696 46.3941 2.8272L46.5134 3.31276ZM50.4291 2.42651L50.5303 2.91616C51.1824 2.78137 51.8358 2.65284 52.4904 2.53083L52.3988 2.03929L52.3072 1.54776C51.6461 1.67098 50.9862 1.80078 50.3278 1.93686L50.4291 2.42651ZM54.3762 1.69128L54.4578 2.18457C55.1147 2.07585 55.7725 1.97395 56.4309 1.87915L56.3597 1.38425L56.2884 0.889354C55.6229 0.985176 54.9582 1.08815 54.2945 1.19799L54.3762 1.69128ZM58.3503 1.11965L58.4107 1.61599C59.0714 1.53555 59.7324 1.46251 60.3937 1.39716L60.3446 0.899584L60.2954 0.402007C59.6264 0.468115 58.9578 0.541984 58.2898 0.62332L58.3503 1.11965ZM62.3457 0.72547L62.3831 1.22407C63.0467 1.17425 63.7103 1.13246 64.3736 1.09897L64.3484 0.599603L64.3232 0.10024C63.6516 0.134147 62.9798 0.176457 62.3082 0.226872L62.3457 0.72547ZM66.3551 0.52373L66.3675 1.02357C67.0327 1.00696 67.6974 0.998998 68.3613 0.999982L68.3621 0.499982L68.3628 -1.67959e-05C67.6899 -0.00101485 67.0164 0.00705171 66.3426 0.0238863L66.3551 0.52373ZM70.3691 0.530379L70.3546 1.03017C71.0195 1.04944 71.6835 1.07802 72.3462 1.11619L72.3749 0.617019L72.4037 0.117847C71.7313 0.0791168 71.0579 0.0501323 70.3836 0.0305877L70.3691 0.530379ZM74.3763 0.761882L74.3327 1.25998C74.995 1.31785 75.6558 1.38567 76.3149 1.46373L76.3737 0.967201L76.4325 0.470671C75.7631 0.391385 75.0921 0.322525 74.4198 0.263781L74.3763 0.761882ZM78.3624 1.23466L78.2878 1.72907C78.9444 1.82809 79.5991 1.93768 80.2516 2.05813L80.3424 1.56644L80.4332 1.07474C79.7697 0.952272 79.1042 0.840879 78.4369 0.740252L78.3624 1.23466ZM82.3096 1.96399L82.2022 2.45232C82.8499 2.59474 83.4952 2.74831 84.1378 2.91333L84.2622 2.42903L84.3865 1.94475C83.7325 1.7768 83.0758 1.62054 82.4169 1.47566L82.3096 1.96399ZM86.1965 2.96264L86.0549 3.44217C86.6904 3.62983 87.323 3.82917 87.9526 4.04047L88.1117 3.56646L88.2708 3.09245C87.6295 2.87721 86.9852 2.6742 86.3381 2.48312L86.1965 2.96264ZM90.0005 4.23985L89.8238 4.70758C90.4436 4.94171 91.0601 5.18797 91.6731 5.44664L91.8674 4.98598L92.0618 4.52532C91.437 4.26165 90.8087 4.01069 90.1772 3.77211L90.0005 4.23985ZM93.6974 5.7999L93.4854 6.25275C94.0845 6.53315 94.68 6.82598 95.2716 7.13151L95.501 6.68726L95.7304 6.243C95.1272 5.93147 94.5201 5.63292 93.9093 5.34705L93.6974 5.7999ZM97.2629 7.64115L97.0164 8.07612C97.5905 8.40163 98.1608 8.73972 98.727 9.09065L98.9904 8.66566L99.2539 8.24068C98.6765 7.88285 98.095 7.53811 97.5095 7.20618L97.2629 7.64115ZM100.674 9.75541L100.395 10.1698C100.67 10.356 100.945 10.5454 101.219 10.7381L101.507 10.3293L101.795 9.92039C101.516 9.72398 101.235 9.53086 100.954 9.341L100.674 9.75541Z" fill="#0D1B2A"/>
</svg>
