<svg width="205" height="249" viewBox="0 0 205 249" fill="none" xmlns="http://www.w3.org/2000/svg">
<g clipPath="url(#clip0_163_814)">
<path d="M35.3289 177.064C31.4046 177.992 28.9782 181.988 29.92 185.971L44.1539 182.606C43.212 178.623 39.2532 176.137 35.3289 177.064Z" fill="#FAFAFA"/>
<path d="M36.8433 171.766C37.0997 170.185 36.0258 168.695 34.4447 168.439C32.8636 168.182 31.374 169.256 31.1176 170.837C30.8612 172.418 31.9351 173.908 33.5162 174.164C35.0973 174.421 36.5869 173.347 36.8433 171.766Z" fill="#FAFAFA"/>
<path d="M57.0954 176.861C57.0582 176.84 53.3254 174.635 49.0293 169.852C45.2563 165.652 40.294 158.577 37.5904 148.375L41.598 147.427C42.884 147.123 43.1886 145.426 42.0884 144.693L26.3335 134.209C25.9844 133.977 25.5545 133.899 25.1463 133.996C24.7382 134.092 24.3884 134.354 24.1803 134.718L14.7889 151.148C14.133 152.295 15.1656 153.677 16.4517 153.373L20.4592 152.425C22.6106 162.758 21.3422 171.306 19.8499 176.751C18.1507 182.952 15.8004 186.594 15.778 186.629C15.4375 187.147 15.4474 187.82 15.8031 188.328C16.1588 188.836 16.7883 189.076 17.3918 188.933L26.9735 186.668C26.3375 183.978 26.7799 181.188 28.2192 178.812C28.8487 177.773 29.6349 176.871 30.5427 176.13C29.4042 175.325 28.5421 174.12 28.1967 172.659C27.4447 169.479 29.4206 166.279 32.6014 165.527C35.7823 164.775 38.9819 166.751 39.734 169.932C40.0793 171.392 39.8482 172.856 39.1907 174.086C40.334 174.341 41.441 174.796 42.4693 175.443C44.8201 176.923 46.4651 179.219 47.101 181.909L56.6829 179.644C57.2856 179.501 57.7397 179.005 57.831 178.393C57.9222 177.78 57.6304 177.174 57.0954 176.861Z" fill="#FAFAFA"/>
</g>
<path fillRule="evenodd" clipRule="evenodd" d="M186.18 85.3153L188.621 87.1427C189.289 87.6424 189.992 87.8982 190.824 87.9446L193.869 88.1139C195.692 88.2153 197.173 89.4577 197.589 91.2356L198.285 94.2047C198.475 95.0167 198.849 95.6643 199.457 96.2351L201.681 98.322C203.012 99.5715 203.348 101.475 202.524 103.105L201.148 105.826C200.772 106.57 200.642 107.307 200.741 108.135L201.103 111.163C201.32 112.976 200.353 114.65 198.675 115.369L195.872 116.569C195.105 116.898 194.532 117.378 194.076 118.076L192.407 120.628C191.407 122.156 189.591 122.817 187.843 122.289L184.924 121.407C184.126 121.166 183.378 121.166 182.58 121.407L179.661 122.289C177.913 122.817 176.097 122.156 175.097 120.628L173.428 118.076C172.972 117.378 172.399 116.898 171.632 116.569L168.829 115.369C167.15 114.65 166.184 112.976 166.401 111.163L166.763 108.135C166.862 107.307 166.732 106.57 166.355 105.826L164.98 103.104C164.156 101.475 164.492 99.5714 165.823 98.3218L168.047 96.2349C168.655 95.6642 169.029 95.0165 169.219 94.2045L169.914 91.2355C170.331 89.4577 171.811 88.2152 173.635 88.1138L176.679 87.9444C177.512 87.8981 178.215 87.6423 178.882 87.1425L181.324 85.3151C182.785 84.2211 184.718 84.2211 186.18 85.3153ZM182.195 104.528L179.545 101.878C178.859 101.192 177.745 101.192 177.058 101.878C176.372 102.565 176.372 103.679 177.058 104.365L180.955 108.262C181.642 108.949 182.755 108.949 183.442 108.262C185.791 105.913 188.113 103.538 190.451 101.179C191.132 100.49 191.13 99.3803 190.443 98.697C189.756 98.0135 188.642 98.0154 187.96 98.7047L182.195 104.528ZM183.752 90.3853C180.135 90.3853 176.861 91.8512 174.491 94.2212C172.121 96.5913 170.655 99.8653 170.655 103.482C170.655 107.098 172.121 110.372 174.491 112.742C176.861 115.112 180.135 116.578 183.752 116.578C187.368 116.578 190.642 115.112 193.012 112.742C195.382 110.372 196.848 107.098 196.848 103.482C196.848 99.8653 195.382 96.5912 193.012 94.2212C190.642 91.8512 187.368 90.3853 183.752 90.3853ZM192.106 95.1271C189.968 92.989 187.015 91.6665 183.752 91.6665C180.489 91.6665 177.535 92.989 175.397 95.1271C173.259 97.2652 171.937 100.219 171.937 103.482C171.937 106.744 173.259 109.698 175.397 111.836C177.535 113.974 180.489 115.297 183.752 115.297C187.015 115.297 189.968 113.974 192.106 111.836C194.245 109.698 195.567 106.745 195.567 103.482C195.567 100.219 194.245 97.2652 192.106 95.1271Z" fill="#FAFAFA"/>
<g clipPath="url(#clip1_163_814)">
<path d="M133.755 234.513C133.325 234.449 132.817 234.426 132.428 234.438C132.183 233.79 131.743 233.148 131.226 232.546C130.313 231.571 129.131 230.837 127.757 230.301C127.306 231.318 127.483 232.586 128.242 233.643C127.419 233.398 126.596 233.154 125.85 232.868C125.878 232.173 125.67 231.408 125.308 230.724C124.781 229.544 123.945 228.529 122.8 227.677C121.996 228.589 121.901 229.904 122.351 231.125C121.642 230.723 120.97 230.204 120.339 229.76C120.561 229.059 120.626 228.246 120.495 227.44C120.318 226.172 119.791 224.992 118.915 223.901C117.913 224.627 117.388 225.878 117.529 227.263C116.894 226.626 116.377 226.025 115.897 225.307C116.354 224.675 116.614 223.857 116.678 223.044C116.813 221.805 116.673 220.421 116.106 219.165C114.866 219.628 114.029 220.85 113.897 222.282C113.494 221.523 113.128 220.647 112.803 219.847C113.418 219.326 113.913 218.577 114.289 217.794C114.777 216.659 114.949 215.304 114.809 213.919C113.485 214.037 112.332 215.038 111.811 216.482C111.64 215.6 111.429 214.642 111.335 213.718C112.149 213.384 112.801 212.747 113.336 212.074C114.099 211.085 114.624 209.834 114.833 208.361C113.503 208.094 112.111 208.832 111.237 210.171C111.298 209.166 111.4 208.237 111.578 207.267C112.435 207.201 113.285 206.75 114.055 206.147C115.094 205.305 116.012 204.234 116.651 202.825C115.432 202.207 113.839 202.566 112.572 203.724C113.13 202.163 113.807 200.637 114.795 199.14C115.061 198.707 114.974 198.17 114.541 197.913C114.108 197.657 113.486 197.792 113.22 198.224C112.195 199.839 111.404 201.522 110.808 203.2C110.621 201.354 109.974 199.946 108.714 199.253C107.806 200.902 107.606 202.953 108.059 204.367C108.351 205.477 108.948 206.23 109.774 206.667C109.559 207.754 109.461 208.876 109.399 209.881C108.708 208.205 107.597 207.044 106.267 206.776C105.95 208.793 106.372 210.709 107.211 211.918C107.812 212.864 108.601 213.418 109.501 213.621C109.598 214.737 109.732 215.736 109.983 216.77C108.868 215.416 107.528 214.57 106.087 214.654C106.354 216.652 107.24 218.322 108.348 219.291C109.218 219.997 110.081 220.317 111.056 220.287C111.384 221.28 111.868 222.191 112.351 223.102C110.93 222.105 109.442 221.727 108.125 222.231C108.896 224.059 110.206 225.407 111.542 226.06C112.486 226.532 113.501 226.578 114.354 226.32C114.915 227.19 115.59 227.902 116.187 228.655C114.619 228.125 113.137 228.133 111.981 228.941C113.216 230.523 114.831 231.514 116.316 231.699C117.334 231.938 118.305 231.714 118.961 231.27C119.673 231.865 120.502 232.495 121.251 232.973C119.655 233.139 118.257 233.491 117.416 234.521C119.035 235.705 120.916 236.264 122.435 236.139C123.486 236.068 124.259 235.658 124.875 235.137C125.778 235.533 126.641 235.853 127.582 236.133C126.107 236.526 124.987 237.217 124.5 238.351C126.461 239.062 128.527 239.036 130.04 238.526C130.97 238.227 131.663 237.665 132.12 237.033C132.55 237.097 133.058 237.12 133.488 237.183C134.307 237.235 134.96 236.597 134.947 235.826C134.974 235.13 134.457 234.529 133.755 234.513Z" fill="#FAFAFA"/>
<path d="M158.238 206.351C158.027 205.393 157.699 204.4 157.333 203.524C158.026 202.962 158.48 202.138 158.695 201.051C158.905 199.578 158.523 197.737 157.442 196.073C156.286 196.881 155.804 198.401 155.793 200.061C155.31 199.15 154.75 198.28 154.189 197.41C154.724 196.737 154.98 195.726 154.883 194.61C154.703 193.149 153.894 191.438 152.312 190.136C151.435 191.283 151.383 192.867 151.879 194.549C151.164 193.761 150.372 193.014 149.542 192.384C149.879 191.524 149.863 190.56 149.417 189.532C148.887 188.16 147.537 186.735 145.69 185.867C145.088 187.159 145.543 188.765 146.503 190.202C145.442 189.695 144.498 189.223 143.477 188.791C143.619 187.938 143.29 186.945 142.535 186.081C141.618 184.913 139.808 183.928 137.618 183.533C137.446 184.889 138.288 186.291 139.712 187.481C137.989 187.033 136.151 186.743 134.239 186.687C133.732 186.664 133.271 187.103 133.241 187.606C133.21 188.108 133.607 188.482 134.114 188.505C135.831 188.567 137.551 188.822 139.156 189.235C137.486 189.634 136.296 190.752 136.124 192.108C137.649 192.369 139.05 192.209 140.331 191.822C141.261 191.523 142.112 191.072 142.646 190.399C143.55 190.796 144.494 191.268 145.242 191.746C143.643 191.719 142.252 192.457 141.727 193.708C143.023 194.285 144.394 194.628 145.64 194.551C146.615 194.52 147.468 194.262 148.124 193.817C148.836 194.412 149.47 195.049 150.145 195.761C148.657 195.383 147.182 195.776 146.341 196.805C147.409 197.698 148.628 198.316 149.841 198.548C150.741 198.752 151.598 198.687 152.374 198.469C152.854 199.188 153.374 199.982 153.777 200.741C152.518 200.047 151.036 200.055 149.957 200.822C150.756 201.954 151.746 202.888 152.848 203.471C153.557 203.873 154.38 204.118 155.159 204.094C155.407 204.935 155.615 205.7 155.863 206.541C154.795 205.648 153.502 205.264 152.302 205.803C152.715 207.141 153.513 208.274 154.346 209.097C154.94 209.657 155.572 210.1 156.354 210.269C156.408 211.116 156.421 211.888 156.356 212.7C155.598 211.643 154.456 210.984 153.249 211.138C153.312 212.563 153.684 213.825 154.366 214.923C154.728 215.606 155.245 216.208 155.836 216.575C155.654 217.352 155.395 218.171 155.136 218.989C154.686 217.768 153.814 216.87 152.641 216.713C152.314 218.151 152.26 219.542 152.554 220.845C152.762 221.61 153.047 222.334 153.447 222.901C153.258 223.293 153.07 223.684 152.764 224.041C152.384 224.632 152.592 225.397 153.106 225.805C153.737 226.249 154.631 226.067 155.048 225.359C155.313 224.926 155.502 224.535 155.69 224.143C156.47 224.118 157.323 223.86 158.093 223.257C159.364 222.292 160.544 220.596 161.056 218.573C159.843 218.341 158.644 218.88 157.49 219.881C157.787 218.945 158.006 218.051 158.184 217.081C158.961 216.863 159.693 216.377 160.383 215.623C161.338 214.435 161.97 212.641 161.857 210.56C160.534 210.679 159.458 211.639 158.661 212.937C158.645 211.973 158.628 211.008 158.535 210.085C159.308 209.675 159.96 209.037 160.374 208.137C160.936 206.769 161.139 204.91 160.522 203C159.517 203.533 158.72 204.831 158.238 206.351Z" fill="#FAFAFA"/>
<path d="M150.348 219.486L143.852 211.161L147.192 201.024C147.303 200.673 147.219 200.328 147.021 200.141C146.783 199.879 146.47 199.85 146.121 199.938L135.965 203.573L127.362 197.436C127.086 197.29 126.734 197.186 126.424 197.35C126.115 197.514 125.964 197.788 125.97 198.174L126.226 208.739L117.52 215.108C117.251 215.348 117.099 215.622 117.183 215.967C117.267 216.312 117.505 216.575 117.818 216.603L128.083 219.525L131.332 229.572C131.416 229.916 131.732 230.138 132.044 230.167C132.357 230.196 132.706 230.108 132.935 229.792L138.948 220.961L149.669 220.819C149.786 220.854 149.941 220.772 150.095 220.69C150.25 220.608 150.364 220.45 150.479 220.292C150.553 220.058 150.586 219.749 150.348 219.486Z" fill="#FAFAFA"/>
</g>
<g clipPath="url(#clip2_163_814)">
<path d="M92.4374 14.6882C93.2418 15.2843 93.8808 16.1164 94.2225 17.1326L102.86 42.817C103.75 45.4657 102.312 48.3615 99.6634 49.2523L64.3473 61.1284C61.6986 62.0191 58.8028 60.5807 57.912 57.932L49.2749 32.2477C48.9332 31.2315 48.9395 30.1823 49.2202 29.2213L59.1367 37.265C60.4838 38.3057 62.2514 38.6047 63.8647 38.0622L68.8635 36.3812C70.1548 38.0214 72.3736 38.7744 74.4636 38.0716L77.6742 36.9919C79.7642 36.2891 81.0771 34.3485 81.115 32.2613L86.1138 30.5802C87.7271 30.0377 88.9549 28.7314 89.41 27.0507L92.4412 14.6887L92.4374 14.6882ZM72.3027 31.651C71.4182 31.9485 70.9398 32.9116 71.2373 33.7961C71.5347 34.6806 72.4979 35.159 73.3824 34.8616L76.5929 33.7819C77.4774 33.4845 77.9558 32.5213 77.6584 31.6368C77.3609 30.7523 76.3978 30.2739 75.5133 30.5714L72.3027 31.651ZM51.209 26.4745C51.5939 26.2057 52.0057 25.9689 52.4712 25.8124L60.4976 23.1132L59.9578 21.508C59.067 18.8593 60.5054 15.9634 63.1541 15.0727L72.7857 11.8337C75.4344 10.943 78.3303 12.3814 79.221 15.0301L79.7609 16.6354L87.7872 13.9362C88.2528 13.7797 88.7239 13.7195 89.193 13.7011L86.1279 26.2068C85.9799 26.755 85.5703 27.1894 85.0325 27.3702L80.0337 29.0512C78.7424 27.411 76.5237 26.658 74.4336 27.3608L71.2231 28.4405C69.133 29.1433 67.8201 31.084 67.7823 33.1712L62.7834 34.8522C62.2457 35.033 61.6563 34.9328 61.2388 34.6105L51.209 26.4745ZM63.7081 22.0336L76.5503 17.715L76.0105 16.1097C75.7136 15.2268 74.7483 14.7474 73.8654 15.0443L64.2338 18.2832C63.3509 18.5801 62.8714 19.5454 63.1683 20.4283L63.7081 22.0336Z" fill="#FAFAFA"/>
</g>
<defs>
<clipPath id="clip0_163_814">
<rect width="51.6792" height="51.6792" fill="white" transform="translate(0 139.941) rotate(-13.3024)"/>
</clipPath>
<clipPath id="clip1_163_814">
<rect width="56" height="55" fill="white" transform="translate(96.252 200.22) rotate(-27.9411)"/>
</clipPath>
<clipPath id="clip2_163_814">
<rect width="54.1955" height="54.1955" fill="white" transform="translate(40.666 17.2744) rotate(-18.5868)"/>
</clipPath>
</defs>
</svg>
