<svg width="237" height="283" viewBox="0 0 237 283" fill="none" xmlns="http://www.w3.org/2000/svg">
<path d="M231.647 158.908C230.715 158.773 229.826 158.429 229.045 157.902C228.265 157.375 227.613 156.679 227.139 155.866C226.664 155.053 226.38 154.143 226.306 153.204C226.232 152.265 226.371 151.322 226.712 150.444C226.929 149.87 226.961 149.243 226.804 148.65C226.646 148.058 226.307 147.529 225.834 147.138C223.745 145.384 221.368 144.007 218.807 143.066C218.224 142.85 217.588 142.823 216.989 142.989C216.389 143.155 215.858 143.506 215.47 143.992C214.886 144.739 214.139 145.343 213.287 145.759C212.435 146.174 211.499 146.39 210.551 146.39C209.603 146.39 208.667 146.174 207.815 145.759C206.963 145.343 206.217 144.739 205.633 143.992C205.245 143.506 204.713 143.155 204.114 142.989C203.514 142.823 202.878 142.85 202.295 143.066C199.931 143.934 197.721 145.174 195.747 146.739C195.25 147.133 194.892 147.676 194.725 148.288C194.558 148.9 194.592 149.549 194.821 150.141C195.19 151.042 195.342 152.016 195.266 152.987C195.19 153.957 194.887 154.896 194.382 155.728C193.878 156.56 193.185 157.263 192.36 157.779C191.535 158.295 190.6 158.611 189.631 158.7C189.002 158.768 188.411 159.035 187.945 159.464C187.479 159.892 187.164 160.459 187.044 161.08C186.747 162.552 186.597 164.05 186.597 165.551C186.595 166.809 186.696 168.064 186.9 169.304C187.002 169.946 187.312 170.535 187.782 170.983C188.253 171.43 188.858 171.71 189.503 171.779C190.494 171.872 191.447 172.201 192.285 172.738C193.122 173.276 193.818 174.006 194.316 174.867C194.813 175.729 195.096 176.697 195.143 177.691C195.189 178.684 194.997 179.675 194.582 180.579C194.31 181.167 194.243 181.829 194.39 182.459C194.538 183.09 194.892 183.654 195.396 184.06C197.472 185.782 199.827 187.138 202.359 188.068C202.683 188.181 203.022 188.24 203.365 188.244C203.835 188.243 204.297 188.129 204.714 187.913C205.131 187.696 205.49 187.382 205.76 186.998C206.329 186.169 207.092 185.491 207.983 185.024C208.874 184.556 209.865 184.313 210.871 184.316C211.845 184.317 212.806 184.546 213.676 184.984C214.547 185.422 215.303 186.057 215.885 186.839C216.272 187.359 216.82 187.737 217.444 187.913C218.068 188.089 218.733 188.054 219.334 187.813C221.649 186.881 223.805 185.593 225.722 183.996C226.204 183.598 226.547 183.057 226.702 182.452C226.857 181.846 226.816 181.207 226.585 180.627C226.209 179.737 226.045 178.773 226.106 177.81C226.167 176.846 226.451 175.91 226.936 175.076C227.421 174.241 228.093 173.53 228.899 173C229.706 172.469 230.625 172.134 231.583 172.019C232.205 171.933 232.783 171.652 233.233 171.215C233.684 170.779 233.984 170.21 234.09 169.592C234.347 168.26 234.486 166.908 234.505 165.551C234.506 164.121 234.372 162.693 234.106 161.288C233.998 160.683 233.703 160.127 233.261 159.7C232.82 159.273 232.255 158.996 231.647 158.908ZM218.536 165.551C218.536 167.131 218.068 168.674 217.19 169.987C216.313 171.301 215.066 172.324 213.607 172.928C212.148 173.533 210.542 173.691 208.993 173.383C207.445 173.075 206.022 172.314 204.905 171.197C203.788 170.081 203.028 168.658 202.72 167.109C202.412 165.56 202.57 163.955 203.174 162.496C203.779 161.037 204.802 159.79 206.115 158.912C207.428 158.035 208.972 157.567 210.551 157.567C212.669 157.567 214.7 158.408 216.197 159.905C217.695 161.403 218.536 163.434 218.536 165.551Z" fill="#FAFAFA"/>
<g clipPath="url(#clip0_163_829)">
<path d="M84.8082 122.771C84.8193 122.67 84.8377 122.326 84.61 122.139L58.3081 100.522C57.5728 99.9173 56.3891 99.3893 55.4878 99.5614L21.354 106.075C21.3333 106.079 21.2338 106.17 21.1806 106.385C21.1162 106.644 21.1545 106.99 21.3521 107.148L24.6967 109.823C23.4747 113.841 21.8797 121.132 20.8247 125.177C18.7997 125.084 16.9121 126.418 16.3869 128.457C15.9206 130.268 16.6634 132.11 18.1082 133.128C18.077 133.26 18.0447 133.392 18.0155 133.523C17.9961 133.568 17.9794 133.616 17.9658 133.665C16.1889 140.12 12.2356 144.917 7.64866 146.186C6.86342 146.403 6.5571 147.356 7.07055 147.99L11.6201 153.607C11.9662 154.034 12.5618 154.146 13.0361 153.891C18.672 150.863 19.0097 146.045 19.3673 140.943C19.525 138.691 19.6877 136.372 20.25 133.908C22.3401 134.089 24.322 132.738 24.8622 130.64C25.345 128.766 24.5319 126.858 22.9858 125.865C23.983 122.061 25.4451 115.417 26.6074 111.351C49.0474 129.918 47.6074 128.727 47.6681 128.777C48.5217 129.479 49.7074 129.883 50.4847 129.735L84.6195 123.221C84.6571 123.201 84.7791 123.037 84.8082 122.771Z" fill="#FAFAFA"/>
<path d="M46.2268 130.524L31.3849 118.24L28.2754 130.312C27.0049 135.245 34.9611 141.738 45.6494 144.491C56.3381 147.244 66.4415 145.403 67.712 140.47L70.886 128.147L50.9087 131.959C49.3236 132.261 47.4818 131.556 46.2268 130.524Z" fill="#FAFAFA"/>
</g>
<rect x="-0.437576" y="0.232236" width="42.2872" height="42.2872" rx="3.85319" transform="matrix(-0.956082 -0.2931 -0.2931 0.956082 111.388 238.832)" fill="#FAFAFA" stroke="white" strokeWidth="0.700581"/>
<g clipPath="url(#clip1_163_829)">
<path d="M97.1536 245.745L94.6975 248.201C94.544 248.355 94.3357 248.441 94.1186 248.441H91.1828L85.6917 253.932C85.5318 254.092 85.3223 254.172 85.1128 254.172C84.9033 254.172 84.6939 254.092 84.534 253.932C84.2142 253.612 84.2142 253.094 84.534 252.774L90.0251 247.283V244.347C90.0251 244.13 90.1114 243.922 90.2649 243.769L92.7211 241.312C92.9557 241.078 93.3067 241.008 93.6133 241.135C93.9192 241.262 94.1186 241.56 94.1186 241.891V244.347H96.5748C96.9058 244.347 97.2044 244.547 97.3311 244.853C97.4578 245.159 97.3879 245.511 97.1536 245.745ZM90.508 251.429L86.8486 255.089C86.3817 255.555 85.7676 255.809 85.1128 255.809C84.458 255.809 83.844 255.555 83.3771 255.089C82.4192 254.131 82.4192 252.575 83.3771 251.617L87.0369 247.958C86.4392 247.737 85.7924 247.622 85.1128 247.622C81.9527 247.622 79.3819 250.193 79.3819 253.353C79.3819 256.513 81.9527 259.084 85.1128 259.084C88.2729 259.084 90.8438 256.513 90.8438 253.353C90.8438 252.674 90.7291 252.027 90.508 251.429ZM97.3935 253.353C97.3935 260.124 91.8836 265.634 85.1128 265.634C78.3421 265.634 72.8322 260.124 72.8322 253.353C72.8322 246.582 78.3421 241.073 85.1128 241.073C86.7095 241.073 88.2729 241.384 89.7305 241.99L89.108 242.612C88.6415 243.079 88.3877 243.693 88.3877 244.347V246.607L88.2893 246.705C87.3235 246.247 86.2509 245.985 85.1128 245.985C81.0521 245.985 77.7444 249.292 77.7444 253.353C77.7444 257.414 81.0521 260.722 85.1128 260.722C89.1736 260.722 92.4812 257.414 92.4812 253.353C92.4812 252.215 92.2194 251.143 91.7608 250.177L91.8592 250.078H94.1186C94.7734 250.078 95.3875 249.825 95.8544 249.358L96.4764 248.736C97.0825 250.193 97.3935 251.757 97.3935 253.353Z" fill="black"/>
</g>
<rect x="-0.437576" y="0.232236" width="46.2383" height="46.2383" rx="3.85319" transform="matrix(-0.956082 -0.2931 -0.2931 0.956082 113.847 237.64)" stroke="white" strokeWidth="0.700581"/>
<rect x="-0.437576" y="0.232236" width="42.2872" height="42.2872" rx="3.85319" transform="matrix(-0.956082 -0.2931 -0.2931 0.956082 181.389 14.8317)" fill="#FAFAFA" stroke="white" strokeWidth="0.700581"/>
<g clipPath="url(#clip2_163_829)">
<path d="M164.723 22.0029L160.901 20.8312L159.729 24.6533L163.551 25.825L164.723 22.0029Z" fill="#0D1B2A"/>
<path d="M151.571 20.1294L146.127 18.4604L155.133 13.6807L153.464 19.1249C153.219 19.9237 152.37 20.3743 151.571 20.1294Z" fill="#0D1B2A"/>
<path d="M151.041 21.8559C152.792 22.3927 154.654 21.4049 155.19 19.6539L157.014 13.7039L168.636 17.2667C170.387 17.8035 171.375 19.6648 170.838 21.4158L163.75 44.5365C163.213 46.2874 161.352 47.2753 159.601 46.7385L142.029 41.3516C140.278 40.8148 139.291 38.9536 139.827 37.2026L145.091 20.0319L151.041 21.8559ZM166.713 21.6689C166.86 21.1921 166.592 20.687 166.115 20.5408L160.566 18.8397C160.089 18.6935 159.584 18.9616 159.438 19.4384L157.737 24.9874C157.59 25.4642 157.859 25.9693 158.335 26.1155L163.884 27.8166C164.361 27.9628 164.866 27.6947 165.012 27.2178L166.713 21.6689ZM163.28 29.7891L152.182 26.3869C151.705 26.2407 151.2 26.5088 151.054 26.9856C150.907 27.4625 151.175 27.9675 151.652 28.1137L162.75 31.516C163.227 31.6622 163.732 31.3941 163.878 30.9172C164.024 30.4403 163.756 29.9353 163.28 29.7891ZM144.551 38.0775L159.348 42.6138C159.825 42.76 160.33 42.4919 160.476 42.0151C160.622 41.5382 160.354 41.0331 159.877 40.8869L145.08 36.3507C144.603 36.2045 144.098 36.4725 143.952 36.9494C143.806 37.4263 144.074 37.9313 144.551 38.0775ZM145.685 34.3783L160.482 38.9146C160.959 39.0608 161.464 38.7927 161.61 38.3158C161.756 37.839 161.488 37.3339 161.011 37.1877L146.214 32.6514C145.737 32.5053 145.232 32.7733 145.086 33.2502C144.94 33.727 145.208 34.2321 145.685 34.3783ZM146.819 30.6789L161.616 35.2152C162.093 35.3614 162.598 35.0933 162.744 34.6164C162.89 34.1396 162.622 33.6345 162.146 33.4883L147.348 28.952C146.871 28.8059 146.366 29.0739 146.22 29.5508C146.074 30.0276 146.342 30.5327 146.819 30.6789Z" fill="#0D1B2A"/>
</g>
<rect x="-0.437576" y="0.232236" width="46.2383" height="46.2383" rx="3.85319" transform="matrix(-0.956082 -0.2931 -0.2931 0.956082 183.847 13.6398)" stroke="white" strokeWidth="0.700581"/>
<defs>
<clipPath id="clip0_163_829">
<rect width="77.3103" height="77.3103" fill="white" transform="translate(19.2833 83) rotate(14.4437)"/>
</clipPath>
<clipPath id="clip1_163_829">
<rect width="26.1987" height="26.1987" fill="white" transform="translate(72.0138 240.254)"/>
</clipPath>
<clipPath id="clip2_163_829">
<rect width="30.8256" height="30.8256" fill="white" transform="matrix(-0.956082 -0.2931 -0.2931 0.956082 174.587 19.0908)"/>
</clipPath>
</defs>
</svg>
