<svg width="313" height="319" viewBox="0 0 313 319" fill="none" xmlns="http://www.w3.org/2000/svg">
<rect x="56.1367" y="27.4685" width="224.486" height="217.601" rx="16.4674" transform="rotate(4.2515 56.1367 27.4685)" fill="url(#paint0_linear_163_316)" fill-opacity="0.9"/>
<g filter="url(#filter0_d_163_316)">
<path opacity="0.7" d="M54.3769 122.065L151.836 194.977C152.941 195.929 154.291 196.459 155.673 196.563C157.055 196.668 158.469 196.347 159.704 195.572L267.026 138.157L170.623 51.998C168.391 50.0513 165.148 49.8059 162.648 51.3945L54.3769 122.065Z" fill="#B2F2BB"/>
<rect x="75.252" y="41.2848" width="190.326" height="210.391" rx="9.74562" transform="rotate(4.32752 75.252 41.2848)" fill="white"/>
<rect x="87.5781" y="53.1407" width="40.129" height="9.17235" rx="1.71982" transform="rotate(4.32752 87.5781 53.1407)" fill="#E2E8F0"/>
<rect x="237.919" y="64.5176" width="17.1982" height="9.17235" rx="1.71982" transform="rotate(4.32752 237.919 64.5176)" fill="#E2E8F0"/>
<rect x="86.7139" y="64.5735" width="29.8101" height="2.29309" rx="1.14654" transform="rotate(4.32752 86.7139 64.5735)" fill="#E2E8F0"/>
<rect x="86.4111" y="68.5748" width="14.9051" height="1.14654" rx="0.573272" transform="rotate(4.32752 86.4111 68.5748)" fill="#E2E8F0"/>
<rect x="102.417" y="69.786" width="13.1853" height="1.14654" rx="0.573272" transform="rotate(4.32752 102.417 69.786)" fill="#E2E8F0"/>
<rect x="86.1953" y="71.4331" width="14.9051" height="1.14654" rx="0.573272" transform="rotate(4.32752 86.1953 71.4331)" fill="#E2E8F0"/>
<rect x="85.459" y="81.1511" width="29.8101" height="2.29309" rx="1.14654" transform="rotate(4.32752 85.459 81.1511)" fill="#E2E8F0"/>
<rect x="85.1562" y="85.1526" width="14.9051" height="1.14654" rx="0.573272" transform="rotate(4.32752 85.1562 85.1526)" fill="#E2E8F0"/>
<rect x="84.9395" y="88.0107" width="51.0212" height="1.14654" rx="0.573272" transform="rotate(4.32752 84.9395 88.0107)" fill="#E2E8F0"/>
<rect x="139.816" y="92.1636" width="51.0212" height="1.14654" rx="0.573272" transform="rotate(4.32752 139.816 92.1636)" fill="#E2E8F0"/>
<rect x="84.5498" y="93.1555" width="51.0212" height="1.14654" rx="0.573272" transform="rotate(4.32752 84.5498 93.1555)" fill="#E2E8F0"/>
<rect x="139.428" y="97.3081" width="51.0212" height="1.14654" rx="0.573272" transform="rotate(4.32752 139.428 97.3081)" fill="#E2E8F0"/>
<rect x="194.305" y="101.461" width="25.7972" height="1.14654" rx="0.573272" transform="rotate(4.32752 194.305 101.461)" fill="#E2E8F0"/>
<rect x="84.1611" y="98.3003" width="41.8489" height="1.14654" rx="0.573272" transform="rotate(4.32752 84.1611 98.3003)" fill="#E2E8F0"/>
<rect x="129.892" y="101.761" width="31.53" height="1.14654" rx="0.573272" transform="rotate(4.32752 129.892 101.761)" fill="#E2E8F0"/>
<rect x="165.333" y="104.443" width="51.0212" height="1.14654" rx="0.573272" transform="rotate(4.32752 165.333 104.443)" fill="#E2E8F0"/>
<rect x="83.7715" y="103.445" width="51.0212" height="1.14654" rx="0.573272" transform="rotate(4.32752 83.7715 103.445)" fill="#E2E8F0"/>
<rect x="138.648" y="107.598" width="51.0212" height="1.14654" rx="0.573272" transform="rotate(4.32752 138.648 107.598)" fill="#E2E8F0"/>
<rect x="83.3818" y="108.59" width="51.0212" height="1.14654" rx="0.573272" transform="rotate(4.32752 83.3818 108.59)" fill="#E2E8F0"/>
<rect x="138.259" y="112.742" width="51.0212" height="1.14654" rx="0.573272" transform="rotate(4.32752 138.259 112.742)" fill="#E2E8F0"/>
<rect x="82.9932" y="113.735" width="51.0212" height="1.14654" rx="0.573272" transform="rotate(4.32752 82.9932 113.735)" fill="#E2E8F0"/>
<rect x="137.87" y="117.887" width="51.0212" height="1.14654" rx="0.573272" transform="rotate(4.32752 137.87 117.887)" fill="#E2E8F0"/>
<rect x="192.747" y="122.04" width="25.7972" height="1.14654" rx="0.573272" transform="rotate(4.32752 192.747 122.04)" fill="#E2E8F0"/>
<rect x="82.6035" y="118.879" width="51.0212" height="1.14654" rx="0.573272" transform="rotate(4.32752 82.6035 118.879)" fill="#E2E8F0"/>
<rect x="137.48" y="123.032" width="41.8489" height="1.14654" rx="0.573272" transform="rotate(4.32752 137.48 123.032)" fill="#E2E8F0"/>
<rect x="183.212" y="126.493" width="51.0212" height="1.14654" rx="0.573272" transform="rotate(4.32752 183.212 126.493)" fill="#E2E8F0"/>
<rect x="82.2139" y="124.024" width="51.0212" height="1.14654" rx="0.573272" transform="rotate(4.32752 82.2139 124.024)" fill="#E2E8F0"/>
<rect x="137.092" y="128.177" width="51.0212" height="1.14654" rx="0.573272" transform="rotate(4.32752 137.092 128.177)" fill="#E2E8F0"/>
<rect x="81.8252" y="129.169" width="51.0212" height="1.14654" rx="0.573272" transform="rotate(4.32752 81.8252 129.169)" fill="#E2E8F0"/>
<rect x="136.702" y="133.322" width="51.0212" height="1.14654" rx="0.573272" transform="rotate(4.32752 136.702 133.322)" fill="#E2E8F0"/>
<rect x="81.4355" y="134.313" width="51.0212" height="1.14654" rx="0.573272" transform="rotate(4.32752 81.4355 134.313)" fill="#E2E8F0"/>
<rect x="136.312" y="138.466" width="31.53" height="1.14654" rx="0.573272" transform="rotate(4.32752 136.312 138.466)" fill="#E2E8F0"/>
<rect x="171.754" y="141.148" width="51.0212" height="1.14654" rx="0.573272" transform="rotate(4.32752 171.754 141.148)" fill="#E2E8F0"/>
<rect x="81.0459" y="139.458" width="51.0212" height="1.14654" rx="0.573272" transform="rotate(4.32752 81.0459 139.458)" fill="#E2E8F0"/>
<rect x="135.924" y="143.611" width="51.0212" height="1.14654" rx="0.573272" transform="rotate(4.32752 135.924 143.611)" fill="#E2E8F0"/>
<rect x="190.801" y="147.764" width="25.7972" height="1.14654" rx="0.573272" transform="rotate(4.32752 190.801 147.764)" fill="#E2E8F0"/>
<rect x="80.6562" y="144.603" width="51.0212" height="1.14654" rx="0.573272" transform="rotate(4.32752 80.6562 144.603)" fill="#E2E8F0"/>
<rect x="135.534" y="148.756" width="51.0212" height="1.14654" rx="0.573272" transform="rotate(4.32752 135.534 148.756)" fill="#E2E8F0"/>
<rect x="80.2676" y="149.748" width="51.0212" height="1.14654" rx="0.573272" transform="rotate(4.32752 80.2676 149.748)" fill="#E2E8F0"/>
<rect x="135.145" y="153.9" width="31.53" height="1.14654" rx="0.573272" transform="rotate(4.32752 135.145 153.9)" fill="#E2E8F0"/>
<rect x="170.587" y="156.582" width="51.0212" height="1.14654" rx="0.573272" transform="rotate(4.32752 170.587 156.582)" fill="#E2E8F0"/>
<rect x="79.8789" y="154.892" width="51.0212" height="1.14654" rx="0.573272" transform="rotate(4.32752 79.8789 154.892)" fill="#E2E8F0"/>
<rect x="134.755" y="159.045" width="41.8489" height="1.14654" rx="0.573272" transform="rotate(4.32752 134.755 159.045)" fill="#E2E8F0"/>
<rect x="180.486" y="162.506" width="25.7972" height="1.14654" rx="0.573272" transform="rotate(4.32752 180.486 162.506)" fill="#E2E8F0"/>
<rect x="79.4893" y="160.037" width="51.0212" height="1.14654" rx="0.573272" transform="rotate(4.32752 79.4893 160.037)" fill="#E2E8F0"/>
<rect x="134.366" y="164.19" width="51.0212" height="1.14654" rx="0.573272" transform="rotate(4.32752 134.366 164.19)" fill="#E2E8F0"/>
<rect x="79.0996" y="165.182" width="51.0212" height="1.14654" rx="0.573272" transform="rotate(4.32752 79.0996 165.182)" fill="#E2E8F0"/>
<rect x="133.977" y="169.334" width="25.7972" height="1.14654" rx="0.573272" transform="rotate(4.32752 133.977 169.334)" fill="#E2E8F0"/>
<rect x="163.702" y="171.584" width="51.0212" height="1.14654" rx="0.573272" transform="rotate(4.32752 163.702 171.584)" fill="#E2E8F0"/>
<rect x="78.71" y="170.327" width="31.53" height="1.14654" rx="0.573272" transform="rotate(4.32752 78.71 170.327)" fill="#E2E8F0"/>
<rect x="114.152" y="173.009" width="51.0212" height="1.14654" rx="0.573272" transform="rotate(4.32752 114.152 173.009)" fill="#E2E8F0"/>
<rect x="169.029" y="177.161" width="51.0212" height="1.14654" rx="0.573272" transform="rotate(4.32752 169.029 177.161)" fill="#E2E8F0"/>
<rect x="78.3213" y="175.471" width="41.8489" height="1.14654" rx="0.573272" transform="rotate(4.32752 78.3213 175.471)" fill="#E2E8F0"/>
<rect x="124.052" y="178.932" width="31.53" height="1.14654" rx="0.573272" transform="rotate(4.32752 124.052 178.932)" fill="#E2E8F0"/>
<rect x="159.493" y="181.614" width="51.0212" height="1.14654" rx="0.573272" transform="rotate(4.32752 159.493 181.614)" fill="#E2E8F0"/>
<rect x="77.9316" y="180.616" width="51.0212" height="1.14654" rx="0.573272" transform="rotate(4.32752 77.9316 180.616)" fill="#E2E8F0"/>
<rect x="132.809" y="184.769" width="41.8489" height="1.14654" rx="0.573272" transform="rotate(4.32752 132.809 184.769)" fill="#E2E8F0"/>
<rect x="178.54" y="188.229" width="51.0212" height="1.14654" rx="0.573272" transform="rotate(4.32752 178.54 188.229)" fill="#E2E8F0"/>
<path opacity="0.7" d="M159.705 195.573C158.47 196.348 157.056 196.669 155.674 196.564C154.292 196.459 152.942 195.93 151.837 194.977L54.3779 122.065L45.3262 241.68C44.7711 249.017 50.2747 255.421 57.6111 255.977L243.679 270.057C251.015 270.612 257.42 265.109 257.975 257.772L267.027 138.157L159.705 195.573Z" fill="#B2F2BB"/>
<path opacity="0.7" d="M243.679 270.057L57.6107 255.976C50.1547 255.412 44.7616 249.136 45.3258 241.68C45.4857 239.567 46.6467 237.65 48.4424 236.529L153.15 177.619C154.385 176.844 155.8 176.523 157.182 176.628C158.564 176.733 159.914 177.262 161.018 178.215L255.669 252.211C257.276 253.589 258.135 255.659 257.975 257.772C257.411 265.228 251.135 270.621 243.679 270.057Z" fill="#B2F2BB"/>
</g>
<defs>
<filter id="filter0_d_163_316" x="-0.000205994" y="6.24657e-05" width="312.313" height="318.676" filterUnits="userSpaceOnUse" color-interpolation-filters="sRGB">
<feFlood flood-opacity="0" result="BackgroundImageFix"/>
<feColorMatrix in="SourceAlpha" type="matrix" values="0 0 0 0 0 0 0 0 0 0 0 0 0 0 0 0 0 0 127 0" result="hardAlpha"/>
<feOffset dy="3.29348"/>
<feGaussianBlur stdDeviation="22.6427"/>
<feComposite in2="hardAlpha" operator="out"/>
<feColorMatrix type="matrix" values="0 0 0 0 0 0 0 0 0 0 0 0 0 0 0 0 0 0 0.1 0"/>
<feBlend mode="normal" in2="BackgroundImageFix" result="effect1_dropShadow_163_316"/>
<feBlend mode="normal" in="SourceGraphic" in2="effect1_dropShadow_163_316" result="shape"/>
</filter>
<linearGradient id="paint0_linear_163_316" x1="168.38" y1="-26.6137" x2="168.38" y2="245.07" gradientUnits="userSpaceOnUse">
<stop stop-color="white"/>
<stop offset="1" stop-color="white" stop-opacity="0"/>
</linearGradient>
</defs>
</svg>
